<?xml version="1.0" encoding="utf-8"?>
<!-- Generator: Adobe Illustrator 22.0.1, SVG Export Plug-In . SVG Version: 6.00 Build 0)  -->
<svg version="1.1" id="Layer_1" xmlns="http://www.w3.org/2000/svg" xmlns:xlink="http://www.w3.org/1999/xlink" x="0px" y="0px"
	 viewBox="0 0 469.7 214.1" style="enable-background:new 0 0 469.7 214.1;" xml:space="preserve">
<g>
	<path d="M221.2,152.7c-0.5,34-27,60.7-62.7,63.3c-7.5,0.5-13.6-0.7-19.7-5.4c-30.5-23.4-61.6-46-91.9-69.7
		c-10.6-8.3-20.1-18.3-28.8-28.6C0.7,91.9-4.1,68.1,6.2,43.2C16.5,18.4,37.3,7.4,63.4,4.6c8.1-0.9,14.1,1,20.5,6.3
		c36.1,30,72.6,59.4,108.9,89.2c12.8,10.5,23.5,22.4,26.8,39.4C220.4,143.8,220.6,148.3,221.2,152.7z"/>
	<path d="M227.9,215.7c8.5-10.6,16.2-20.3,24-30c24.4-30.6,49-61,73.3-91.7c7.7-9.7,15.6-19.6,18-32.3c4.2-22.1-1.3-40.9-18.7-55.8
		c-1-0.8-1.9-1.8-3.6-3.2c1.7-0.4,2.8-0.9,3.9-0.9c24.9-0.8,49.9-2.4,74.4,3.3c38.5,8.9,68.1,45.3,69.3,84.7c0.1,3-1.2,6.6-3.1,8.9
		c-30.8,37.7-61.7,75.3-92.8,112.8c-1.8,2.2-5.3,4.4-8,4.4c-44.2,0.3-88.5,0.2-132.8,0.2C231,216.1,230.1,215.9,227.9,215.7z"/>
	<path d="M326.2,49.5c0,25.6-21.1,46.6-46.8,46.5c-25.7-0.1-46.8-21.2-46.7-46.7c0.1-25.6,21.4-46.6,47-46.5
		C305.6,2.9,326.2,23.6,326.2,49.5z"/>
	<path d="M103.1,3.2c46,0,90.3,0,135.2,0C209,25.9,209,57.6,210.4,91.1C174.7,61.8,139.6,33,103.1,3.2z"/>
	<path d="M2.9,215.8c0-29.2,0-58,0-88.2C40.7,157.1,77.7,186,116,215.8C77.5,215.8,40.6,215.8,2.9,215.8z"/>
	<path d="M468.5,215.8c-24.6,0-48.9,0-74.6,0c25-31.5,49.4-62.2,74.6-94.1C468.5,153.7,468.5,184.4,468.5,215.8z"/>
</g>
</svg>
