<?xml version="1.0" encoding="utf-8"?>
<!-- Generator: Adobe Illustrator 22.0.1, SVG Export Plug-In . SVG Version: 6.00 Build 0)  -->
<svg version="1.1" xmlns="http://www.w3.org/2000/svg" xmlns:xlink="http://www.w3.org/1999/xlink" x="0px" y="0px"
	 viewBox="0 0 115 164" style="enable-background:new 0 0 115 164;" xml:space="preserve">
<style type="text/css">
	.st0{display:none;}
	.st1{display:inline;fill:none;stroke:#000000;stroke-miterlimit:10;}
	.st2{fill:#1E1E1E;}
	.st3{fill:#262626;}
	.st4{fill:#3F3F3F;}
	.st5{fill:#565656;}
	.st6{fill:#636363;}
	.st7{fill:#3A3631;}
	.st8{fill:#332206;}
	.st9{fill:#D3830D;}
	.st10{fill:#C0DD57;}
	.st11{fill:#EAF74B;}
	.st12{fill:#FF4D4D;}
	.st13{fill:#F7AA4F;}
	.st14{fill:#4CCAD8;}
	.st15{fill:#ADDB49;}
	.st16{fill:#CDE576;}
	.st17{fill:#FC7C7C;}
	.st18{fill:#6AE0E5;}
	.st19{fill:#F7C186;}
	.st20{fill:#F7F79F;}
	.st21{fill:#4848A0;}
	.st22{fill:#4268BC;}
	.st23{fill:#2D2D77;}
	.st24{fill:#4887CC;}
	.st25{fill:#70B9EF;}
	.st26{fill:#7878BA;}
	.st27{fill:#6260A8;}
	.st28{fill:#ABDCF4;}
	.st29{fill:#72AFDD;}
	.st30{fill:#7499D1;}
	.st31{fill:#FC7777;}
	.st32{fill:#C12929;}
	.st33{fill:#F99898;}
	.st34{fill:#F9AD98;}
	.st35{fill:#C15656;}
	.st36{fill:#FFD0C5;}
	.st37{fill:#F9BDBD;}
	.st38{fill:#FF9999;}
	.st39{fill:none;stroke:#0C0B0B;stroke-width:0.2135;stroke-miterlimit:10;}
	.st40{fill:none;stroke:#0C0B0B;stroke-width:0.2371;stroke-miterlimit:10;}
	.st41{fill:none;stroke:#0C0B0B;stroke-width:0.2071;stroke-miterlimit:10;}
	.st42{fill:none;stroke:#0C0B0B;stroke-width:1.9398;stroke-miterlimit:10;}
	.st43{fill:#0C0B0B;}
</style>
<g id="Layer_1" class="st0">
	<line class="st1" x1="-94.4" y1="280.4" x2="809.6" y2="280.4"/>
</g>
<g id="Layer_3">
	<polygon class="st2" points="72.9,275.1 72.9,209.1 95.6,209.1 95.6,270.5 108.3,270.5 108.3,247.8 126.9,247.8 126.9,275.1 
		144.3,275.1 144.3,227.1 160.3,227.1 160.3,270.5 169.6,270.5 169.6,219.1 185.6,219.1 185.6,280.5 197.6,280.5 197.6,199.8 
		222.9,199.8 222.9,276.5 227.6,276.5 227.6,225.1 247.6,225.1 247.6,273.8 247.6,259.8 262.9,259.8 262.9,273.1 272.9,273.1 
		272.9,240.1 293.6,240.1 293.6,271.1 302.3,271.1 302.3,199.8 322.9,199.8 322.9,265.8 331.6,265.8 331.6,209.8 353.6,209.8 
		353.6,277.1 371.3,277.1 371.3,243.8 382.9,243.8 382.9,271.8 402.3,271.8 402.3,235.8 409.1,242.6 418.4,233.3 418.4,267.1 
		436.3,267.1 436.3,226.5 452.3,226.5 452.3,270.5 465.6,270.5 465.6,224.5 482.9,224.5 482.9,255.8 494.3,255.8 494.3,218.5 
		505.6,218.5 505.6,253.8 533.6,253.8 533.6,201.8 561.6,201.8 561.6,221.1 572.3,221.1 572.3,240.1 584.8,252.6 584.8,275.8 
		593.9,266.7 593.9,229.1 608.9,229.1 608.9,253.1 630.9,253.1 630.9,280.5 72.9,280.5 	"/>
</g>
<g id="Layer_6">
	<polygon class="st3" points="579.3,280.5 579.3,229.8 563.3,229.8 563.3,280.5 555.9,280.5 555.9,225.1 539.9,225.1 539.9,280.5 
		530.6,280.5 530.6,265.8 502.6,265.8 502.6,280.5 489.3,280.5 489.3,265.8 479.9,265.8 479.9,280.5 479.9,248.1 471.3,248.1 
		471.3,280.5 463.9,280.5 466.6,269.1 433.9,268.5 437.3,280.5 430.6,280.5 430.6,259.1 430.6,239.1 416.6,239.1 416.6,280.5 
		405.9,280.5 405.9,233.1 392.6,233.1 392.6,280.5 384.6,280.5 384.6,252.8 376.6,252.8 376.6,280.5 367.3,280.5 367.3,255.8 
		355.3,255.8 355.3,280.5 346.6,280.5 346.6,225.1 335.3,222.5 335.3,280.5 326.6,277.1 313.3,215.1 306.6,215.1 306.6,280.5 
		289.9,280.5 289.9,257.8 217.9,257.8 217.9,280.5 190.6,280.5 190.6,239.8 183.3,240.5 183.3,280.5 166.6,280.5 166.6,239.8 
		158.6,239.8 158.6,280.5 145.3,280.5 145.3,237.1 132.6,237.1 132.6,280.5 132.6,215.1 117.9,215.1 117.9,280.5 90.6,280.5 
		90.6,256.5 77.9,255.8 77.9,280.5 69.9,280.5 69.9,257.8 56.6,257.8 56.6,280.5 43.3,280.5 43.3,241.1 34.6,241.1 34.6,280.5 
		21.3,280.5 21.3,248.1 13.3,248.1 13.3,280.5 	"/>
</g>
<g id="Layer_2">
	<polygon class="st4" points="64.9,280.5 64.9,229.8 80.9,229.8 80.9,280.5 88.3,280.5 88.3,225.1 104.3,225.1 104.3,280.5 
		113.6,280.5 113.6,265.8 141.6,265.8 141.6,280.5 154.9,280.5 154.9,265.8 164.3,265.8 164.3,280.5 164.3,248.1 172.9,248.1 
		172.9,280.5 180.3,280.5 177.6,269.1 210.3,268.5 206.9,280.5 213.6,280.5 213.6,259.1 213.6,239.1 227.6,239.1 227.6,280.5 
		238.3,280.5 238.3,233.1 251.6,233.1 251.6,280.5 259.6,280.5 259.6,252.8 267.6,252.8 267.6,280.5 276.9,280.5 276.9,255.8 
		288.9,255.8 288.9,280.5 297.6,280.5 297.6,225.1 308.9,222.5 308.9,280.5 317.6,277.1 330.9,215.1 337.6,215.1 337.6,280.5 
		354.3,280.5 354.3,257.8 426.3,257.8 426.3,280.5 453.6,280.5 453.6,239.8 460.9,240.5 460.9,280.5 477.6,280.5 477.6,239.8 
		485.6,239.8 485.6,280.5 498.9,280.5 498.9,237.1 511.6,237.1 511.6,280.5 511.6,215.1 526.3,215.1 526.3,280.5 553.6,280.5 
		553.6,256.5 566.3,255.8 566.3,280.5 574.3,280.5 574.3,257.8 587.6,257.8 587.6,280.5 600.9,280.5 600.9,241.1 609.6,241.1 
		609.6,280.5 622.9,280.5 622.9,248.1 630.9,248.1 630.9,280.5 	"/>
</g>
<g id="Layer_5">
	<polygon class="st5" points="568.6,280.4 568.6,262.5 560.6,262.5 560.6,280.4 546.3,280.4 546.3,262.5 538.4,262.5 538.4,279 
		538.4,280.4 533.4,280.4 533.4,275.7 529.8,275.7 529.8,280.2 527.4,280.2 527.4,274.4 524.3,274.4 524.3,280.4 516.4,280.4 
		516.4,272.2 510.9,272.2 510.9,280.2 505.4,280.2 505.4,276.2 495.9,276.2 495.9,280.4 489.4,280.4 489.4,269.2 486.8,269.2 
		486.8,280.2 478.9,280.2 478.9,267.4 475.3,267.4 475.3,280.2 466.8,280.2 466.8,272.9 464.3,272.9 464.3,277.2 461.1,277.2 
		461.1,280.2 437.4,280.2 437.4,275.5 433.1,275.5 433.1,270.7 428.8,270.7 428.8,275 424.3,275 424.3,278.4 419.6,278.4 
		419.6,280.4 413.4,280.4 413.4,274 411.3,274 411.3,280.4 406.1,280.4 406.1,273.7 403.6,273.7 403.6,280.4 395.9,280.4 
		395.9,273.9 392.8,273.9 392.8,280.4 323.4,280.4 323.4,275 320.4,275 320.4,280 316.3,280 316.3,275.7 313.4,275.7 313.4,280 
		309.1,280 309.1,272.7 305.9,272.7 305.9,280.4 291.4,280.4 291.4,272.9 287.4,272.9 287.4,280.2 232.8,280.2 232.8,268 229.8,268 
		229.8,280.2 215.4,280.2 215.4,273 209.9,273 209.9,280.4 185.9,280.4 185.9,267 177.6,267 177.6,280.4 156.3,280.4 156.3,275.9 
		153.8,275.9 153.8,280.2 148.6,280.2 148.6,273.9 146.3,273.9 146.3,279.4 140.9,279.4 140.9,272.4 137.9,272.4 137.9,280.4 
		128.6,280.4 128.6,274.7 124.4,274.7 124.4,280.4 106.8,280.4 106.8,270.4 102.1,270.4 102.1,280.4 97.6,280.4 97.6,266.9 
		95.9,268.6 95.9,280.4 91.9,280.4 91.9,271.4 87.9,271.4 87.9,268 84.1,268 84.1,280.2 78.1,280.2 78.1,273 74.8,273 74.8,280.4 
		66.6,280.4 66.6,271.4 64.1,268.9 60.6,268.9 60.6,280.4 54.4,280.4 54.4,272.7 51.3,272.7 51.3,280.2 45.3,280.2 45.3,271.4 
		41.9,271.4 41.9,280.4 35.6,280.4 35.6,274.9 31.9,274.9 31.9,280.4 29.1,280.4 29.1,275.5 23.8,275.5 23.8,280.2 	"/>
</g>
<g id="Layer_4">
	<polygon class="st6" points="75.8,280.5 75.8,262.6 83.8,262.6 83.8,280.5 98.1,280.5 98.1,262.6 105.9,262.6 105.9,279.1 
		105.9,280.5 110.9,280.5 110.9,275.8 114.6,275.8 114.6,280.4 116.9,280.4 116.9,274.5 120.1,274.5 120.1,280.5 127.9,280.5 
		127.9,272.3 133.4,272.3 133.4,280.4 138.9,280.4 138.9,276.3 148.4,276.3 148.4,280.5 154.9,280.5 154.9,269.3 157.6,269.3 
		157.6,280.4 165.4,280.4 165.4,267.5 169.1,267.5 169.1,280.4 177.6,280.4 177.6,273 180.1,273 180.1,277.3 183.3,277.3 
		183.3,280.4 206.9,280.4 206.9,275.6 211.3,275.6 211.3,270.8 215.6,270.8 215.6,275.1 220.1,275.1 220.1,278.5 224.8,278.5 
		224.8,280.5 230.9,280.5 230.9,274.1 233.1,274.1 233.1,280.5 238.3,280.5 238.3,273.8 240.8,273.8 240.8,280.5 248.4,280.5 
		248.4,274 251.6,274 251.6,280.5 320.9,280.5 320.9,275.1 323.9,275.1 323.9,280.1 328.1,280.1 328.1,275.8 330.9,275.8 
		330.9,280.1 335.3,280.1 335.3,272.8 338.4,272.8 338.4,280.5 352.9,280.5 352.9,273 356.9,273 356.9,280.4 411.6,280.4 
		411.6,268.1 414.6,268.1 414.6,280.4 428.9,280.4 428.9,273.1 434.4,273.1 434.4,280.5 458.4,280.5 458.4,267.1 466.8,267.1 
		466.8,280.5 488.1,280.5 488.1,276 490.6,276 490.6,280.4 495.8,280.4 495.8,274 498.1,274 498.1,279.5 503.4,279.5 503.4,272.5 
		506.4,272.5 506.4,280.5 515.8,280.5 515.8,274.8 519.9,274.8 519.9,280.5 537.6,280.5 537.6,270.5 542.3,270.5 542.3,280.5 
		546.8,280.5 546.8,267 548.5,268.7 548.5,280.5 552.4,280.5 552.4,271.5 556.4,271.5 556.4,268.1 560.3,268.1 560.3,280.4 
		566.3,280.4 566.3,273.1 569.6,273.1 569.6,280.5 577.8,280.5 577.8,271.5 580.3,269 583.8,269 583.8,280.5 589.9,280.5 
		589.9,272.8 593.1,272.8 593.1,280.3 599.1,280.3 599.1,271.5 602.4,271.5 602.4,280.5 608.8,280.5 608.8,275 612.4,275 
		612.4,280.5 615.3,280.5 615.3,275.6 620.6,275.6 620.6,280.3 	"/>
</g>
<g id="Layer_8">
	<g id="Layer_9">
	</g>
	<g id="Layer_10">
	</g>
	<g>
		<rect x="684.2" y="133.1" class="st7" width="22.4" height="4.1"/>
		<path class="st8" d="M695.5,155.5h-9c0,4.2,1.7,10.5,1.7,10.5h7.2h0h7.2c0,0,1.7-6.3,1.7-10.5H695.5"/>
		<polygon class="st9" points="687.5,155.5 683.8,134.8 684.6,134.2 688.4,155.5 		"/>
		<polygon class="st9" points="703.6,155.5 707.3,134.8 706.5,134.2 702.7,155.5 		"/>
		<polygon class="st9" points="699.8,155.5 699.8,131.3 700.5,131.4 700.5,155.5 		"/>
		<polygon class="st9" points="691.1,155.5 691.1,131.3 690.4,131.4 690.4,155.5 		"/>
		<path class="st10" d="M662.4,113.1c5.3,6.9,11.9,13.9,20.1,21c0.4,0.3,0.9,0.5,1.3,0.8c0.2-0.2,0.5-0.4,0.8-0.6
			c1.6-1.2,3.6-2.1,5.9-2.7c0.3-0.1,0.6-0.1,0.9-0.2c0,0.1-3.4-7.3-6.8-20.9C677.1,110.8,669.7,111.7,662.4,113.1z"/>
		<path class="st11" d="M684.6,110.4c3.4,13.6,6.8,21,6.8,20.9c2.7-0.5,5.4-0.5,8.1,0h0c0,0.1,3.3-7.1,6.7-20.6
			C698.9,110.2,691.8,110.1,684.6,110.4z"/>
		<path class="st12" d="M662.4,113.1c-0.6,0.1-1.2,0.2-1.8,0.4c6.8,8.9,14.5,16.3,21.9,20.6C674.3,126.9,667.7,119.9,662.4,113.1z"
			/>
		<path class="st13" d="M728,113.5c-7.3-1.3-14.6-2.2-21.8-2.8c-3.4,13.4-6.7,20.7-6.7,20.6c2.8,0.5,5.2,1.5,7,2.9
			c0.3,0.2,0.5,0.4,0.7,0.6C715.7,127.6,722.5,120.4,728,113.5z"/>
		<path class="st12" d="M646.1,40.1c-1.3,0.4-2.6,0.8-3.9,1.2c-0.4,1-0.7,2.1-1,3.1c-1.1,3.6-1.8,7.4-2.1,11.3
			c-0.1,1.5-0.2,3.1-0.2,4.6c0,3.6,0.5,7.4,1.3,11.4c1.3,5.9,3.4,12,6.1,18.1c2.8,6.2,6.3,12.2,10.1,17.9c0.6-0.1,1.2-0.3,1.8-0.4
			C639.7,80.1,641.3,56,646.1,40.1z"/>
		<path class="st14" d="M707.3,134.8c7.7-4.2,15.7-11.7,22.9-20.9c-0.7-0.1-1.4-0.3-2.1-0.4C722.5,120.4,715.7,127.6,707.3,134.8z"
			/>
		<path class="st14" d="M732.3,107.7c0.7,0.1,1.4,0.3,2,0.4c4-5.8,7.5-12,10.4-18.3c2.8-6.1,4.9-12.2,6.1-18.1
			c0.8-3.9,1.3-7.8,1.3-11.4c0-1.6-0.1-3.1-0.2-4.6c-0.3-3.9-1-7.7-2.1-11.3c-0.3-0.9-0.5-1.7-0.8-2.5c-1.3-0.4-2.5-0.7-3.8-1
			C749.9,56.8,750.9,80.8,732.3,107.7z"/>
		<path class="st11" d="M711.6,24.2c-0.6-6-1.4-12.3-2.5-18.7c-4.4-1.1-8.9-1.6-13.6-1.6c-4.8,0-9.4,0.6-13.8,1.7
			c-1,6.2-1.8,12.3-2.4,18.2C690,22.8,700.7,23,711.6,24.2z"/>
		<path class="st14" d="M743.3,30c-2.2-3.5-4.8-6.7-7.7-9.6c0,0,2.5,3.2,5.3,9C741.7,29.6,742.5,29.8,743.3,30z"/>
		<path class="st15" d="M679.2,6.2c-7.8,2.3-14.8,6.3-20.8,11.5c-0.8,0.7-1.6,1.5-2.4,2.2c-0.4,0.6-2.9,4-5.2,8.5
			c9.4-2.5,18.9-4.1,28.5-4.8c0.6-5.9,1.4-11.9,2.4-18.2C680.9,5.7,680,5.9,679.2,6.2z"/>
		<path class="st12" d="M655.5,20.4c-2.7,2.7-5,5.6-7.1,8.7c0.8-0.2,1.6-0.4,2.4-0.6c2.3-4.5,4.8-8,5.2-8.5
			C655.8,20.1,655.7,20.2,655.5,20.4z"/>
		<path class="st16" d="M679.3,23.6c-9.6,0.7-19.2,2.3-28.5,4.8c-1.6,3.1-3.3,7-4.7,11.7c10.6-3.2,21.4-5.2,32.4-6.1
			C678.7,30.7,679,27.2,679.3,23.6z"/>
		<path class="st17" d="M650.8,28.5c-0.8,0.2-1.6,0.4-2.4,0.6c-2.5,3.8-4.6,7.9-6.2,12.2c1.3-0.4,2.6-0.8,3.9-1.2
			C647.5,35.5,649.2,31.5,650.8,28.5z"/>
		<path class="st18" d="M728,113.5c0.7,0.1,1.4,0.3,2.1,0.4c1.4-1.9,2.8-3.8,4.2-5.7c-0.7-0.1-1.4-0.3-2-0.4
			C731,109.6,729.6,111.5,728,113.5z"/>
		<path class="st17" d="M658.2,107.3c-0.6,0.1-1.2,0.3-1.8,0.4c1.3,2,2.7,3.9,4.1,5.7c0.6-0.1,1.2-0.2,1.8-0.4
			C660.9,111.1,659.5,109.2,658.2,107.3z"/>
		<path class="st19" d="M706.2,110.7c7.2,0.5,14.5,1.4,21.8,2.8c1.5-1.9,3-3.9,4.3-5.8c-8.3-1.6-16.5-2.8-24.6-3.4
			C707.2,106.5,706.7,108.7,706.2,110.7z"/>
		<path class="st11" d="M712.5,34.6c-11.5-1.3-22.8-1.5-34-0.5c-1.9,29.4,1.1,53.2,4.7,69.9c8.1-0.5,16.3-0.4,24.6,0.3
			C711.3,87.6,714.3,63.9,712.5,34.6z"/>
		<path class="st10" d="M678.5,34.1c-10.9,0.9-21.7,2.9-32.4,6.1c-4.8,15.8-6.4,39.9,12.1,67.2c8.2-1.8,16.5-2.9,24.9-3.4
			C679.5,87.2,676.6,63.4,678.5,34.1z"/>
		<path class="st19" d="M740.9,29.4c-9.9-2.5-19.6-4.2-29.3-5.2c0.4,3.6,0.6,7,0.9,10.5c10.8,1.2,21.7,3.3,32.8,6.3
			C744,36.4,742.4,32.5,740.9,29.4z"/>
		<path class="st13" d="M735.6,20.4c-0.9-0.9-1.8-1.7-2.8-2.6c-6.7-5.9-14.8-10.2-23.7-12.4c1.1,6.4,1.9,12.7,2.5,18.7
			c9.7,1,19.4,2.8,29.3,5.2C738.1,23.6,735.6,20.4,735.6,20.4z"/>
		<path class="st18" d="M749,41.9c-1.5-4.2-3.4-8.2-5.8-12c-0.8-0.2-1.6-0.4-2.4-0.6c1.5,3.1,3.1,7,4.4,11.5
			C746.5,41.2,747.8,41.6,749,41.9z"/>
		<path class="st13" d="M712.5,34.6c1.9,29.3-1.2,53-4.8,69.6c8.1,0.6,16.3,1.8,24.6,3.4c18.6-26.9,17.6-50.8,13-66.8
			C734.2,37.9,723.3,35.8,712.5,34.6z"/>
		<path class="st20" d="M679.3,23.6c-0.4,3.5-0.6,7-0.9,10.4c11.2-0.9,22.5-0.7,34,0.5c-0.2-3.4-0.5-6.9-0.9-10.5
			C700.7,23,690,22.8,679.3,23.6z"/>
		<path class="st20" d="M683.1,103.9c0.5,2.3,1,4.5,1.5,6.5c7.1-0.3,14.3-0.2,21.6,0.3c0.5-2,1-4.2,1.5-6.5
			C699.4,103.6,691.2,103.5,683.1,103.9z"/>
		<path class="st16" d="M658.2,107.3c1.3,1.9,2.7,3.8,4.2,5.7c7.3-1.4,14.7-2.3,22.2-2.6c-0.5-2-1-4.2-1.5-6.5
			C674.7,104.4,666.4,105.5,658.2,107.3z"/>
	</g>
</g>
<g id="Layer_12">
	<g>
		<rect x="398.3" y="122.4" class="st7" width="22.4" height="4.1"/>
		<path class="st8" d="M409.5,144.9h-9c0,4.2,1.7,10.5,1.7,10.5h7.2h0h7.2c0,0,1.7-6.3,1.7-10.5H409.5"/>
		<polygon class="st9" points="401.6,144.8 397.9,124.1 398.6,123.5 402.5,144.8 		"/>
		<polygon class="st9" points="417.6,144.9 421.4,124.1 420.6,123.5 416.8,144.9 		"/>
		<polygon class="st9" points="413.9,144.8 413.9,120.6 414.6,120.7 414.6,144.8 		"/>
		<polygon class="st9" points="405.2,144.9 405.2,120.6 404.5,120.8 404.5,144.9 		"/>
		<path class="st21" d="M376.5,102.4c5.3,6.9,11.9,13.9,20.1,21c0.4,0.3,0.9,0.5,1.3,0.8c0.2-0.2,0.5-0.4,0.8-0.6
			c1.6-1.2,3.6-2.1,5.9-2.7c0.3-0.1,0.6-0.1,0.9-0.2c0,0.1-3.4-7.3-6.8-20.9C391.2,100.1,383.8,101,376.5,102.4z"/>
		<path class="st22" d="M398.7,99.8c3.4,13.6,6.8,21,6.8,20.9c2.7-0.5,5.4-0.5,8.1,0h0c0,0.1,3.3-7.1,6.7-20.6
			C413,99.5,405.8,99.4,398.7,99.8z"/>
		<path class="st23" d="M376.5,102.4c-0.6,0.1-1.2,0.2-1.8,0.4c6.8,8.9,14.5,16.3,21.9,20.6C388.4,116.3,381.8,109.2,376.5,102.4z"
			/>
		<path class="st24" d="M442.1,102.8c-7.3-1.3-14.6-2.2-21.8-2.8c-3.4,13.4-6.7,20.7-6.7,20.6c2.8,0.5,5.2,1.5,7,2.9
			c0.3,0.2,0.5,0.4,0.7,0.6C429.8,116.9,436.6,109.8,442.1,102.8z"/>
		<path class="st23" d="M360.2,29.5c-1.3,0.4-2.6,0.8-3.9,1.2c-0.4,1-0.7,2.1-1,3.1c-1.1,3.6-1.8,7.4-2.1,11.3
			c-0.1,1.5-0.2,3.1-0.2,4.6c0,3.6,0.5,7.4,1.3,11.4c1.3,5.9,3.4,12,6.1,18.1c2.8,6.2,6.3,12.2,10.1,17.9c0.6-0.1,1.2-0.3,1.8-0.4
			C353.8,69.4,355.3,45.3,360.2,29.5z"/>
		<path class="st25" d="M421.3,124.1c7.7-4.2,15.7-11.7,22.9-20.9c-0.7-0.1-1.4-0.3-2.1-0.4C436.6,109.8,429.8,116.9,421.3,124.1z"
			/>
		<path class="st25" d="M446.4,97c0.7,0.1,1.4,0.3,2,0.4c4-5.8,7.5-12,10.4-18.3c2.8-6.1,4.9-12.2,6.1-18.1
			c0.8-3.9,1.3-7.8,1.3-11.4c0-1.6-0.1-3.1-0.2-4.6c-0.3-3.9-1-7.7-2.1-11.3c-0.3-0.9-0.5-1.7-0.8-2.5c-1.3-0.4-2.5-0.7-3.8-1
			C464,46.2,465,70.1,446.4,97z"/>
		<path class="st22" d="M425.7,13.5c-0.6-6-1.4-12.3-2.5-18.7c-4.4-1.1-8.9-1.6-13.6-1.6c-4.8,0-9.4,0.6-13.8,1.7
			c-1,6.2-1.8,12.3-2.4,18.2C404,12.1,414.8,12.3,425.7,13.5z"/>
		<path class="st25" d="M457.3,19.3c-2.2-3.5-4.8-6.7-7.7-9.6c0,0,2.5,3.2,5.3,9C455.7,18.9,456.5,19.1,457.3,19.3z"/>
		<path class="st21" d="M393.2-4.5c-7.8,2.3-14.8,6.3-20.8,11.5c-0.8,0.7-1.6,1.5-2.4,2.2c-0.4,0.6-2.9,4-5.2,8.5
			c9.4-2.5,18.9-4.1,28.5-4.8c0.6-5.9,1.4-11.9,2.4-18.2C394.9-5,394.1-4.7,393.2-4.5z"/>
		<path class="st23" d="M369.6,9.7c-2.7,2.7-5,5.6-7.1,8.7c0.8-0.2,1.6-0.4,2.4-0.6c2.3-4.5,4.8-8,5.2-8.5
			C369.9,9.4,369.7,9.5,369.6,9.7z"/>
		<path class="st26" d="M393.4,13c-9.6,0.7-19.2,2.3-28.5,4.8c-1.6,3.1-3.3,7-4.7,11.7c10.6-3.2,21.4-5.2,32.4-6.1
			C392.8,20,393,16.5,393.4,13z"/>
		<path class="st27" d="M364.9,17.8c-0.8,0.2-1.6,0.4-2.4,0.6c-2.5,3.8-4.6,7.9-6.2,12.2c1.3-0.4,2.6-0.8,3.9-1.2
			C361.6,24.8,363.3,20.9,364.9,17.8z"/>
		<path class="st28" d="M442.1,102.8c0.7,0.1,1.4,0.3,2.1,0.4c1.4-1.9,2.8-3.8,4.2-5.7c-0.7-0.1-1.4-0.3-2-0.4
			C445,98.9,443.6,100.9,442.1,102.8z"/>
		<path class="st27" d="M372.3,96.7c-0.6,0.1-1.2,0.3-1.8,0.4c1.3,2,2.7,3.9,4.1,5.7c0.6-0.1,1.2-0.2,1.8-0.4
			C375,100.5,373.6,98.5,372.3,96.7z"/>
		<path class="st29" d="M420.3,100c7.2,0.5,14.5,1.4,21.8,2.8c1.5-1.9,3-3.9,4.3-5.8c-8.3-1.6-16.5-2.8-24.6-3.4
			C421.3,95.9,420.8,98,420.3,100z"/>
		<path class="st22" d="M426.5,23.9c-11.5-1.3-22.8-1.5-34-0.5c-1.9,29.4,1.1,53.2,4.7,69.9c8.1-0.5,16.3-0.4,24.6,0.3
			C425.4,77,428.4,53.2,426.5,23.9z"/>
		<path class="st21" d="M392.5,23.4c-10.9,0.9-21.7,2.9-32.4,6.1c-4.8,15.8-6.4,39.9,12.1,67.2c8.2-1.8,16.5-2.9,24.9-3.4
			C393.6,76.6,390.6,52.8,392.5,23.4z"/>
		<path class="st29" d="M454.9,18.7c-9.9-2.5-19.6-4.2-29.3-5.2c0.4,3.6,0.6,7,0.9,10.5c10.8,1.2,21.7,3.3,32.8,6.3
			C458,25.7,456.5,21.8,454.9,18.7z"/>
		<path class="st24" d="M449.6,9.7c-0.9-0.9-1.8-1.7-2.8-2.6C440.2,1.3,432.1-3,423.2-5.2c1.1,6.4,1.9,12.7,2.5,18.7
			c9.7,1,19.4,2.8,29.3,5.2C452.2,12.9,449.6,9.7,449.6,9.7z"/>
		<path class="st28" d="M463.1,31.2c-1.5-4.2-3.4-8.2-5.8-12c-0.8-0.2-1.6-0.4-2.4-0.6c1.5,3.1,3.1,7,4.4,11.5
			C460.6,30.5,461.8,30.9,463.1,31.2z"/>
		<path class="st24" d="M426.5,23.9c1.9,29.3-1.2,53-4.8,69.6c8.1,0.6,16.3,1.8,24.6,3.4c18.6-26.9,17.6-50.8,13-66.8
			C448.3,27.2,437.3,25.1,426.5,23.9z"/>
		<path class="st30" d="M393.4,13c-0.4,3.5-0.6,7-0.9,10.4c11.2-0.9,22.5-0.7,34,0.5c-0.2-3.4-0.5-6.9-0.9-10.5
			C414.8,12.3,404,12.1,393.4,13z"/>
		<path class="st30" d="M397.2,93.3c0.5,2.3,1,4.5,1.5,6.5c7.1-0.3,14.3-0.2,21.6,0.3c0.5-2,1-4.2,1.5-6.5
			C413.5,92.9,405.3,92.8,397.2,93.3z"/>
		<path class="st26" d="M372.3,96.7c1.3,1.9,2.7,3.8,4.2,5.7c7.3-1.4,14.7-2.3,22.2-2.6c-0.5-2-1-4.2-1.5-6.5
			C388.8,93.8,380.5,94.9,372.3,96.7z"/>
	</g>
</g>
<g id="Layer_13">
	<g>
		<rect x="46.2" y="130.3" class="st7" width="22.4" height="4.1"/>
		<path class="st8" d="M57.5,152.8h-9c0,4.2,1.7,10.5,1.7,10.5h7.2h0h7.2c0,0,1.7-6.3,1.7-10.5H57.5"/>
		<polygon class="st9" points="49.5,152.7 45.8,132 46.6,131.4 50.4,152.7 		"/>
		<polygon class="st9" points="65.6,152.8 69.3,132.1 68.5,131.4 64.7,152.8 		"/>
		<polygon class="st9" points="61.8,152.7 61.8,128.5 62.5,128.6 62.5,152.7 		"/>
		<polygon class="st9" points="53.1,152.8 53.1,128.5 52.4,128.7 52.4,152.8 		"/>
		<path class="st12" d="M24.4,110.3c5.3,6.9,11.9,13.9,20.1,21c0.4,0.3,0.9,0.5,1.3,0.8c0.2-0.2,0.5-0.4,0.8-0.6
			c1.6-1.2,3.6-2.1,5.9-2.7c0.3-0.1,0.6-0.1,0.9-0.2c0,0.1-3.4-7.3-6.8-20.9C39.1,108,31.7,108.9,24.4,110.3z"/>
		<path class="st31" d="M46.6,107.7c3.4,13.6,6.8,21,6.8,20.9c2.7-0.5,5.4-0.5,8.1,0h0c0,0.1,3.3-7.1,6.7-20.6
			C60.9,107.4,53.8,107.3,46.6,107.7z"/>
		<path class="st32" d="M24.4,110.3c-0.6,0.1-1.2,0.2-1.8,0.4c6.8,8.9,14.5,16.3,21.9,20.6C36.3,124.2,29.7,117.1,24.4,110.3z"/>
		<path class="st33" d="M90,110.7c-7.3-1.3-14.6-2.2-21.8-2.8c-3.4,13.4-6.7,20.7-6.7,20.6c2.8,0.5,5.2,1.5,7,2.9
			c0.3,0.2,0.5,0.4,0.7,0.6C77.7,124.8,84.5,117.7,90,110.7z"/>
		<path class="st32" d="M8.1,37.4c-1.3,0.4-2.6,0.8-3.9,1.2c-0.4,1-0.7,2.1-1,3.1C2.1,45.3,1.4,49.1,1.1,53
			c-0.1,1.5-0.2,3.1-0.2,4.6c0,3.6,0.5,7.4,1.3,11.4c1.3,5.9,3.4,12,6.1,18.1c2.8,6.2,6.3,12.2,10.1,17.9c0.6-0.1,1.2-0.3,1.8-0.4
			C1.7,77.3,3.3,53.2,8.1,37.4z"/>
		<path class="st34" d="M69.3,132c7.7-4.2,15.7-11.7,22.9-20.9c-0.7-0.1-1.4-0.3-2.1-0.4C84.5,117.7,77.7,124.8,69.3,132z"/>
		<path class="st34" d="M94.3,104.9c0.7,0.1,1.4,0.3,2,0.4c4-5.8,7.5-12,10.4-18.3c2.8-6.1,4.9-12.2,6.1-18.1
			c0.8-3.9,1.3-7.8,1.3-11.4c0-1.6-0.1-3.1-0.2-4.6c-0.3-3.9-1-7.7-2.1-11.3c-0.3-0.9-0.5-1.7-0.8-2.5c-1.3-0.4-2.5-0.7-3.8-1
			C111.9,54.1,112.9,78,94.3,104.9z"/>
		<path class="st31" d="M73.6,21.4c-0.6-6-1.4-12.3-2.5-18.7C66.8,1.6,62.2,1,57.5,1c-4.8,0-9.4,0.6-13.8,1.7
			c-1,6.2-1.8,12.3-2.4,18.2C52,20,62.7,20.2,73.6,21.4z"/>
		<path class="st34" d="M105.3,27.2c-2.2-3.5-4.8-6.7-7.7-9.6c0,0,2.5,3.2,5.3,9C103.7,26.8,104.5,27,105.3,27.2z"/>
		<path class="st12" d="M41.2,3.4c-7.8,2.3-14.8,6.3-20.8,11.5c-0.8,0.7-1.6,1.5-2.4,2.2c-0.4,0.6-2.9,4-5.2,8.5
			c9.4-2.5,18.9-4.1,28.5-4.8C41.9,15,42.7,9,43.8,2.7C42.9,2.9,42,3.2,41.2,3.4z"/>
		<path class="st32" d="M17.5,17.6c-2.7,2.7-5,5.6-7.1,8.7c0.8-0.2,1.6-0.4,2.4-0.6c2.3-4.5,4.8-8,5.2-8.5
			C17.8,17.3,17.7,17.4,17.5,17.6z"/>
		<path class="st17" d="M41.3,20.9c-9.6,0.7-19.2,2.3-28.5,4.8c-1.6,3.1-3.3,7-4.7,11.7c10.6-3.2,21.4-5.2,32.4-6.1
			C40.7,27.9,41,24.4,41.3,20.9z"/>
		<path class="st35" d="M12.8,25.7c-0.8,0.2-1.6,0.4-2.4,0.6c-2.5,3.8-4.6,7.9-6.2,12.2c1.3-0.4,2.6-0.8,3.9-1.2
			C9.5,32.7,11.2,28.8,12.8,25.7z"/>
		<path class="st36" d="M90,110.7c0.7,0.1,1.4,0.3,2.1,0.4c1.4-1.9,2.8-3.8,4.2-5.7c-0.7-0.1-1.4-0.3-2-0.4
			C93,106.8,91.6,108.8,90,110.7z"/>
		<path class="st35" d="M20.2,104.6c-0.6,0.1-1.2,0.3-1.8,0.4c1.3,2,2.7,3.9,4.1,5.7c0.6-0.1,1.2-0.2,1.8-0.4
			C22.9,108.4,21.5,106.5,20.2,104.6z"/>
		<path class="st37" d="M68.2,107.9c7.2,0.5,14.5,1.4,21.8,2.8c1.5-1.9,3-3.9,4.3-5.8c-8.3-1.6-16.5-2.8-24.6-3.4
			C69.2,103.8,68.7,105.9,68.2,107.9z"/>
		<path class="st31" d="M74.5,31.8c-11.5-1.3-22.8-1.5-34-0.5c-1.9,29.4,1.1,53.2,4.7,69.9c8.1-0.5,16.3-0.4,24.6,0.3
			C73.3,84.9,76.3,61.1,74.5,31.8z"/>
		<path class="st12" d="M40.5,31.3c-10.9,0.9-21.7,2.9-32.4,6.1c-4.8,15.8-6.4,39.9,12.1,67.2c8.2-1.8,16.5-2.9,24.9-3.4
			C41.5,84.5,38.6,60.7,40.5,31.3z"/>
		<path class="st37" d="M102.9,26.6c-9.9-2.5-19.6-4.2-29.3-5.2c0.4,3.6,0.6,7,0.9,10.5c10.8,1.2,21.7,3.3,32.8,6.3
			C106,33.6,104.4,29.7,102.9,26.6z"/>
		<path class="st33" d="M97.6,17.6c-0.9-0.9-1.8-1.7-2.8-2.6C88.1,9.2,80.1,4.9,71.2,2.7c1.1,6.4,1.9,12.7,2.5,18.7
			c9.7,1,19.4,2.8,29.3,5.2C100.1,20.8,97.6,17.6,97.6,17.6z"/>
		<path class="st36" d="M111,39.1c-1.5-4.2-3.4-8.2-5.8-12c-0.8-0.2-1.6-0.4-2.4-0.6c1.5,3.1,3.1,7,4.4,11.5
			C108.5,38.4,109.8,38.8,111,39.1z"/>
		<path class="st33" d="M74.5,31.8c1.9,29.3-1.2,53-4.8,69.6c8.1,0.6,16.3,1.8,24.6,3.4c18.6-26.9,17.6-50.8,13-66.8
			C96.2,35.1,85.3,33,74.5,31.8z"/>
		<path class="st38" d="M41.3,20.9c-0.4,3.5-0.6,7-0.9,10.4c11.2-0.9,22.5-0.7,34,0.5c-0.2-3.4-0.5-6.9-0.9-10.5
			C62.7,20.2,52,20,41.3,20.9z"/>
		<path class="st38" d="M45.1,101.2c0.5,2.3,1,4.5,1.5,6.5c7.1-0.3,14.3-0.2,21.6,0.3c0.5-2,1-4.2,1.5-6.5
			C61.4,100.8,53.2,100.7,45.1,101.2z"/>
		<path class="st17" d="M20.2,104.6c1.3,1.9,2.7,3.8,4.2,5.7c7.3-1.4,14.7-2.3,22.2-2.6c-0.5-2-1-4.2-1.5-6.5
			C36.7,101.7,28.4,102.8,20.2,104.6z"/>
	</g>
</g>
<g id="Layer_11">
	<g>
		<path class="st39" d="M255.3,74.2"/>
		<path class="st40" d="M233.3,135.8"/>
		<path class="st41" d="M255.3,135.5"/>
		<path class="st42" d="M228.3,102.5v20.1c0,0,0,13.4,15,13.4h4h4c15,0,15-13.4,15-13.4v-20.1v-25c0,0,0-12.9-15-12.9h-4h-4
			c-15,0-15,12.9-15,12.9V102.5z"/>
		<path class="st43" d="M247.3,74.2L247.3,74.2c-1,0-1.8,0.8-1.8,1.8v7c0,1,0.8,1.8,1.8,1.8l0,0c1,0,1.8-0.8,1.8-1.8v-7
			C249,75,248.2,74.2,247.3,74.2z"/>
	</g>
</g>
</svg>
