<?xml version="1.0" encoding="utf-8"?>
<!-- Generator: Adobe Illustrator 22.0.1, SVG Export Plug-In . SVG Version: 6.00 Build 0)  -->
<svg version="1.1" xmlns="http://www.w3.org/2000/svg" xmlns:xlink="http://www.w3.org/1999/xlink" x="0px" y="0px"
	 viewBox="0 0 500.1 703.8" style="enable-background:new 0 0 500.1 703.8;" xml:space="preserve">
<style type="text/css">
	.st0{display:none;}
	.st1{display:inline;fill:none;stroke:#000000;stroke-miterlimit:10;}
	.st2{fill:#1E1E1E;}
	.st3{fill:#262626;}
	.st4{fill:#3F3F3F;}
	.st5{fill:#565656;}
	.st6{fill:#636363;}
	.st7{fill:#3A3631;}
	.st8{fill:#332206;}
	.st9{fill:#D3830D;}
	.st10{fill:#C0DD57;}
	.st11{fill:#EAF74B;}
	.st12{fill:#FF4D4D;}
	.st13{fill:#F7AA4F;}
	.st14{fill:#4CCAD8;}
	.st15{fill:#ADDB49;}
	.st16{fill:#CDE576;}
	.st17{fill:#FC7C7C;}
	.st18{fill:#6AE0E5;}
	.st19{fill:#F7C186;}
	.st20{fill:#F7F79F;}
	.st21{fill:#4848A0;}
	.st22{fill:#4268BC;}
	.st23{fill:#2D2D77;}
	.st24{fill:#4887CC;}
	.st25{fill:#70B9EF;}
	.st26{fill:#7878BA;}
	.st27{fill:#6260A8;}
	.st28{fill:#ABDCF4;}
	.st29{fill:#72AFDD;}
	.st30{fill:#7499D1;}
	.st31{fill:#FC7777;}
	.st32{fill:#C12929;}
	.st33{fill:#F99898;}
	.st34{fill:#F9AD98;}
	.st35{fill:#C15656;}
	.st36{fill:#FFD0C5;}
	.st37{fill:#F9BDBD;}
	.st38{fill:#FF9999;}
	.st39{fill:none;stroke:#0C0B0B;stroke-width:0.2135;stroke-miterlimit:10;}
	.st40{fill:none;stroke:#0C0B0B;stroke-width:0.2371;stroke-miterlimit:10;}
	.st41{fill:none;stroke:#0C0B0B;stroke-width:0.2071;stroke-miterlimit:10;}
	.st42{fill:none;stroke:#0C0B0B;stroke-width:1.9398;stroke-miterlimit:10;}
	.st43{fill:#0C0B0B;}
</style>
<g id="Layer_1" class="st0">
	<line class="st1" x1="-777.9" y1="817.9" x2="126.1" y2="817.9"/>
</g>
<g id="Layer_3">
	<polygon class="st2" points="-610.6,812.6 -610.6,746.6 -587.9,746.6 -587.9,808 -575.2,808 -575.2,785.3 -556.6,785.3 
		-556.6,812.6 -539.2,812.6 -539.2,764.6 -523.2,764.6 -523.2,808 -513.9,808 -513.9,756.6 -497.9,756.6 -497.9,818 -485.9,818 
		-485.9,737.3 -460.6,737.3 -460.6,814 -455.9,814 -455.9,762.6 -435.9,762.6 -435.9,811.3 -435.9,797.3 -420.6,797.3 -420.6,810.6 
		-410.6,810.6 -410.6,777.6 -389.9,777.6 -389.9,808.6 -381.2,808.6 -381.2,737.3 -360.6,737.3 -360.6,803.3 -351.9,803.3 
		-351.9,747.3 -329.9,747.3 -329.9,814.6 -312.2,814.6 -312.2,781.3 -300.6,781.3 -300.6,809.3 -281.2,809.3 -281.2,773.3 
		-274.4,780.1 -265.1,770.8 -265.1,804.6 -247.2,804.6 -247.2,764 -231.2,764 -231.2,808 -217.9,808 -217.9,762 -200.6,762 
		-200.6,793.3 -189.2,793.3 -189.2,756 -177.9,756 -177.9,791.3 -149.9,791.3 -149.9,739.3 -121.9,739.3 -121.9,758.6 -111.2,758.6 
		-111.2,777.6 -98.7,790.1 -98.7,813.3 -89.6,804.2 -89.6,766.6 -74.6,766.6 -74.6,790.6 -52.6,790.6 -52.6,818 -610.6,818 	"/>
</g>
<g id="Layer_6">
	<polygon class="st3" points="-104.2,818 -104.2,767.3 -120.2,767.3 -120.2,818 -127.6,818 -127.6,762.6 -143.6,762.6 -143.6,818 
		-152.9,818 -152.9,803.3 -180.9,803.3 -180.9,818 -194.2,818 -194.2,803.3 -203.6,803.3 -203.6,818 -203.6,785.6 -212.2,785.6 
		-212.2,818 -219.6,818 -216.9,806.6 -249.6,806 -246.2,818 -252.9,818 -252.9,796.6 -252.9,776.6 -266.9,776.6 -266.9,818 
		-277.6,818 -277.6,770.6 -290.9,770.6 -290.9,818 -298.9,818 -298.9,790.3 -306.9,790.3 -306.9,818 -316.2,818 -316.2,793.3 
		-328.2,793.3 -328.2,818 -336.9,818 -336.9,762.6 -348.2,760 -348.2,818 -356.9,814.6 -370.2,752.6 -376.9,752.6 -376.9,818 
		-393.6,818 -393.6,795.3 -465.6,795.3 -465.6,818 -492.9,818 -492.9,777.3 -500.2,778 -500.2,818 -516.9,818 -516.9,777.3 
		-524.9,777.3 -524.9,818 -538.2,818 -538.2,774.6 -550.9,774.6 -550.9,818 -550.9,752.6 -565.6,752.6 -565.6,818 -592.9,818 
		-592.9,794 -605.6,793.3 -605.6,818 -613.6,818 -613.6,795.3 -626.9,795.3 -626.9,818 -640.2,818 -640.2,778.6 -648.9,778.6 
		-648.9,818 -662.2,818 -662.2,785.6 -670.2,785.6 -670.2,818 	"/>
</g>
<g id="Layer_2">
	<polygon class="st4" points="-618.6,818 -618.6,767.3 -602.6,767.3 -602.6,818 -595.2,818 -595.2,762.6 -579.2,762.6 -579.2,818 
		-569.9,818 -569.9,803.3 -541.9,803.3 -541.9,818 -528.6,818 -528.6,803.3 -519.2,803.3 -519.2,818 -519.2,785.6 -510.6,785.6 
		-510.6,818 -503.2,818 -505.9,806.6 -473.2,806 -476.6,818 -469.9,818 -469.9,796.6 -469.9,776.6 -455.9,776.6 -455.9,818 
		-445.2,818 -445.2,770.6 -431.9,770.6 -431.9,818 -423.9,818 -423.9,790.3 -415.9,790.3 -415.9,818 -406.6,818 -406.6,793.3 
		-394.6,793.3 -394.6,818 -385.9,818 -385.9,762.6 -374.6,760 -374.6,818 -365.9,814.6 -352.6,752.6 -345.9,752.6 -345.9,818 
		-329.2,818 -329.2,795.3 -257.2,795.3 -257.2,818 -229.9,818 -229.9,777.3 -222.6,778 -222.6,818 -205.9,818 -205.9,777.3 
		-197.9,777.3 -197.9,818 -184.6,818 -184.6,774.6 -171.9,774.6 -171.9,818 -171.9,752.6 -157.2,752.6 -157.2,818 -129.9,818 
		-129.9,794 -117.2,793.3 -117.2,818 -109.2,818 -109.2,795.3 -95.9,795.3 -95.9,818 -82.6,818 -82.6,778.6 -73.9,778.6 -73.9,818 
		-60.6,818 -60.6,785.6 -52.6,785.6 -52.6,818 	"/>
</g>
<g id="Layer_5">
	<polygon class="st5" points="-114.9,817.9 -114.9,800 -122.9,800 -122.9,817.9 -137.2,817.9 -137.2,800 -145.1,800 -145.1,816.5 
		-145.1,817.9 -150.1,817.9 -150.1,813.2 -153.7,813.2 -153.7,817.7 -156.1,817.7 -156.1,811.9 -159.2,811.9 -159.2,817.9 
		-167.1,817.9 -167.1,809.7 -172.6,809.7 -172.6,817.7 -178.1,817.7 -178.1,813.7 -187.6,813.7 -187.6,817.9 -194.1,817.9 
		-194.1,806.7 -196.7,806.7 -196.7,817.7 -204.6,817.7 -204.6,804.9 -208.2,804.9 -208.2,817.7 -216.7,817.7 -216.7,810.4 
		-219.2,810.4 -219.2,814.7 -222.4,814.7 -222.4,817.7 -246.1,817.7 -246.1,813 -250.4,813 -250.4,808.2 -254.7,808.2 -254.7,812.5 
		-259.2,812.5 -259.2,815.9 -263.9,815.9 -263.9,817.9 -270.1,817.9 -270.1,811.5 -272.2,811.5 -272.2,817.9 -277.4,817.9 
		-277.4,811.2 -279.9,811.2 -279.9,817.9 -287.6,817.9 -287.6,811.4 -290.7,811.4 -290.7,817.9 -360.1,817.9 -360.1,812.5 
		-363.1,812.5 -363.1,817.5 -367.2,817.5 -367.2,813.2 -370.1,813.2 -370.1,817.5 -374.4,817.5 -374.4,810.2 -377.6,810.2 
		-377.6,817.9 -392.1,817.9 -392.1,810.4 -396.1,810.4 -396.1,817.7 -450.7,817.7 -450.7,805.5 -453.7,805.5 -453.7,817.7 
		-468.1,817.7 -468.1,810.5 -473.6,810.5 -473.6,817.9 -497.6,817.9 -497.6,804.5 -505.9,804.5 -505.9,817.9 -527.2,817.9 
		-527.2,813.4 -529.7,813.4 -529.7,817.7 -534.9,817.7 -534.9,811.4 -537.2,811.4 -537.2,816.9 -542.6,816.9 -542.6,809.9 
		-545.6,809.9 -545.6,817.9 -554.9,817.9 -554.9,812.2 -559.1,812.2 -559.1,817.9 -576.7,817.9 -576.7,807.9 -581.4,807.9 
		-581.4,817.9 -585.9,817.9 -585.9,804.4 -587.6,806.1 -587.6,817.9 -591.6,817.9 -591.6,808.9 -595.6,808.9 -595.6,805.5 
		-599.4,805.5 -599.4,817.7 -605.4,817.7 -605.4,810.5 -608.7,810.5 -608.7,817.9 -616.9,817.9 -616.9,808.9 -619.4,806.4 
		-622.9,806.4 -622.9,817.9 -629.1,817.9 -629.1,810.2 -632.2,810.2 -632.2,817.7 -638.2,817.7 -638.2,808.9 -641.6,808.9 
		-641.6,817.9 -647.9,817.9 -647.9,812.4 -651.6,812.4 -651.6,817.9 -654.4,817.9 -654.4,813 -659.7,813 -659.7,817.7 	"/>
</g>
<g id="Layer_4">
	<polygon class="st6" points="-607.7,818 -607.7,800.1 -599.7,800.1 -599.7,818 -585.4,818 -585.4,800.1 -577.6,800.1 -577.6,816.6 
		-577.6,818 -572.6,818 -572.6,813.3 -568.9,813.3 -568.9,817.9 -566.6,817.9 -566.6,812 -563.4,812 -563.4,818 -555.6,818 
		-555.6,809.8 -550.1,809.8 -550.1,817.9 -544.6,817.9 -544.6,813.8 -535.1,813.8 -535.1,818 -528.6,818 -528.6,806.8 -525.9,806.8 
		-525.9,817.9 -518.1,817.9 -518.1,805 -514.4,805 -514.4,817.9 -505.9,817.9 -505.9,810.5 -503.4,810.5 -503.4,814.8 -500.2,814.8 
		-500.2,817.9 -476.6,817.9 -476.6,813.1 -472.2,813.1 -472.2,808.3 -467.9,808.3 -467.9,812.6 -463.4,812.6 -463.4,816 -458.7,816 
		-458.7,818 -452.6,818 -452.6,811.6 -450.4,811.6 -450.4,818 -445.2,818 -445.2,811.3 -442.7,811.3 -442.7,818 -435.1,818 
		-435.1,811.5 -431.9,811.5 -431.9,818 -362.6,818 -362.6,812.6 -359.6,812.6 -359.6,817.6 -355.4,817.6 -355.4,813.3 -352.6,813.3 
		-352.6,817.6 -348.2,817.6 -348.2,810.3 -345.1,810.3 -345.1,818 -330.6,818 -330.6,810.5 -326.6,810.5 -326.6,817.9 -271.9,817.9 
		-271.9,805.6 -268.9,805.6 -268.9,817.9 -254.6,817.9 -254.6,810.6 -249.1,810.6 -249.1,818 -225.1,818 -225.1,804.6 -216.7,804.6 
		-216.7,818 -195.4,818 -195.4,813.5 -192.9,813.5 -192.9,817.9 -187.7,817.9 -187.7,811.5 -185.4,811.5 -185.4,817 -180.1,817 
		-180.1,810 -177.1,810 -177.1,818 -167.7,818 -167.7,812.3 -163.6,812.3 -163.6,818 -145.9,818 -145.9,808 -141.2,808 -141.2,818 
		-136.7,818 -136.7,804.5 -135,806.2 -135,818 -131.1,818 -131.1,809 -127.1,809 -127.1,805.6 -123.2,805.6 -123.2,817.9 
		-117.2,817.9 -117.2,810.6 -113.9,810.6 -113.9,818 -105.7,818 -105.7,809 -103.2,806.5 -99.7,806.5 -99.7,818 -93.6,818 
		-93.6,810.3 -90.4,810.3 -90.4,817.8 -84.4,817.8 -84.4,809 -81.1,809 -81.1,818 -74.7,818 -74.7,812.5 -71.1,812.5 -71.1,818 
		-68.2,818 -68.2,813.1 -62.9,813.1 -62.9,817.8 	"/>
</g>
<g id="Layer_8">
	<g id="Layer_9">
	</g>
	<g id="Layer_10">
	</g>
	<g>
		<rect x="-482.6" y="424.4" class="st7" width="95.4" height="17.6"/>
		<path class="st8" d="M-434.7,520h-38.1c0,17.9,7.4,44.7,7.4,44.7h30.5h0h30.5c0,0,7.4-26.8,7.4-44.7H-435"/>
		<polygon class="st9" points="-468.6,519.9 -484.4,431.8 -481.2,429.2 -464.8,519.9 		"/>
		<polygon class="st9" points="-400.3,520 -384.5,431.9 -387.8,429.3 -404,520 		"/>
		<polygon class="st9" points="-416.2,519.9 -416.2,416.8 -413.4,417.4 -413.4,519.9 		"/>
		<polygon class="st9" points="-453.4,520 -453.4,417 -456.2,417.5 -456.2,520 		"/>
		<path class="st10" d="M-575.5,339.3c22.5,29.1,50.7,59,85.4,89.3c1.9,1.1,3.8,2.2,5.7,3.2c1-0.9,2.1-1.8,3.3-2.6
			c6.8-5.1,15.5-9,25.3-11.4c1.3-0.3,2.6-0.6,3.9-0.8c0,0.5-14.5-30.9-28.9-88.8C-512.8,329.7-544.3,333.4-575.5,339.3z"/>
		<path class="st11" d="M-480.9,328.2c14.4,57.9,28.9,89.3,28.9,88.8c11.3-2.2,23-2.2,34.3-0.1h0c0,0.5,14.2-30.4,28.5-87.5
			C-420,327.1-450.6,326.7-480.9,328.2z"/>
		<path class="st12" d="M-575.5,339.3c-2.6,0.5-5.1,1-7.7,1.5c29,37.8,61.7,69.3,93.1,87.8C-524.8,398.3-553,368.4-575.5,339.3z"/>
		<path class="st13" d="M-296.3,341c-31.2-5.6-62.2-9.5-92.8-11.7c-14.3,57.1-28.6,88-28.5,87.5c11.7,2.2,22.1,6.5,29.9,12.4
			c1.1,0.8,2.2,1.7,3.2,2.6C-348.6,401-319.6,370.7-296.3,341z"/>
		<path class="st12" d="M-644.9,29c-5.5,1.6-11,3.3-16.4,5.1c-1.6,4.4-3.1,8.8-4.4,13.4c-4.5,15.5-7.5,31.6-8.9,48.1
			c-0.5,6.5-0.8,13-0.8,19.6c0,15.4,1.9,31.7,5.5,48.4c5.4,25,14.4,51.1,26.2,76.9c11.9,26.2,26.6,52,43,76.1c2.5-0.6,5-1.1,7.5-1.7
			C-672.1,198.9-665.5,96.3-644.9,29z"/>
		<path class="st14" d="M-384.5,431.8c32.6-17.7,66.9-49.9,97.3-89.1c-3-0.6-6-1.1-9-1.6C-319.6,370.7-348.6,401-384.5,431.8z"/>
		<path class="st14" d="M-278.1,316.5c2.9,0.6,5.8,1.2,8.7,1.8c16.8-24.5,31.9-51,44.1-77.7c11.7-25.8,20.8-51.8,26.2-76.9
			c3.6-16.7,5.5-33,5.5-48.4c0-6.6-0.3-13.2-0.8-19.6c-1.3-16.6-4.4-32.7-8.9-48.1c-1.1-3.7-2.3-7.3-3.6-10.8
			c-5.3-1.5-10.7-3-16-4.4C-203.2,100.1-198.9,201.9-278.1,316.5z"/>
		<path class="st11" d="M-366.1-39c-2.6-25.7-6-52.2-10.5-79.6c-18.6-4.6-38-7-57.9-7c-20.2,0-39.9,2.5-58.7,7.2
			c-4.3,26.6-7.7,52.3-10.2,77.2C-458.2-44.7-412.4-43.8-366.1-39z"/>
		<path class="st14" d="M-231.5-14.2c-9.4-14.8-20.3-28.5-32.7-40.8c0,0,10.8,13.8,22.6,38.4C-238.2-15.9-234.8-15.1-231.5-14.2z"/>
		<path class="st15" d="M-504.1-115.4c-33,10-63.1,26.8-88.4,48.9c-3.5,3-6.9,6.3-10.2,9.5c-1.8,2.5-12.4,17.1-22.1,36.3
			c40-10.6,80.5-17.3,121.5-20.5c2.5-24.9,5.9-50.7,10.2-77.2C-496.9-117.5-500.5-116.5-504.1-115.4z"/>
		<path class="st12" d="M-604.8-55.1c-11.3,11.3-21.4,23.7-30.3,37.1c3.4-1,6.8-1.8,10.2-2.7c9.8-19.2,20.3-33.9,22.1-36.3
			C-603.4-56.3-604.1-55.7-604.8-55.1z"/>
		<path class="st16" d="M-503.4-41.2c-41,3.2-81.5,9.9-121.5,20.5c-6.7,13.1-13.9,29.9-20,49.7c45.3-13.5,91.2-22,137.8-25.8
			C-506.2-11.3-504.9-26.1-503.4-41.2z"/>
		<path class="st17" d="M-624.9-20.7c-3.4,0.9-6.8,1.7-10.2,2.7c-10.7,16.1-19.6,33.6-26.2,52.1c5.5-1.8,10.9-3.5,16.4-5.1
			C-638.8,9.2-631.5-7.5-624.9-20.7z"/>
		<path class="st18" d="M-296.3,341c3,0.5,6,1.1,9,1.6c6.1-7.9,12.1-16.1,17.8-24.5c-2.9-0.6-5.8-1.2-8.7-1.8
			C-283.7,324.6-289.8,332.8-296.3,341z"/>
		<path class="st17" d="M-593.2,314.9c-2.5,0.5-5,1.1-7.5,1.7c5.6,8.3,11.5,16.4,17.5,24.2c2.6-0.5,5.1-1,7.7-1.5
			C-581.8,331.1-587.7,323-593.2,314.9z"/>
		<path class="st19" d="M-389.1,329.3c30.6,2.2,61.6,6.1,92.8,11.7c6.5-8.2,12.6-16.4,18.2-24.6c-35.2-7-70.1-11.9-104.6-14.6
			C-384.8,311.6-387,320.8-389.1,329.3z"/>
		<path class="st11" d="M-362.4,5.5c-48.8-5.4-97.1-6.3-144.7-2.3c-8.2,125,4.6,226.3,19.8,297.3c34.4-2,69.3-1.5,104.6,1.3
			C-367.4,231.1-354.5,130.2-362.4,5.5z"/>
		<path class="st10" d="M-507.1,3.2c-46.6,3.9-92.5,12.3-137.8,25.8c-20.6,67.3-27.2,169.9,51.7,285.9
			c34.8-7.6,70.2-12.3,105.9-14.4C-502.5,229.5-515.3,128.2-507.1,3.2z"/>
		<path class="st19" d="M-241.5-16.7C-283.5-27.1-325-34.7-366.1-39c1.5,15.2,2.7,30,3.6,44.5c46,5,92.5,14,139.6,26.7
			C-228.4,13-235.1-3.4-241.5-16.7z"/>
		<path class="st13" d="M-264.2-55.1c-3.8-3.8-7.7-7.4-11.7-11c-28.4-24.9-62.8-43.2-100.7-52.6c4.5,27.4,7.9,54,10.5,79.6
			c41.1,4.3,82.6,11.8,124.5,22.3C-253.4-41.3-264.2-55.1-264.2-55.1z"/>
		<path class="st18" d="M-206.8,36.6c-6.2-18-14.5-35.1-24.7-50.9c-3.4-0.9-6.7-1.6-10.1-2.5c6.4,13.3,13.2,29.7,18.7,48.9
			C-217.5,33.6-212.2,35.1-206.8,36.6z"/>
		<path class="st13" d="M-362.4,5.5c7.9,124.7-5,225.6-20.3,296.3c34.5,2.7,69.4,7.7,104.6,14.6c79.2-114.5,74.9-216.3,55.3-284.3
			C-269.9,19.6-316.4,10.6-362.4,5.5z"/>
		<path class="st20" d="M-503.4-41.2c-1.5,15.1-2.8,29.9-3.7,44.4c47.6-3.9,95.8-3,144.7,2.3c-0.9-14.5-2.1-29.4-3.6-44.5
			C-412.4-43.8-458.2-44.7-503.4-41.2z"/>
		<path class="st20" d="M-487.3,300.5c2.1,9.8,4.2,19,6.4,27.6c30.3-1.5,60.9-1,91.8,1.2c2.2-8.6,4.3-17.8,6.4-27.5
			C-418,299-452.8,298.6-487.3,300.5z"/>
		<path class="st16" d="M-593.2,314.9c5.5,8.1,11.4,16.2,17.7,24.4c31.2-5.9,62.7-9.6,94.6-11.1c-2.1-8.6-4.3-17.8-6.4-27.6
			C-523.1,302.6-558.4,307.3-593.2,314.9z"/>
	</g>
</g>
<g id="Layer_12">
	<g>
		<rect x="201.4" y="559" class="st7" width="96.4" height="17.7"/>
		<path class="st8" d="M249.8,655.6h-38.5c0,18.1,7.5,45.2,7.5,45.2h30.9h0h30.9c0,0,7.5-27.1,7.5-45.2h-38.5"/>
		<polygon class="st9" points="215.6,655.5 199.6,566.4 202.9,563.8 219.3,655.5 		"/>
		<polygon class="st9" points="284.6,655.6 300.6,566.6 297.3,563.9 280.8,655.6 		"/>
		<polygon class="st9" points="268.5,655.5 268.5,551.3 271.3,551.9 271.3,655.5 		"/>
		<polygon class="st9" points="230.9,655.6 230.9,551.5 228.1,552 228.1,655.6 		"/>
		<path class="st21" d="M107.5,473c22.8,29.5,51.3,59.7,86.3,90.2c1.9,1.1,3.8,2.2,5.7,3.2c1-0.9,2.1-1.8,3.3-2.7
			c6.9-5.1,15.6-9.1,25.6-11.5c1.3-0.3,2.6-0.6,3.9-0.8c0,0.5-14.6-31.3-29.2-89.8C170.9,463.3,139,467,107.5,473z"/>
		<path class="st22" d="M203.1,461.7c14.6,58.5,29.2,90.2,29.2,89.8c11.4-2.2,23.3-2.2,34.7-0.1h0c0,0.5,14.4-30.7,28.9-88.4
			C264.7,460.7,233.7,460.2,203.1,461.7z"/>
		<path class="st23" d="M107.5,473c-2.6,0.5-5.2,1-7.7,1.5c29.3,38.2,62.3,70,94.1,88.7C158.8,532.6,130.3,502.4,107.5,473z"/>
		<path class="st24" d="M389.7,474.7c-31.6-5.6-62.8-9.6-93.8-11.8c-14.5,57.7-28.9,88.9-28.9,88.4c11.9,2.2,22.3,6.6,30.2,12.5
			c1.1,0.8,2.2,1.7,3.2,2.6C336.8,535.4,366.1,504.7,389.7,474.7z"/>
		<path class="st23" d="M37.4,159.4c-5.5,1.7-11.1,3.3-16.6,5.1c-1.6,4.4-3.1,8.9-4.4,13.5c-4.6,15.6-7.6,31.9-9,48.7
			c-0.5,6.5-0.8,13.2-0.8,19.8c0,15.6,2,32,5.6,48.9c5.4,25.3,14.6,51.7,26.4,77.7c12.1,26.5,26.9,52.6,43.4,76.9
			c2.5-0.6,5-1.1,7.5-1.7C9.9,331.1,16.6,227.4,37.4,159.4z"/>
		<path class="st25" d="M300.5,566.4c33-17.9,67.6-50.4,98.3-90.1c-3-0.6-6.1-1.1-9.1-1.7C366.1,504.7,336.8,535.4,300.5,566.4z"/>
		<path class="st25" d="M408.1,449.9c2.9,0.6,5.8,1.2,8.8,1.8c17-24.8,32.3-51.5,44.6-78.6c11.9-26,21-52.4,26.4-77.7
			c3.6-16.9,5.6-33.3,5.6-48.9c0-6.7-0.3-13.3-0.8-19.8c-1.4-16.8-4.4-33-9-48.7c-1.1-3.7-2.3-7.3-3.6-11c-5.4-1.5-10.8-3-16.2-4.5
			C483.8,231.2,488.2,334.1,408.1,449.9z"/>
		<path class="st22" d="M319.2,90.6c-2.6-25.9-6.1-52.8-10.6-80.5c-18.8-4.6-38.4-7.1-58.6-7.1c-20.5,0-40.3,2.6-59.3,7.3
			c-4.4,26.8-7.8,52.9-10.3,78.1C226.1,84.9,272.3,85.7,319.2,90.6z"/>
		<path class="st25" d="M455.2,115.6c-9.5-14.9-20.6-28.8-33-41.3c0,0,10.9,13.9,22.9,38.8C448.4,114,451.8,114.8,455.2,115.6z"/>
		<path class="st21" d="M179.6,13.4c-33.4,10.1-63.7,27.1-89.4,49.4c-3.5,3.1-6.9,6.3-10.3,9.6c-1.8,2.5-12.5,17.3-22.4,36.7
			C98,98.5,139,91.6,180.4,88.4c2.6-25.2,6-51.2,10.3-78.1C187,11.3,183.3,12.3,179.6,13.4z"/>
		<path class="st23" d="M77.9,74.4c-11.4,11.4-21.6,24-30.6,37.5c3.4-1,6.9-1.8,10.3-2.7C67.5,89.7,78.2,74.9,80,72.4
			C79.3,73.1,78.6,73.7,77.9,74.4z"/>
		<path class="st26" d="M180.4,88.4C139,91.6,98,98.5,57.6,109.1c-6.7,13.3-14.1,30.2-20.2,50.2c45.7-13.6,92.2-22.2,139.2-26.1
			C177.6,118.6,178.8,103.7,180.4,88.4z"/>
		<path class="st27" d="M57.6,109.1c-3.4,0.9-6.9,1.7-10.3,2.7c-10.8,16.3-19.8,33.9-26.5,52.7c5.5-1.8,11.1-3.5,16.6-5.1
			C43.5,139.3,50.9,122.4,57.6,109.1z"/>
		<path class="st28" d="M389.7,474.7c3,0.5,6.1,1.1,9.1,1.7c6.2-8,12.2-16.2,18-24.7c-2.9-0.6-5.9-1.2-8.8-1.8
			C402.4,458.1,396.3,466.4,389.7,474.7z"/>
		<path class="st27" d="M89.6,448.3c-2.5,0.5-5,1.1-7.5,1.7c5.7,8.4,11.6,16.6,17.7,24.5c2.6-0.5,5.2-1,7.7-1.5
			C101.1,464.7,95.1,456.5,89.6,448.3z"/>
		<path class="st29" d="M295.9,462.9c31,2.2,62.2,6.2,93.8,11.8c6.6-8.3,12.7-16.6,18.4-24.8c-35.6-7.1-70.8-12-105.7-14.8
			C300.2,444.9,298.1,454.2,295.9,462.9z"/>
		<path class="st22" d="M322.9,135.6c-49.4-5.4-98.1-6.3-146.2-2.3c-8.2,126.3,4.6,228.7,20,300.5c34.8-2,70.1-1.5,105.7,1.3
			C317.8,363.6,330.8,261.6,322.9,135.6z"/>
		<path class="st21" d="M176.6,133.3c-47.1,3.9-93.5,12.5-139.2,26.1c-20.8,68-27.5,171.7,52.2,289c35.2-7.7,70.9-12.5,107.1-14.5
			C181.2,362,168.4,259.6,176.6,133.3z"/>
		<path class="st29" d="M445,113.1c-42.4-10.5-84.3-18.1-125.9-22.5c1.5,15.3,2.7,30.3,3.7,45c46.5,5.1,93.5,14.2,141.1,26.9
			C458.3,143.2,451.5,126.6,445,113.1z"/>
		<path class="st24" d="M422.2,74.4c-3.8-3.8-7.8-7.5-11.8-11.1c-28.7-25.2-63.5-43.7-101.7-53.1c4.5,27.7,8,54.5,10.6,80.5
			c41.5,4.4,83.5,12,125.9,22.5C433.1,88.3,422.2,74.4,422.2,74.4z"/>
		<path class="st28" d="M480.1,167c-6.3-18.2-14.7-35.4-24.9-51.4c-3.4-0.9-6.8-1.7-10.2-2.5c6.5,13.4,13.3,30.1,18.9,49.4
			C469.3,164,474.7,165.5,480.1,167z"/>
		<path class="st24" d="M322.9,135.6c8,126-5,228-20.5,299.5c34.9,2.8,70.1,7.7,105.7,14.8c80.1-115.8,75.7-218.6,55.8-287.3
			C416.4,149.8,369.3,140.7,322.9,135.6z"/>
		<path class="st30" d="M180.4,88.4c-1.6,15.3-2.8,30.2-3.7,44.8c48.1-4,96.8-3.1,146.2,2.3c-0.9-14.7-2.1-29.7-3.7-45
			C272.3,85.7,226.1,84.9,180.4,88.4z"/>
		<path class="st30" d="M196.7,433.8c2.1,9.9,4.3,19.2,6.5,27.9c30.6-1.5,61.5-1,92.8,1.2c2.2-8.7,4.4-17.9,6.5-27.8
			C266.7,432.3,231.5,431.8,196.7,433.8z"/>
		<path class="st26" d="M89.6,448.3c5.5,8.1,11.5,16.4,17.9,24.6c31.5-6,63.4-9.7,95.6-11.3c-2.2-8.7-4.3-18-6.5-27.9
			C160.5,435.9,124.8,440.6,89.6,448.3z"/>
	</g>
</g>
<g id="Layer_13">
	<g>
		<rect x="-637.3" y="667.8" class="st7" width="22.4" height="4.1"/>
		<path class="st8" d="M-626,690.3h-9c0,4.2,1.7,10.5,1.7,10.5h7.2h0h7.2c0,0,1.7-6.3,1.7-10.5H-626"/>
		<polygon class="st9" points="-634,690.2 -637.7,669.5 -636.9,668.9 -633.1,690.2 		"/>
		<polygon class="st9" points="-617.9,690.3 -614.2,669.6 -615,668.9 -618.8,690.3 		"/>
		<polygon class="st9" points="-621.7,690.2 -621.7,666 -621,666.1 -621,690.2 		"/>
		<polygon class="st9" points="-630.4,690.3 -630.4,666 -631.1,666.2 -631.1,690.3 		"/>
		<path class="st12" d="M-659.1,647.8c5.3,6.9,11.9,13.9,20.1,21c0.4,0.3,0.9,0.5,1.3,0.8c0.2-0.2,0.5-0.4,0.8-0.6
			c1.6-1.2,3.6-2.1,5.9-2.7c0.3-0.1,0.6-0.1,0.9-0.2c0,0.1-3.4-7.3-6.8-20.9C-644.4,645.5-651.8,646.4-659.1,647.8z"/>
		<path class="st31" d="M-636.9,645.2c3.4,13.6,6.8,21,6.8,20.9c2.7-0.5,5.4-0.5,8.1,0h0c0,0.1,3.3-7.1,6.7-20.6
			C-622.6,644.9-629.8,644.8-636.9,645.2z"/>
		<path class="st32" d="M-659.1,647.8c-0.6,0.1-1.2,0.2-1.8,0.4c6.8,8.9,14.5,16.3,21.9,20.6C-647.2,661.7-653.8,654.6-659.1,647.8z
			"/>
		<path class="st33" d="M-593.5,648.2c-7.3-1.3-14.6-2.2-21.8-2.8c-3.4,13.4-6.7,20.7-6.7,20.6c2.8,0.5,5.2,1.5,7,2.9
			c0.3,0.2,0.5,0.4,0.7,0.6C-605.8,662.3-599,655.2-593.5,648.2z"/>
		<path class="st32" d="M-675.4,574.9c-1.3,0.4-2.6,0.8-3.9,1.2c-0.4,1-0.7,2.1-1,3.1c-1.1,3.6-1.8,7.4-2.1,11.3
			c-0.1,1.5-0.2,3.1-0.2,4.6c0,3.6,0.5,7.4,1.3,11.4c1.3,5.9,3.4,12,6.1,18.1c2.8,6.2,6.3,12.2,10.1,17.9c0.6-0.1,1.2-0.3,1.8-0.4
			C-681.8,614.8-680.2,590.7-675.4,574.9z"/>
		<path class="st34" d="M-614.2,669.5c7.7-4.2,15.7-11.7,22.9-20.9c-0.7-0.1-1.4-0.3-2.1-0.4C-599,655.2-605.8,662.3-614.2,669.5z"
			/>
		<path class="st34" d="M-589.2,642.4c0.7,0.1,1.4,0.3,2,0.4c4-5.8,7.5-12,10.4-18.3c2.8-6.1,4.9-12.2,6.1-18.1
			c0.8-3.9,1.3-7.8,1.3-11.4c0-1.6-0.1-3.1-0.2-4.6c-0.3-3.9-1-7.7-2.1-11.3c-0.3-0.9-0.5-1.7-0.8-2.5c-1.3-0.4-2.5-0.7-3.8-1
			C-571.6,591.6-570.6,615.5-589.2,642.4z"/>
		<path class="st31" d="M-609.9,558.9c-0.6-6-1.4-12.3-2.5-18.7c-4.4-1.1-8.9-1.6-13.6-1.6c-4.8,0-9.4,0.6-13.8,1.7
			c-1,6.2-1.8,12.3-2.4,18.2C-631.5,557.5-620.8,557.7-609.9,558.9z"/>
		<path class="st34" d="M-578.3,564.7c-2.2-3.5-4.8-6.7-7.7-9.6c0,0,2.5,3.2,5.3,9C-579.8,564.3-579,564.5-578.3,564.7z"/>
		<path class="st12" d="M-642.3,540.9c-7.8,2.3-14.8,6.3-20.8,11.5c-0.8,0.7-1.6,1.5-2.4,2.2c-0.4,0.6-2.9,4-5.2,8.5
			c9.4-2.5,18.9-4.1,28.5-4.8c0.6-5.9,1.4-11.9,2.4-18.2C-640.6,540.4-641.5,540.7-642.3,540.9z"/>
		<path class="st32" d="M-666,555.1c-2.7,2.7-5,5.6-7.1,8.7c0.8-0.2,1.6-0.4,2.4-0.6c2.3-4.5,4.8-8,5.2-8.5
			C-665.7,554.8-665.8,554.9-666,555.1z"/>
		<path class="st17" d="M-642.2,558.4c-9.6,0.7-19.2,2.3-28.5,4.8c-1.6,3.1-3.3,7-4.7,11.7c10.6-3.2,21.4-5.2,32.4-6.1
			C-642.8,565.4-642.5,561.9-642.2,558.4z"/>
		<path class="st35" d="M-670.7,563.2c-0.8,0.2-1.6,0.4-2.4,0.6c-2.5,3.8-4.6,7.9-6.2,12.2c1.3-0.4,2.6-0.8,3.9-1.2
			C-674,570.2-672.3,566.3-670.7,563.2z"/>
		<path class="st36" d="M-593.5,648.2c0.7,0.1,1.4,0.3,2.1,0.4c1.4-1.9,2.8-3.8,4.2-5.7c-0.7-0.1-1.4-0.3-2-0.4
			C-590.5,644.3-592,646.3-593.5,648.2z"/>
		<path class="st35" d="M-663.3,642.1c-0.6,0.1-1.2,0.3-1.8,0.4c1.3,2,2.7,3.9,4.1,5.7c0.6-0.1,1.2-0.2,1.8-0.4
			C-660.6,645.9-662,644-663.3,642.1z"/>
		<path class="st37" d="M-615.3,645.4c7.2,0.5,14.5,1.4,21.8,2.8c1.5-1.9,3-3.9,4.3-5.8c-8.3-1.6-16.5-2.8-24.6-3.4
			C-614.3,641.3-614.8,643.4-615.3,645.4z"/>
		<path class="st31" d="M-609,569.3c-11.5-1.3-22.8-1.5-34-0.5c-1.9,29.4,1.1,53.2,4.7,69.9c8.1-0.5,16.3-0.4,24.6,0.3
			C-610.2,622.4-607.2,598.6-609,569.3z"/>
		<path class="st12" d="M-643,568.8c-10.9,0.9-21.7,2.9-32.4,6.1c-4.8,15.8-6.4,39.9,12.1,67.2c8.2-1.8,16.5-2.9,24.9-3.4
			C-642,622-644.9,598.2-643,568.8z"/>
		<path class="st37" d="M-580.6,564.1c-9.9-2.5-19.6-4.2-29.3-5.2c0.4,3.6,0.6,7,0.9,10.5c10.8,1.2,21.7,3.3,32.8,6.3
			C-577.5,571.1-579.1,567.2-580.6,564.1z"/>
		<path class="st33" d="M-585.9,555.1c-0.9-0.9-1.8-1.7-2.8-2.6c-6.7-5.9-14.8-10.2-23.7-12.4c1.1,6.4,1.9,12.7,2.5,18.7
			c9.7,1,19.4,2.8,29.3,5.2C-583.4,558.3-585.9,555.1-585.9,555.1z"/>
		<path class="st36" d="M-572.5,576.6c-1.5-4.2-3.4-8.2-5.8-12c-0.8-0.2-1.6-0.4-2.4-0.6c1.5,3.1,3.1,7,4.4,11.5
			C-575,575.9-573.7,576.3-572.5,576.6z"/>
		<path class="st33" d="M-609,569.3c1.9,29.3-1.2,53-4.8,69.6c8.1,0.6,16.3,1.8,24.6,3.4c18.6-26.9,17.6-50.8,13-66.8
			C-587.3,572.6-598.2,570.5-609,569.3z"/>
		<path class="st38" d="M-642.2,558.4c-0.4,3.5-0.6,7-0.9,10.4c11.2-0.9,22.5-0.7,34,0.5c-0.2-3.4-0.5-6.9-0.9-10.5
			C-620.8,557.7-631.5,557.5-642.2,558.4z"/>
		<path class="st38" d="M-638.4,638.7c0.5,2.3,1,4.5,1.5,6.5c7.1-0.3,14.3-0.2,21.6,0.3c0.5-2,1-4.2,1.5-6.5
			C-622.1,638.3-630.3,638.2-638.4,638.7z"/>
		<path class="st17" d="M-663.3,642.1c1.3,1.9,2.7,3.8,4.2,5.7c7.3-1.4,14.7-2.3,22.2-2.6c-0.5-2-1-4.2-1.5-6.5
			C-646.8,639.2-655.1,640.3-663.3,642.1z"/>
	</g>
</g>
<g id="Layer_11">
	<g>
		<path class="st39" d="M-428.3,611.7"/>
		<path class="st40" d="M-450.2,673.3"/>
		<path class="st41" d="M-428.3,673"/>
		<path class="st42" d="M-455.2,640v20.1c0,0,0,13.4,15,13.4h4h4c15,0,15-13.4,15-13.4V640v-25c0,0,0-12.9-15-12.9h-4h-4
			c-15,0-15,12.9-15,12.9V640z"/>
		<path class="st43" d="M-436.2,611.7L-436.2,611.7c-1,0-1.8,0.8-1.8,1.8v7c0,1,0.8,1.8,1.8,1.8l0,0c1,0,1.8-0.8,1.8-1.8v-7
			C-434.5,612.5-435.3,611.7-436.2,611.7z"/>
	</g>
</g>
</svg>
