<?xml version="1.0" encoding="utf-8"?>
<!-- Generator: Adobe Illustrator 22.0.1, SVG Export Plug-In . SVG Version: 6.00 Build 0)  -->
<svg version="1.1" xmlns="http://www.w3.org/2000/svg" xmlns:xlink="http://www.w3.org/1999/xlink" x="0px" y="0px"
	 viewBox="0 0 114.1 162.8" style="enable-background:new 0 0 114.1 162.8;" xml:space="preserve">
<style type="text/css">
	.st0{display:none;}
	.st1{display:inline;fill:none;stroke:#000000;stroke-miterlimit:10;}
	.st2{fill:#1E1E1E;}
	.st3{fill:#262626;}
	.st4{fill:#3F3F3F;}
	.st5{fill:#565656;}
	.st6{fill:#636363;}
	.st7{fill:#3A3631;}
	.st8{fill:#332206;}
	.st9{fill:#D3830D;}
	.st10{fill:#C0DD57;}
	.st11{fill:#EAF74B;}
	.st12{fill:#FF4D4D;}
	.st13{fill:#F7AA4F;}
	.st14{fill:#4CCAD8;}
	.st15{fill:#ADDB49;}
	.st16{fill:#CDE576;}
	.st17{fill:#FC7C7C;}
	.st18{fill:#6AE0E5;}
	.st19{fill:#F7C186;}
	.st20{fill:#F7F79F;}
	.st21{fill:#4848A0;}
	.st22{fill:#4268BC;}
	.st23{fill:#2D2D77;}
	.st24{fill:#4887CC;}
	.st25{fill:#70B9EF;}
	.st26{fill:#7878BA;}
	.st27{fill:#6260A8;}
	.st28{fill:#ABDCF4;}
	.st29{fill:#72AFDD;}
	.st30{fill:#7499D1;}
	.st31{fill:#FC7777;}
	.st32{fill:#C12929;}
	.st33{fill:#F99898;}
	.st34{fill:#F9AD98;}
	.st35{fill:#C15656;}
	.st36{fill:#FFD0C5;}
	.st37{fill:#F9BDBD;}
	.st38{fill:#FF9999;}
	.st39{fill:none;stroke:#0C0B0B;stroke-width:0.2135;stroke-miterlimit:10;}
	.st40{fill:none;stroke:#0C0B0B;stroke-width:0.2371;stroke-miterlimit:10;}
	.st41{fill:none;stroke:#0C0B0B;stroke-width:0.2071;stroke-miterlimit:10;}
	.st42{fill:none;stroke:#0C0B0B;stroke-width:1.9398;stroke-miterlimit:10;}
	.st43{fill:#0C0B0B;}
</style>
<g id="Layer_1" class="st0">
	<line class="st1" x1="-732.9" y1="276.9" x2="171.1" y2="276.9"/>
</g>
<g id="Layer_3">
	<polygon class="st2" points="-565.6,271.6 -565.6,205.6 -542.9,205.6 -542.9,267 -530.2,267 -530.2,244.3 -511.6,244.3 
		-511.6,271.6 -494.2,271.6 -494.2,223.6 -478.2,223.6 -478.2,267 -468.9,267 -468.9,215.6 -452.9,215.6 -452.9,277 -440.9,277 
		-440.9,196.3 -415.6,196.3 -415.6,273 -410.9,273 -410.9,221.6 -390.9,221.6 -390.9,270.3 -390.9,256.3 -375.6,256.3 -375.6,269.6 
		-365.6,269.6 -365.6,236.6 -344.9,236.6 -344.9,267.6 -336.2,267.6 -336.2,196.3 -315.6,196.3 -315.6,262.3 -306.9,262.3 
		-306.9,206.3 -284.9,206.3 -284.9,273.6 -267.2,273.6 -267.2,240.3 -255.6,240.3 -255.6,268.3 -236.2,268.3 -236.2,232.3 
		-229.4,239.1 -220.1,229.8 -220.1,263.6 -202.2,263.6 -202.2,223 -186.2,223 -186.2,267 -172.9,267 -172.9,221 -155.6,221 
		-155.6,252.3 -144.2,252.3 -144.2,215 -132.9,215 -132.9,250.3 -104.9,250.3 -104.9,198.3 -76.9,198.3 -76.9,217.6 -66.2,217.6 
		-66.2,236.6 -53.7,249.1 -53.7,272.3 -44.6,263.2 -44.6,225.6 -29.6,225.6 -29.6,249.6 -7.6,249.6 -7.6,277 -565.6,277 	"/>
</g>
<g id="Layer_6">
	<polygon class="st3" points="-59.2,277 -59.2,226.3 -75.2,226.3 -75.2,277 -82.6,277 -82.6,221.6 -98.6,221.6 -98.6,277 
		-107.9,277 -107.9,262.3 -135.9,262.3 -135.9,277 -149.2,277 -149.2,262.3 -158.6,262.3 -158.6,277 -158.6,244.6 -167.2,244.6 
		-167.2,277 -174.6,277 -171.9,265.6 -204.6,265 -201.2,277 -207.9,277 -207.9,255.6 -207.9,235.6 -221.9,235.6 -221.9,277 
		-232.6,277 -232.6,229.6 -245.9,229.6 -245.9,277 -253.9,277 -253.9,249.3 -261.9,249.3 -261.9,277 -271.2,277 -271.2,252.3 
		-283.2,252.3 -283.2,277 -291.9,277 -291.9,221.6 -303.2,219 -303.2,277 -311.9,273.6 -325.2,211.6 -331.9,211.6 -331.9,277 
		-348.6,277 -348.6,254.3 -420.6,254.3 -420.6,277 -447.9,277 -447.9,236.3 -455.2,237 -455.2,277 -471.9,277 -471.9,236.3 
		-479.9,236.3 -479.9,277 -493.2,277 -493.2,233.6 -505.9,233.6 -505.9,277 -505.9,211.6 -520.6,211.6 -520.6,277 -547.9,277 
		-547.9,253 -560.6,252.3 -560.6,277 -568.6,277 -568.6,254.3 -581.9,254.3 -581.9,277 -595.2,277 -595.2,237.6 -603.9,237.6 
		-603.9,277 -617.2,277 -617.2,244.6 -625.2,244.6 -625.2,277 	"/>
</g>
<g id="Layer_2">
	<polygon class="st4" points="-573.6,277 -573.6,226.3 -557.6,226.3 -557.6,277 -550.2,277 -550.2,221.6 -534.2,221.6 -534.2,277 
		-524.9,277 -524.9,262.3 -496.9,262.3 -496.9,277 -483.6,277 -483.6,262.3 -474.2,262.3 -474.2,277 -474.2,244.6 -465.6,244.6 
		-465.6,277 -458.2,277 -460.9,265.6 -428.2,265 -431.6,277 -424.9,277 -424.9,255.6 -424.9,235.6 -410.9,235.6 -410.9,277 
		-400.2,277 -400.2,229.6 -386.9,229.6 -386.9,277 -378.9,277 -378.9,249.3 -370.9,249.3 -370.9,277 -361.6,277 -361.6,252.3 
		-349.6,252.3 -349.6,277 -340.9,277 -340.9,221.6 -329.6,219 -329.6,277 -320.9,273.6 -307.6,211.6 -300.9,211.6 -300.9,277 
		-284.2,277 -284.2,254.3 -212.2,254.3 -212.2,277 -184.9,277 -184.9,236.3 -177.6,237 -177.6,277 -160.9,277 -160.9,236.3 
		-152.9,236.3 -152.9,277 -139.6,277 -139.6,233.6 -126.9,233.6 -126.9,277 -126.9,211.6 -112.2,211.6 -112.2,277 -84.9,277 
		-84.9,253 -72.2,252.3 -72.2,277 -64.2,277 -64.2,254.3 -50.9,254.3 -50.9,277 -37.6,277 -37.6,237.6 -28.9,237.6 -28.9,277 
		-15.6,277 -15.6,244.6 -7.6,244.6 -7.6,277 	"/>
</g>
<g id="Layer_5">
	<polygon class="st5" points="-69.9,276.9 -69.9,259 -77.9,259 -77.9,276.9 -92.2,276.9 -92.2,259 -100.1,259 -100.1,275.5 
		-100.1,276.9 -105.1,276.9 -105.1,272.2 -108.7,272.2 -108.7,276.7 -111.1,276.7 -111.1,270.9 -114.2,270.9 -114.2,276.9 
		-122.1,276.9 -122.1,268.7 -127.6,268.7 -127.6,276.7 -133.1,276.7 -133.1,272.7 -142.6,272.7 -142.6,276.9 -149.1,276.9 
		-149.1,265.7 -151.7,265.7 -151.7,276.7 -159.6,276.7 -159.6,263.9 -163.2,263.9 -163.2,276.7 -171.7,276.7 -171.7,269.4 
		-174.2,269.4 -174.2,273.7 -177.4,273.7 -177.4,276.7 -201.1,276.7 -201.1,272 -205.4,272 -205.4,267.2 -209.7,267.2 -209.7,271.5 
		-214.2,271.5 -214.2,274.9 -218.9,274.9 -218.9,276.9 -225.1,276.9 -225.1,270.5 -227.2,270.5 -227.2,276.9 -232.4,276.9 
		-232.4,270.2 -234.9,270.2 -234.9,276.9 -242.6,276.9 -242.6,270.4 -245.7,270.4 -245.7,276.9 -315.1,276.9 -315.1,271.5 
		-318.1,271.5 -318.1,276.5 -322.2,276.5 -322.2,272.2 -325.1,272.2 -325.1,276.5 -329.4,276.5 -329.4,269.2 -332.6,269.2 
		-332.6,276.9 -347.1,276.9 -347.1,269.4 -351.1,269.4 -351.1,276.7 -405.7,276.7 -405.7,264.5 -408.7,264.5 -408.7,276.7 
		-423.1,276.7 -423.1,269.5 -428.6,269.5 -428.6,276.9 -452.6,276.9 -452.6,263.5 -460.9,263.5 -460.9,276.9 -482.2,276.9 
		-482.2,272.4 -484.7,272.4 -484.7,276.7 -489.9,276.7 -489.9,270.4 -492.2,270.4 -492.2,275.9 -497.6,275.9 -497.6,268.9 
		-500.6,268.9 -500.6,276.9 -509.9,276.9 -509.9,271.2 -514.1,271.2 -514.1,276.9 -531.7,276.9 -531.7,266.9 -536.4,266.9 
		-536.4,276.9 -540.9,276.9 -540.9,263.4 -542.6,265.1 -542.6,276.9 -546.6,276.9 -546.6,267.9 -550.6,267.9 -550.6,264.5 
		-554.4,264.5 -554.4,276.7 -560.4,276.7 -560.4,269.5 -563.7,269.5 -563.7,276.9 -571.9,276.9 -571.9,267.9 -574.4,265.4 
		-577.9,265.4 -577.9,276.9 -584.1,276.9 -584.1,269.2 -587.2,269.2 -587.2,276.7 -593.2,276.7 -593.2,267.9 -596.6,267.9 
		-596.6,276.9 -602.9,276.9 -602.9,271.4 -606.6,271.4 -606.6,276.9 -609.4,276.9 -609.4,272 -614.7,272 -614.7,276.7 	"/>
</g>
<g id="Layer_4">
	<polygon class="st6" points="-562.7,277 -562.7,259.1 -554.7,259.1 -554.7,277 -540.4,277 -540.4,259.1 -532.6,259.1 -532.6,275.6 
		-532.6,277 -527.6,277 -527.6,272.3 -523.9,272.3 -523.9,276.9 -521.6,276.9 -521.6,271 -518.4,271 -518.4,277 -510.6,277 
		-510.6,268.8 -505.1,268.8 -505.1,276.9 -499.6,276.9 -499.6,272.8 -490.1,272.8 -490.1,277 -483.6,277 -483.6,265.8 -480.9,265.8 
		-480.9,276.9 -473.1,276.9 -473.1,264 -469.4,264 -469.4,276.9 -460.9,276.9 -460.9,269.5 -458.4,269.5 -458.4,273.8 -455.2,273.8 
		-455.2,276.9 -431.6,276.9 -431.6,272.1 -427.2,272.1 -427.2,267.3 -422.9,267.3 -422.9,271.6 -418.4,271.6 -418.4,275 -413.7,275 
		-413.7,277 -407.6,277 -407.6,270.6 -405.4,270.6 -405.4,277 -400.2,277 -400.2,270.3 -397.7,270.3 -397.7,277 -390.1,277 
		-390.1,270.5 -386.9,270.5 -386.9,277 -317.6,277 -317.6,271.6 -314.6,271.6 -314.6,276.6 -310.4,276.6 -310.4,272.3 -307.6,272.3 
		-307.6,276.6 -303.2,276.6 -303.2,269.3 -300.1,269.3 -300.1,277 -285.6,277 -285.6,269.5 -281.6,269.5 -281.6,276.9 -226.9,276.9 
		-226.9,264.6 -223.9,264.6 -223.9,276.9 -209.6,276.9 -209.6,269.6 -204.1,269.6 -204.1,277 -180.1,277 -180.1,263.6 -171.7,263.6 
		-171.7,277 -150.4,277 -150.4,272.5 -147.9,272.5 -147.9,276.9 -142.7,276.9 -142.7,270.5 -140.4,270.5 -140.4,276 -135.1,276 
		-135.1,269 -132.1,269 -132.1,277 -122.7,277 -122.7,271.3 -118.6,271.3 -118.6,277 -100.9,277 -100.9,267 -96.2,267 -96.2,277 
		-91.7,277 -91.7,263.5 -90,265.2 -90,277 -86.1,277 -86.1,268 -82.1,268 -82.1,264.6 -78.2,264.6 -78.2,276.9 -72.2,276.9 
		-72.2,269.6 -68.9,269.6 -68.9,277 -60.7,277 -60.7,268 -58.2,265.5 -54.7,265.5 -54.7,277 -48.6,277 -48.6,269.3 -45.4,269.3 
		-45.4,276.8 -39.4,276.8 -39.4,268 -36.1,268 -36.1,277 -29.7,277 -29.7,271.5 -26.1,271.5 -26.1,277 -23.2,277 -23.2,272.1 
		-17.9,272.1 -17.9,276.8 	"/>
</g>
<g id="Layer_8">
	<g id="Layer_9">
	</g>
	<g id="Layer_10">
	</g>
	<g>
		<rect x="45.7" y="129.6" class="st7" width="22.4" height="4.1"/>
		<path class="st8" d="M57,152h-9c0,4.2,1.7,10.5,1.7,10.5h7.2h0h7.2c0,0,1.7-6.3,1.7-10.5H57"/>
		<polygon class="st9" points="49,152 45.3,131.3 46.1,130.7 49.9,152 		"/>
		<polygon class="st9" points="65.1,152 68.8,131.3 68,130.7 64.2,152 		"/>
		<polygon class="st9" points="61.3,152 61.3,127.8 62,127.9 62,152 		"/>
		<polygon class="st9" points="52.6,152 52.6,127.8 51.9,127.9 51.9,152 		"/>
		<path class="st10" d="M23.9,109.6c5.3,6.9,11.9,13.9,20.1,21c0.4,0.3,0.9,0.5,1.3,0.8c0.2-0.2,0.5-0.4,0.8-0.6
			c1.6-1.2,3.6-2.1,5.9-2.7c0.3-0.1,0.6-0.1,0.9-0.2c0,0.1-3.4-7.3-6.8-20.9C38.6,107.3,31.2,108.2,23.9,109.6z"/>
		<path class="st11" d="M46.1,106.9c3.4,13.6,6.8,21,6.8,20.9c2.7-0.5,5.4-0.5,8.1,0h0c0,0.1,3.3-7.1,6.7-20.6
			C60.4,106.7,53.2,106.6,46.1,106.9z"/>
		<path class="st12" d="M23.9,109.6c-0.6,0.1-1.2,0.2-1.8,0.4c6.8,8.9,14.5,16.3,21.9,20.6C35.8,123.4,29.2,116.4,23.9,109.6z"/>
		<path class="st13" d="M89.5,110c-7.3-1.3-14.6-2.2-21.8-2.8c-3.4,13.4-6.7,20.7-6.7,20.6c2.8,0.5,5.2,1.5,7,2.9
			c0.3,0.2,0.5,0.4,0.7,0.6C77.2,124.1,84,116.9,89.5,110z"/>
		<path class="st12" d="M7.6,36.6C6.3,37,5,37.4,3.7,37.8c-0.4,1-0.7,2.1-1,3.1c-1.1,3.6-1.8,7.4-2.1,11.3c-0.1,1.5-0.2,3.1-0.2,4.6
			c0,3.6,0.5,7.4,1.3,11.4c1.3,5.9,3.4,12,6.1,18.1c2.8,6.2,6.3,12.2,10.1,17.9c0.6-0.1,1.2-0.3,1.8-0.4C1.2,76.6,2.7,52.5,7.6,36.6
			z"/>
		<path class="st14" d="M68.8,131.3c7.7-4.2,15.7-11.7,22.9-20.9c-0.7-0.1-1.4-0.3-2.1-0.4C84,116.9,77.2,124.1,68.8,131.3z"/>
		<path class="st14" d="M93.8,104.2c0.7,0.1,1.4,0.3,2,0.4c4-5.8,7.5-12,10.4-18.3c2.8-6.1,4.9-12.2,6.1-18.1
			c0.8-3.9,1.3-7.8,1.3-11.4c0-1.6-0.1-3.1-0.2-4.6c-0.3-3.9-1-7.7-2.1-11.3c-0.3-0.9-0.5-1.7-0.8-2.5c-1.3-0.4-2.5-0.7-3.8-1
			C111.4,53.3,112.4,77.3,93.8,104.2z"/>
		<path class="st11" d="M73.1,20.7c-0.6-6-1.4-12.3-2.5-18.7C66.3,0.9,61.7,0.3,57,0.3c-4.8,0-9.4,0.6-13.8,1.7
			c-1,6.2-1.8,12.3-2.4,18.2C51.5,19.3,62.2,19.5,73.1,20.7z"/>
		<path class="st14" d="M104.7,26.5c-2.2-3.5-4.8-6.7-7.7-9.6c0,0,2.5,3.2,5.3,9C103.2,26.1,104,26.3,104.7,26.5z"/>
		<path class="st15" d="M40.7,2.7C32.9,5,25.8,9,19.9,14.2c-0.8,0.7-1.6,1.5-2.4,2.2c-0.4,0.6-2.9,4-5.2,8.5
			c9.4-2.5,18.9-4.1,28.5-4.8c0.6-5.9,1.4-11.9,2.4-18.2C42.4,2.2,41.5,2.4,40.7,2.7z"/>
		<path class="st12" d="M17,16.9c-2.7,2.7-5,5.6-7.1,8.7c0.8-0.2,1.6-0.4,2.4-0.6c2.3-4.5,4.8-8,5.2-8.5
			C17.3,16.6,17.2,16.7,17,16.9z"/>
		<path class="st16" d="M40.8,20.1c-9.6,0.7-19.2,2.3-28.5,4.8C10.7,28,9,32,7.6,36.6C18.2,33.5,29,31.5,40,30.6
			C40.2,27.2,40.5,23.7,40.8,20.1z"/>
		<path class="st17" d="M12.3,25c-0.8,0.2-1.6,0.4-2.4,0.6c-2.5,3.8-4.6,7.9-6.2,12.2C5,37.4,6.3,37,7.6,36.6C9,32,10.7,28,12.3,25z
			"/>
		<path class="st18" d="M89.5,110c0.7,0.1,1.4,0.3,2.1,0.4c1.4-1.9,2.8-3.8,4.2-5.7c-0.7-0.1-1.4-0.3-2-0.4
			C92.5,106.1,91,108,89.5,110z"/>
		<path class="st17" d="M19.7,103.8c-0.6,0.1-1.2,0.3-1.8,0.4c1.3,2,2.7,3.9,4.1,5.7c0.6-0.1,1.2-0.2,1.8-0.4
			C22.4,107.6,21,105.7,19.7,103.8z"/>
		<path class="st19" d="M67.7,107.2c7.2,0.5,14.5,1.4,21.8,2.8c1.5-1.9,3-3.9,4.3-5.8c-8.3-1.6-16.5-2.8-24.6-3.4
			C68.7,103,68.2,105.2,67.7,107.2z"/>
		<path class="st11" d="M74,31.1c-11.5-1.3-22.8-1.5-34-0.5c-1.9,29.4,1.1,53.2,4.7,69.9c8.1-0.5,16.3-0.4,24.6,0.3
			C72.8,84.1,75.8,60.4,74,31.1z"/>
		<path class="st10" d="M40,30.6C29,31.5,18.2,33.5,7.6,36.6c-4.8,15.8-6.4,39.9,12.1,67.2c8.2-1.8,16.5-2.9,24.9-3.4
			C41,83.7,38.1,59.9,40,30.6z"/>
		<path class="st19" d="M102.4,25.9c-9.9-2.5-19.6-4.2-29.3-5.2c0.4,3.6,0.6,7,0.9,10.5c10.8,1.2,21.7,3.3,32.8,6.3
			C105.5,32.9,103.9,29,102.4,25.9z"/>
		<path class="st13" d="M97.1,16.9c-0.9-0.9-1.8-1.7-2.8-2.6C87.6,8.4,79.6,4.1,70.7,1.9c1.1,6.4,1.9,12.7,2.5,18.7
			c9.7,1,19.4,2.8,29.3,5.2C99.6,20.1,97.1,16.9,97.1,16.9z"/>
		<path class="st18" d="M110.5,38.4c-1.5-4.2-3.4-8.2-5.8-12c-0.8-0.2-1.6-0.4-2.4-0.6c1.5,3.1,3.1,7,4.4,11.5
			C108,37.7,109.3,38.1,110.5,38.4z"/>
		<path class="st13" d="M74,31.1c1.9,29.3-1.2,53-4.8,69.6c8.1,0.6,16.3,1.8,24.6,3.4c18.6-26.9,17.6-50.8,13-66.8
			C95.7,34.4,84.8,32.3,74,31.1z"/>
		<path class="st20" d="M40.8,20.1c-0.4,3.5-0.6,7-0.9,10.4c11.2-0.9,22.5-0.7,34,0.5c-0.2-3.4-0.5-6.9-0.9-10.5
			C62.2,19.5,51.5,19.3,40.8,20.1z"/>
		<path class="st20" d="M44.6,100.4c0.5,2.3,1,4.5,1.5,6.5c7.1-0.3,14.3-0.2,21.6,0.3c0.5-2,1-4.2,1.5-6.5
			C60.9,100.1,52.7,100,44.6,100.4z"/>
		<path class="st16" d="M19.7,103.8c1.3,1.9,2.7,3.8,4.2,5.7c7.3-1.4,14.7-2.3,22.2-2.6c-0.5-2-1-4.2-1.5-6.5
			C36.2,100.9,27.9,102,19.7,103.8z"/>
	</g>
</g>
<g id="Layer_12">
	<g>
		<rect x="-240.2" y="118.9" class="st7" width="22.4" height="4.1"/>
		<path class="st8" d="M-229,141.4h-9c0,4.2,1.7,10.5,1.7,10.5h7.2h0h7.2c0,0,1.7-6.3,1.7-10.5H-229"/>
		<polygon class="st9" points="-236.9,141.3 -240.6,120.6 -239.9,120 -236,141.3 		"/>
		<polygon class="st9" points="-220.9,141.4 -217.2,120.6 -217.9,120 -221.8,141.4 		"/>
		<polygon class="st9" points="-224.6,141.3 -224.6,117.1 -224,117.2 -224,141.3 		"/>
		<polygon class="st9" points="-233.3,141.4 -233.3,117.1 -234,117.3 -234,141.4 		"/>
		<path class="st21" d="M-262.1,98.9c5.3,6.9,11.9,13.9,20.1,21c0.4,0.3,0.9,0.5,1.3,0.8c0.2-0.2,0.5-0.4,0.8-0.6
			c1.6-1.2,3.6-2.1,5.9-2.7c0.3-0.1,0.6-0.1,0.9-0.2c0,0.1-3.4-7.3-6.8-20.9C-247.3,96.6-254.7,97.5-262.1,98.9z"/>
		<path class="st22" d="M-239.8,96.3c3.4,13.6,6.8,21,6.8,20.9c2.7-0.5,5.4-0.5,8.1,0h0c0,0.1,3.3-7.1,6.7-20.6
			C-225.5,96-232.7,95.9-239.8,96.3z"/>
		<path class="st23" d="M-262.1,98.9c-0.6,0.1-1.2,0.2-1.8,0.4c6.8,8.9,14.5,16.3,21.9,20.6C-250.1,112.8-256.8,105.7-262.1,98.9z"
			/>
		<path class="st24" d="M-196.4,99.3c-7.3-1.3-14.6-2.2-21.8-2.8c-3.4,13.4-6.7,20.7-6.7,20.6c2.8,0.5,5.2,1.5,7,2.9
			c0.3,0.2,0.5,0.4,0.7,0.6C-208.7,113.4-201.9,106.3-196.4,99.3z"/>
		<path class="st23" d="M-278.4,26c-1.3,0.4-2.6,0.8-3.9,1.2c-0.4,1-0.7,2.1-1,3.1c-1.1,3.6-1.8,7.4-2.1,11.3
			c-0.1,1.5-0.2,3.1-0.2,4.6c0,3.6,0.5,7.4,1.3,11.4c1.3,5.9,3.4,12,6.1,18.1c2.8,6.2,6.3,12.2,10.1,17.9c0.6-0.1,1.2-0.3,1.8-0.4
			C-284.7,65.9-283.2,41.8-278.4,26z"/>
		<path class="st25" d="M-217.2,120.6c7.7-4.2,15.7-11.7,22.9-20.9c-0.7-0.1-1.4-0.3-2.1-0.4C-201.9,106.3-208.7,113.4-217.2,120.6z
			"/>
		<path class="st25" d="M-192.2,93.5c0.7,0.1,1.4,0.3,2,0.4c4-5.8,7.5-12,10.4-18.3c2.8-6.1,4.9-12.2,6.1-18.1
			c0.8-3.9,1.3-7.8,1.3-11.4c0-1.6-0.1-3.1-0.2-4.6c-0.3-3.9-1-7.7-2.1-11.3c-0.3-0.9-0.5-1.7-0.8-2.5c-1.3-0.4-2.5-0.7-3.8-1
			C-174.6,42.7-173.5,66.6-192.2,93.5z"/>
		<path class="st22" d="M-212.8,10c-0.6-6-1.4-12.3-2.5-18.7c-4.4-1.1-8.9-1.6-13.6-1.6c-4.8,0-9.4,0.6-13.8,1.7
			c-1,6.2-1.8,12.3-2.4,18.2C-234.5,8.6-223.7,8.8-212.8,10z"/>
		<path class="st25" d="M-181.2,15.8c-2.2-3.5-4.8-6.7-7.7-9.6c0,0,2.5,3.2,5.3,9C-182.8,15.4-182,15.6-181.2,15.8z"/>
		<path class="st21" d="M-245.3-8c-7.8,2.3-14.8,6.3-20.8,11.5c-0.8,0.7-1.6,1.5-2.4,2.2c-0.4,0.6-2.9,4-5.2,8.5
			c9.4-2.5,18.9-4.1,28.5-4.8c0.6-5.9,1.4-11.9,2.4-18.2C-243.6-8.5-244.4-8.2-245.3-8z"/>
		<path class="st23" d="M-268.9,6.2c-2.7,2.7-5,5.6-7.1,8.7c0.8-0.2,1.6-0.4,2.4-0.6c2.3-4.5,4.8-8,5.2-8.5
			C-268.6,5.9-268.8,6-268.9,6.2z"/>
		<path class="st26" d="M-245.1,9.5c-9.6,0.7-19.2,2.3-28.5,4.8c-1.6,3.1-3.3,7-4.7,11.7c10.6-3.2,21.4-5.2,32.4-6.1
			C-245.8,16.5-245.5,13-245.1,9.5z"/>
		<path class="st27" d="M-273.7,14.3c-0.8,0.2-1.6,0.4-2.4,0.6c-2.5,3.8-4.6,7.9-6.2,12.2c1.3-0.4,2.6-0.8,3.9-1.2
			C-276.9,21.3-275.2,17.4-273.7,14.3z"/>
		<path class="st28" d="M-196.4,99.3c0.7,0.1,1.4,0.3,2.1,0.4c1.4-1.9,2.8-3.8,4.2-5.7c-0.7-0.1-1.4-0.3-2-0.4
			C-193.5,95.4-194.9,97.4-196.4,99.3z"/>
		<path class="st27" d="M-266.2,93.2c-0.6,0.1-1.2,0.3-1.8,0.4c1.3,2,2.7,3.9,4.1,5.7c0.6-0.1,1.2-0.2,1.8-0.4
			C-263.5,97-264.9,95-266.2,93.2z"/>
		<path class="st29" d="M-218.2,96.5c7.2,0.5,14.5,1.4,21.8,2.8c1.5-1.9,3-3.9,4.3-5.8c-8.3-1.6-16.5-2.8-24.6-3.4
			C-217.2,92.4-217.7,94.5-218.2,96.5z"/>
		<path class="st22" d="M-212,20.4c-11.5-1.3-22.8-1.5-34-0.5c-1.9,29.4,1.1,53.2,4.7,69.9c8.1-0.5,16.3-0.4,24.6,0.3
			C-213.1,73.5-210.1,49.7-212,20.4z"/>
		<path class="st21" d="M-246,19.9c-10.9,0.9-21.7,2.9-32.4,6.1c-4.8,15.8-6.4,39.9,12.1,67.2c8.2-1.8,16.5-2.9,24.9-3.4
			C-244.9,73.1-247.9,49.3-246,19.9z"/>
		<path class="st29" d="M-183.6,15.2c-9.9-2.5-19.6-4.2-29.3-5.2c0.4,3.6,0.6,7,0.9,10.5c10.8,1.2,21.7,3.3,32.8,6.3
			C-180.5,22.2-182.1,18.3-183.6,15.2z"/>
		<path class="st24" d="M-188.9,6.2c-0.9-0.9-1.8-1.7-2.8-2.6c-6.7-5.9-14.8-10.2-23.7-12.4c1.1,6.4,1.9,12.7,2.5,18.7
			c9.7,1,19.4,2.8,29.3,5.2C-186.3,9.4-188.9,6.2-188.9,6.2z"/>
		<path class="st28" d="M-175.4,27.7c-1.5-4.2-3.4-8.2-5.8-12c-0.8-0.2-1.6-0.4-2.4-0.6c1.5,3.1,3.1,7,4.4,11.5
			C-177.9,27-176.7,27.4-175.4,27.7z"/>
		<path class="st24" d="M-212,20.4c1.9,29.3-1.2,53-4.8,69.6c8.1,0.6,16.3,1.8,24.6,3.4c18.6-26.9,17.6-50.8,13-66.8
			C-190.2,23.7-201.2,21.6-212,20.4z"/>
		<path class="st30" d="M-245.1,9.5c-0.4,3.5-0.6,7-0.9,10.4c11.2-0.9,22.5-0.7,34,0.5c-0.2-3.4-0.5-6.9-0.9-10.5
			C-223.7,8.8-234.5,8.6-245.1,9.5z"/>
		<path class="st30" d="M-241.3,89.8c0.5,2.3,1,4.5,1.5,6.5c7.1-0.3,14.3-0.2,21.6,0.3c0.5-2,1-4.2,1.5-6.5
			C-225,89.4-233.2,89.3-241.3,89.8z"/>
		<path class="st26" d="M-266.2,93.2c1.3,1.9,2.7,3.8,4.2,5.7c7.3-1.4,14.7-2.3,22.2-2.6c-0.5-2-1-4.2-1.5-6.5
			C-249.7,90.3-258,91.4-266.2,93.2z"/>
	</g>
</g>
<g id="Layer_13">
	<g>
		<rect x="-592.3" y="126.8" class="st7" width="22.4" height="4.1"/>
		<path class="st8" d="M-581,149.3h-9c0,4.2,1.7,10.5,1.7,10.5h7.2h0h7.2c0,0,1.7-6.3,1.7-10.5H-581"/>
		<polygon class="st9" points="-589,149.2 -592.7,128.5 -591.9,127.9 -588.1,149.2 		"/>
		<polygon class="st9" points="-572.9,149.3 -569.2,128.6 -570,127.9 -573.8,149.3 		"/>
		<polygon class="st9" points="-576.7,149.2 -576.7,125 -576,125.1 -576,149.2 		"/>
		<polygon class="st9" points="-585.4,149.3 -585.4,125 -586.1,125.2 -586.1,149.3 		"/>
		<path class="st12" d="M-614.1,106.8c5.3,6.9,11.9,13.9,20.1,21c0.4,0.3,0.9,0.5,1.3,0.8c0.2-0.2,0.5-0.4,0.8-0.6
			c1.6-1.2,3.6-2.1,5.9-2.7c0.3-0.1,0.6-0.1,0.9-0.2c0,0.1-3.4-7.3-6.8-20.9C-599.4,104.5-606.8,105.4-614.1,106.8z"/>
		<path class="st31" d="M-591.9,104.2c3.4,13.6,6.8,21,6.8,20.9c2.7-0.5,5.4-0.5,8.1,0h0c0,0.1,3.3-7.1,6.7-20.6
			C-577.6,103.9-584.8,103.8-591.9,104.2z"/>
		<path class="st32" d="M-614.1,106.8c-0.6,0.1-1.2,0.2-1.8,0.4c6.8,8.9,14.5,16.3,21.9,20.6C-602.2,120.7-608.8,113.6-614.1,106.8z
			"/>
		<path class="st33" d="M-548.5,107.2c-7.3-1.3-14.6-2.2-21.8-2.8c-3.4,13.4-6.7,20.7-6.7,20.6c2.8,0.5,5.2,1.5,7,2.9
			c0.3,0.2,0.5,0.4,0.7,0.6C-560.8,121.3-554,114.2-548.5,107.2z"/>
		<path class="st32" d="M-630.4,33.9c-1.3,0.4-2.6,0.8-3.9,1.2c-0.4,1-0.7,2.1-1,3.1c-1.1,3.6-1.8,7.4-2.1,11.3
			c-0.1,1.5-0.2,3.1-0.2,4.6c0,3.6,0.5,7.4,1.3,11.4c1.3,5.9,3.4,12,6.1,18.1c2.8,6.2,6.3,12.2,10.1,17.9c0.6-0.1,1.2-0.3,1.8-0.4
			C-636.8,73.8-635.3,49.7-630.4,33.9z"/>
		<path class="st34" d="M-569.2,128.5c7.7-4.2,15.7-11.7,22.9-20.9c-0.7-0.1-1.4-0.3-2.1-0.4C-554,114.2-560.8,121.3-569.2,128.5z"
			/>
		<path class="st34" d="M-544.2,101.4c0.7,0.1,1.4,0.3,2,0.4c4-5.8,7.5-12,10.4-18.3c2.8-6.1,4.9-12.2,6.1-18.1
			c0.8-3.9,1.3-7.8,1.3-11.4c0-1.6-0.1-3.1-0.2-4.6c-0.3-3.9-1-7.7-2.1-11.3c-0.3-0.9-0.5-1.7-0.8-2.5c-1.3-0.4-2.5-0.7-3.8-1
			C-526.6,50.6-525.6,74.5-544.2,101.4z"/>
		<path class="st31" d="M-564.9,17.9c-0.6-6-1.4-12.3-2.5-18.7c-4.4-1.1-8.9-1.6-13.6-1.6c-4.8,0-9.4,0.6-13.8,1.7
			c-1,6.2-1.8,12.3-2.4,18.2C-586.5,16.5-575.8,16.7-564.9,17.9z"/>
		<path class="st34" d="M-533.3,23.7c-2.2-3.5-4.8-6.7-7.7-9.6c0,0,2.5,3.2,5.3,9C-534.8,23.3-534,23.5-533.3,23.7z"/>
		<path class="st12" d="M-597.3-0.1c-7.8,2.3-14.8,6.3-20.8,11.5c-0.8,0.7-1.6,1.5-2.4,2.2c-0.4,0.6-2.9,4-5.2,8.5
			c9.4-2.5,18.9-4.1,28.5-4.8c0.6-5.9,1.4-11.9,2.4-18.2C-595.6-0.6-596.5-0.3-597.3-0.1z"/>
		<path class="st32" d="M-621,14.1c-2.7,2.7-5,5.6-7.1,8.7c0.8-0.2,1.6-0.4,2.4-0.6c2.3-4.5,4.8-8,5.2-8.5
			C-620.7,13.8-620.8,13.9-621,14.1z"/>
		<path class="st17" d="M-597.2,17.4c-9.6,0.7-19.2,2.3-28.5,4.8c-1.6,3.1-3.3,7-4.7,11.7c10.6-3.2,21.4-5.2,32.4-6.1
			C-597.8,24.4-597.5,20.9-597.2,17.4z"/>
		<path class="st35" d="M-625.7,22.2c-0.8,0.2-1.6,0.4-2.4,0.6c-2.5,3.8-4.6,7.9-6.2,12.2c1.3-0.4,2.6-0.8,3.9-1.2
			C-629,29.2-627.3,25.3-625.7,22.2z"/>
		<path class="st36" d="M-548.5,107.2c0.7,0.1,1.4,0.3,2.1,0.4c1.4-1.9,2.8-3.8,4.2-5.7c-0.7-0.1-1.4-0.3-2-0.4
			C-545.5,103.3-547,105.3-548.5,107.2z"/>
		<path class="st35" d="M-618.3,101.1c-0.6,0.1-1.2,0.3-1.8,0.4c1.3,2,2.7,3.9,4.1,5.7c0.6-0.1,1.2-0.2,1.8-0.4
			C-615.6,104.9-617,103-618.3,101.1z"/>
		<path class="st37" d="M-570.3,104.4c7.2,0.5,14.5,1.4,21.8,2.8c1.5-1.9,3-3.9,4.3-5.8c-8.3-1.6-16.5-2.8-24.6-3.4
			C-569.3,100.3-569.8,102.4-570.3,104.4z"/>
		<path class="st31" d="M-564,28.3c-11.5-1.3-22.8-1.5-34-0.5c-1.9,29.4,1.1,53.2,4.7,69.9c8.1-0.5,16.3-0.4,24.6,0.3
			C-565.2,81.4-562.2,57.6-564,28.3z"/>
		<path class="st12" d="M-598,27.8c-10.9,0.9-21.7,2.9-32.4,6.1c-4.8,15.8-6.4,39.9,12.1,67.2c8.2-1.8,16.5-2.9,24.9-3.4
			C-597,81-599.9,57.2-598,27.8z"/>
		<path class="st37" d="M-535.6,23.1c-9.9-2.5-19.6-4.2-29.3-5.2c0.4,3.6,0.6,7,0.9,10.5c10.8,1.2,21.7,3.3,32.8,6.3
			C-532.5,30.1-534.1,26.2-535.6,23.1z"/>
		<path class="st33" d="M-540.9,14.1c-0.9-0.9-1.8-1.7-2.8-2.6c-6.7-5.9-14.8-10.2-23.7-12.4c1.1,6.4,1.9,12.7,2.5,18.7
			c9.7,1,19.4,2.8,29.3,5.2C-538.4,17.3-540.9,14.1-540.9,14.1z"/>
		<path class="st36" d="M-527.5,35.6c-1.5-4.2-3.4-8.2-5.8-12c-0.8-0.2-1.6-0.4-2.4-0.6c1.5,3.1,3.1,7,4.4,11.5
			C-530,34.9-528.7,35.3-527.5,35.6z"/>
		<path class="st33" d="M-564,28.3c1.9,29.3-1.2,53-4.8,69.6c8.1,0.6,16.3,1.8,24.6,3.4c18.6-26.9,17.6-50.8,13-66.8
			C-542.3,31.6-553.2,29.5-564,28.3z"/>
		<path class="st38" d="M-597.2,17.4c-0.4,3.5-0.6,7-0.9,10.4c11.2-0.9,22.5-0.7,34,0.5c-0.2-3.4-0.5-6.9-0.9-10.5
			C-575.8,16.7-586.5,16.5-597.2,17.4z"/>
		<path class="st38" d="M-593.4,97.7c0.5,2.3,1,4.5,1.5,6.5c7.1-0.3,14.3-0.2,21.6,0.3c0.5-2,1-4.2,1.5-6.5
			C-577.1,97.3-585.3,97.2-593.4,97.7z"/>
		<path class="st17" d="M-618.3,101.1c1.3,1.9,2.7,3.8,4.2,5.7c7.3-1.4,14.7-2.3,22.2-2.6c-0.5-2-1-4.2-1.5-6.5
			C-601.8,98.2-610.1,99.3-618.3,101.1z"/>
	</g>
</g>
<g id="Layer_11">
	<g>
		<path class="st39" d="M-383.3,70.7"/>
		<path class="st40" d="M-405.2,132.3"/>
		<path class="st41" d="M-383.3,132"/>
		<path class="st42" d="M-410.2,99v20.1c0,0,0,13.4,15,13.4h4h4c15,0,15-13.4,15-13.4V99V74c0,0,0-12.9-15-12.9h-4h-4
			c-15,0-15,12.9-15,12.9V99z"/>
		<path class="st43" d="M-391.2,70.7L-391.2,70.7c-1,0-1.8,0.8-1.8,1.8v7c0,1,0.8,1.8,1.8,1.8l0,0c1,0,1.8-0.8,1.8-1.8v-7
			C-389.5,71.5-390.3,70.7-391.2,70.7z"/>
	</g>
</g>
</svg>
