<?xml version="1.0" encoding="utf-8"?>
<!-- Generator: Adobe Illustrator 22.0.1, SVG Export Plug-In . SVG Version: 6.00 Build 0)  -->
<svg version="1.1" xmlns="http://www.w3.org/2000/svg" xmlns:xlink="http://www.w3.org/1999/xlink" x="0px" y="0px"
	 viewBox="0 0 114.3 163.4" style="enable-background:new 0 0 114.3 163.4;" xml:space="preserve">
<style type="text/css">
	.st0{display:none;}
	.st1{display:inline;fill:none;stroke:#000000;stroke-miterlimit:10;}
	.st2{fill:#1E1E1E;}
	.st3{fill:#262626;}
	.st4{fill:#3F3F3F;}
	.st5{fill:#565656;}
	.st6{fill:#636363;}
	.st7{fill:#3A3631;}
	.st8{fill:#332206;}
	.st9{fill:#D3830D;}
	.st10{fill:#C0DD57;}
	.st11{fill:#EAF74B;}
	.st12{fill:#FF4D4D;}
	.st13{fill:#F7AA4F;}
	.st14{fill:#4CCAD8;}
	.st15{fill:#ADDB49;}
	.st16{fill:#CDE576;}
	.st17{fill:#FC7C7C;}
	.st18{fill:#6AE0E5;}
	.st19{fill:#F7C186;}
	.st20{fill:#F7F79F;}
	.st21{fill:#4848A0;}
	.st22{fill:#4268BC;}
	.st23{fill:#2D2D77;}
	.st24{fill:#4887CC;}
	.st25{fill:#70B9EF;}
	.st26{fill:#7878BA;}
	.st27{fill:#6260A8;}
	.st28{fill:#ABDCF4;}
	.st29{fill:#72AFDD;}
	.st30{fill:#7499D1;}
	.st31{fill:#FC7777;}
	.st32{fill:#C12929;}
	.st33{fill:#F99898;}
	.st34{fill:#F9AD98;}
	.st35{fill:#C15656;}
	.st36{fill:#FFD0C5;}
	.st37{fill:#F9BDBD;}
	.st38{fill:#FF9999;}
	.st39{fill:none;stroke:#0C0B0B;stroke-width:0.2135;stroke-miterlimit:10;}
	.st40{fill:none;stroke:#0C0B0B;stroke-width:0.2371;stroke-miterlimit:10;}
	.st41{fill:none;stroke:#0C0B0B;stroke-width:0.2071;stroke-miterlimit:10;}
	.st42{fill:none;stroke:#0C0B0B;stroke-width:1.9398;stroke-miterlimit:10;}
	.st43{fill:#0C0B0B;}
</style>
<g id="Layer_1" class="st0">
	<line class="st1" x1="-446.9" y1="287.9" x2="457.1" y2="287.9"/>
</g>
<g id="Layer_3">
	<polygon class="st2" points="-279.5,282.6 -279.5,216.6 -256.9,216.6 -256.9,278 -244.2,278 -244.2,255.3 -225.5,255.3 
		-225.5,282.6 -208.2,282.6 -208.2,234.6 -192.2,234.6 -192.2,278 -182.9,278 -182.9,226.6 -166.9,226.6 -166.9,288 -154.9,288 
		-154.9,207.3 -129.5,207.3 -129.5,284 -124.9,284 -124.9,232.6 -104.9,232.6 -104.9,281.3 -104.9,267.3 -89.5,267.3 -89.5,280.6 
		-79.5,280.6 -79.5,247.6 -58.9,247.6 -58.9,278.6 -50.2,278.6 -50.2,207.3 -29.5,207.3 -29.5,273.3 -20.9,273.3 -20.9,217.3 
		1.1,217.3 1.1,284.6 18.8,284.6 18.8,251.3 30.5,251.3 30.5,279.3 49.8,279.3 49.8,243.3 56.6,250.1 66,240.8 66,274.6 83.8,274.6 
		83.8,234 99.8,234 99.8,278 113.1,278 113.1,232 130.5,232 130.5,263.3 141.8,263.3 141.8,226 153.1,226 153.1,261.3 181.1,261.3 
		181.1,209.3 209.1,209.3 209.1,228.6 219.8,228.6 219.8,247.6 232.3,260.1 232.3,283.3 241.4,274.2 241.4,236.6 256.5,236.6 
		256.5,260.6 278.5,260.6 278.5,288 -279.5,288 	"/>
</g>
<g id="Layer_6">
	<polygon class="st3" points="226.8,288 226.8,237.3 210.8,237.3 210.8,288 203.5,288 203.5,232.6 187.5,232.6 187.5,288 178.1,288 
		178.1,273.3 150.1,273.3 150.1,288 136.8,288 136.8,273.3 127.5,273.3 127.5,288 127.5,255.6 118.8,255.6 118.8,288 111.5,288 
		114.1,276.6 81.5,276 84.8,288 78.1,288 78.1,266.6 78.1,246.6 64.1,246.6 64.1,288 53.5,288 53.5,240.6 40.1,240.6 40.1,288 
		32.1,288 32.1,260.3 24.1,260.3 24.1,288 14.8,288 14.8,263.3 2.8,263.3 2.8,288 -5.9,288 -5.9,232.6 -17.2,230 -17.2,288 
		-25.9,284.6 -39.2,222.6 -45.9,222.6 -45.9,288 -62.5,288 -62.5,265.3 -134.5,265.3 -134.5,288 -161.9,288 -161.9,247.3 
		-169.2,248 -169.2,288 -185.9,288 -185.9,247.3 -193.9,247.3 -193.9,288 -207.2,288 -207.2,244.6 -219.9,244.6 -219.9,288 
		-219.9,222.6 -234.5,222.6 -234.5,288 -261.9,288 -261.9,264 -274.5,263.3 -274.5,288 -282.5,288 -282.5,265.3 -295.9,265.3 
		-295.9,288 -309.2,288 -309.2,248.6 -317.9,248.6 -317.9,288 -331.2,288 -331.2,255.6 -339.2,255.6 -339.2,288 	"/>
</g>
<g id="Layer_2">
	<polygon class="st4" points="-287.5,288 -287.5,237.3 -271.5,237.3 -271.5,288 -264.2,288 -264.2,232.6 -248.2,232.6 -248.2,288 
		-238.9,288 -238.9,273.3 -210.9,273.3 -210.9,288 -197.5,288 -197.5,273.3 -188.2,273.3 -188.2,288 -188.2,255.6 -179.5,255.6 
		-179.5,288 -172.2,288 -174.9,276.6 -142.2,276 -145.5,288 -138.9,288 -138.9,266.6 -138.9,246.6 -124.9,246.6 -124.9,288 
		-114.2,288 -114.2,240.6 -100.9,240.6 -100.9,288 -92.9,288 -92.9,260.3 -84.9,260.3 -84.9,288 -75.5,288 -75.5,263.3 -63.5,263.3 
		-63.5,288 -54.9,288 -54.9,232.6 -43.5,230 -43.5,288 -34.9,284.6 -21.5,222.6 -14.9,222.6 -14.9,288 1.8,288 1.8,265.3 
		73.8,265.3 73.8,288 101.1,288 101.1,247.3 108.5,248 108.5,288 125.1,288 125.1,247.3 133.1,247.3 133.1,288 146.5,288 
		146.5,244.6 159.1,244.6 159.1,288 159.1,222.6 173.8,222.6 173.8,288 201.1,288 201.1,264 213.8,263.3 213.8,288 221.8,288 
		221.8,265.3 235.1,265.3 235.1,288 248.5,288 248.5,248.6 257.1,248.6 257.1,288 270.5,288 270.5,255.6 278.5,255.6 278.5,288 	"/>
</g>
<g id="Layer_5">
	<polygon class="st5" points="216.1,287.9 216.1,270 208.1,270 208.1,287.9 193.8,287.9 193.8,270 186,270 186,286.5 186,287.9 
		181,287.9 181,283.2 177.3,283.2 177.3,287.8 175,287.8 175,281.9 171.8,281.9 171.8,287.9 164,287.9 164,279.7 158.5,279.7 
		158.5,287.8 153,287.8 153,283.7 143.5,283.7 143.5,287.9 137,287.9 137,276.7 134.3,276.7 134.3,287.8 126.5,287.8 126.5,274.9 
		122.8,274.9 122.8,287.8 114.3,287.8 114.3,280.4 111.8,280.4 111.8,284.7 108.6,284.7 108.6,287.8 85,287.8 85,283 80.6,283 
		80.6,278.2 76.3,278.2 76.3,282.5 71.8,282.5 71.8,285.9 67.1,285.9 67.1,287.9 61,287.9 61,281.5 58.8,281.5 58.8,287.9 
		53.6,287.9 53.6,281.2 51.1,281.2 51.1,287.9 43.5,287.9 43.5,281.4 40.3,281.4 40.3,287.9 -29,287.9 -29,282.5 -32,282.5 
		-32,287.5 -36.2,287.5 -36.2,283.2 -39,283.2 -39,287.5 -43.4,287.5 -43.4,280.2 -46.5,280.2 -46.5,287.9 -61,287.9 -61,280.4 
		-65,280.4 -65,287.8 -119.7,287.8 -119.7,275.5 -122.7,275.5 -122.7,287.8 -137,287.8 -137,280.5 -142.5,280.5 -142.5,287.9 
		-166.5,287.9 -166.5,274.5 -174.9,274.5 -174.9,287.9 -196.2,287.9 -196.2,283.4 -198.7,283.4 -198.7,287.8 -203.9,287.8 
		-203.9,281.4 -206.2,281.4 -206.2,286.9 -211.5,286.9 -211.5,279.9 -214.5,279.9 -214.5,287.9 -223.9,287.9 -223.9,282.2 
		-228,282.2 -228,287.9 -245.7,287.9 -245.7,277.9 -250.4,277.9 -250.4,287.9 -254.9,287.9 -254.9,274.4 -256.6,276.1 -256.6,287.9 
		-260.5,287.9 -260.5,278.9 -264.5,278.9 -264.5,275.5 -268.4,275.5 -268.4,287.8 -274.4,287.8 -274.4,280.5 -277.7,280.5 
		-277.7,287.9 -285.9,287.9 -285.9,278.9 -288.4,276.4 -291.9,276.4 -291.9,287.9 -298,287.9 -298,280.2 -301.2,280.2 -301.2,287.7 
		-307.2,287.7 -307.2,278.9 -310.5,278.9 -310.5,287.9 -316.9,287.9 -316.9,282.4 -320.5,282.4 -320.5,287.9 -323.4,287.9 
		-323.4,283 -328.7,283 -328.7,287.7 	"/>
</g>
<g id="Layer_4">
	<polygon class="st6" points="-276.7,288 -276.7,270.1 -268.7,270.1 -268.7,288 -254.4,288 -254.4,270.1 -246.5,270.1 -246.5,286.6 
		-246.5,288 -241.5,288 -241.5,283.3 -237.9,283.3 -237.9,287.9 -235.5,287.9 -235.5,282 -232.4,282 -232.4,288 -224.5,288 
		-224.5,279.8 -219,279.8 -219,287.9 -213.5,287.9 -213.5,283.8 -204,283.8 -204,288 -197.5,288 -197.5,276.8 -194.9,276.8 
		-194.9,287.9 -187,287.9 -187,275 -183.4,275 -183.4,287.9 -174.9,287.9 -174.9,280.5 -172.4,280.5 -172.4,284.9 -169.2,284.9 
		-169.2,287.9 -145.5,287.9 -145.5,283.1 -141.2,283.1 -141.2,278.3 -136.9,278.3 -136.9,282.6 -132.4,282.6 -132.4,286 -127.7,286 
		-127.7,288 -121.5,288 -121.5,281.6 -119.4,281.6 -119.4,288 -114.2,288 -114.2,281.3 -111.7,281.3 -111.7,288 -104,288 
		-104,281.5 -100.9,281.5 -100.9,288 -31.5,288 -31.5,282.6 -28.5,282.6 -28.5,287.6 -24.4,287.6 -24.4,283.3 -21.5,283.3 
		-21.5,287.6 -17.2,287.6 -17.2,280.3 -14,280.3 -14,288 0.5,288 0.5,280.5 4.5,280.5 4.5,287.9 59.1,287.9 59.1,275.6 62.1,275.6 
		62.1,287.9 76.5,287.9 76.5,280.6 82,280.6 82,288 106,288 106,274.6 114.3,274.6 114.3,288 135.6,288 135.6,283.5 138.1,283.5 
		138.1,287.9 143.3,287.9 143.3,281.5 145.6,281.5 145.6,287 151,287 151,280 154,280 154,288 163.3,288 163.3,282.3 167.5,282.3 
		167.5,288 185.1,288 185.1,278 189.8,278 189.8,288 194.3,288 194.3,274.5 196,276.2 196,288 200,288 200,279.1 204,279.1 
		204,275.6 207.8,275.6 207.8,287.9 213.8,287.9 213.8,280.6 217.1,280.6 217.1,288 225.3,288 225.3,279.1 227.8,276.5 231.3,276.5 
		231.3,288 237.5,288 237.5,280.3 240.6,280.3 240.6,287.8 246.6,287.8 246.6,279.1 250,279.1 250,288 256.3,288 256.3,282.5 
		260,282.5 260,288 262.8,288 262.8,283.1 268.1,283.1 268.1,287.8 	"/>
</g>
<g id="Layer_8">
	<g id="Layer_9">
	</g>
	<g id="Layer_10">
	</g>
	<g>
		<rect x="331.7" y="140.6" class="st7" width="22.4" height="4.1"/>
		<path class="st8" d="M343,163h-9c0,4.2,1.7,10.5,1.7,10.5h7.2h0h7.2c0,0,1.7-6.3,1.7-10.5H343"/>
		<polygon class="st9" points="335,163 331.3,142.3 332.1,141.7 335.9,163 		"/>
		<polygon class="st9" points="351.1,163 354.8,142.3 354,141.7 350.2,163 		"/>
		<polygon class="st9" points="347.3,163 347.3,138.8 348,138.9 348,163 		"/>
		<polygon class="st9" points="338.6,163 338.6,138.8 337.9,139 338,163 		"/>
		<path class="st10" d="M309.9,120.6c5.3,6.9,11.9,13.9,20.1,21c0.4,0.3,0.9,0.5,1.3,0.8c0.2-0.2,0.5-0.4,0.8-0.6
			c1.6-1.2,3.6-2.1,5.9-2.7c0.3-0.1,0.6-0.1,0.9-0.2c0,0.1-3.4-7.3-6.8-20.9C324.6,118.3,317.2,119.2,309.9,120.6z"/>
		<path class="st11" d="M332.2,117.9c3.4,13.6,6.8,21,6.8,20.9c2.7-0.5,5.4-0.5,8.1,0h0c0,0.1,3.3-7.1,6.7-20.6
			C346.5,117.7,339.3,117.6,332.2,117.9z"/>
		<path class="st12" d="M309.9,120.6c-0.6,0.1-1.2,0.2-1.8,0.4c6.8,8.9,14.5,16.3,21.9,20.6C321.8,134.4,315.2,127.4,309.9,120.6z"
			/>
		<path class="st13" d="M375.5,121c-7.3-1.3-14.6-2.2-21.8-2.8c-3.4,13.4-6.7,20.7-6.7,20.6c2.8,0.5,5.2,1.5,7,2.9
			c0.3,0.2,0.5,0.4,0.7,0.6C363.2,135.1,370.1,127.9,375.5,121z"/>
		<path class="st12" d="M293.6,47.6c-1.3,0.4-2.6,0.8-3.9,1.2c-0.4,1-0.7,2.1-1,3.1c-1.1,3.6-1.8,7.4-2.1,11.3
			c-0.1,1.5-0.2,3.1-0.2,4.6c0,3.6,0.5,7.4,1.3,11.4c1.3,5.9,3.4,12,6.1,18.1c2.8,6.2,6.3,12.2,10.1,17.9c0.6-0.1,1.2-0.3,1.8-0.4
			C287.2,87.6,288.8,63.5,293.6,47.6z"/>
		<path class="st14" d="M354.8,142.3c7.7-4.2,15.7-11.7,22.9-20.9c-0.7-0.1-1.4-0.3-2.1-0.4C370.1,127.9,363.2,135.1,354.8,142.3z"
			/>
		<path class="st14" d="M379.8,115.2c0.7,0.1,1.4,0.3,2,0.4c4-5.8,7.5-12,10.4-18.3c2.8-6.1,4.9-12.2,6.1-18.1
			c0.8-3.9,1.3-7.8,1.3-11.4c0-1.6-0.1-3.1-0.2-4.6c-0.3-3.9-1-7.7-2.1-11.3c-0.3-0.9-0.5-1.7-0.8-2.5c-1.3-0.4-2.5-0.7-3.8-1
			C397.4,64.4,398.4,88.3,379.8,115.2z"/>
		<path class="st11" d="M359.1,31.7c-0.6-6-1.4-12.3-2.5-18.7c-4.4-1.1-8.9-1.6-13.6-1.6c-4.8,0-9.4,0.6-13.8,1.7
			c-1,6.2-1.8,12.3-2.4,18.2C337.5,30.3,348.2,30.5,359.1,31.7z"/>
		<path class="st14" d="M390.8,37.5c-2.2-3.5-4.8-6.7-7.7-9.6c0,0,2.5,3.2,5.3,9C389.2,37.1,390,37.3,390.8,37.5z"/>
		<path class="st15" d="M326.7,13.7c-7.8,2.3-14.8,6.3-20.8,11.5c-0.8,0.7-1.6,1.5-2.4,2.2c-0.4,0.6-2.9,4-5.2,8.5
			c9.4-2.5,18.9-4.1,28.5-4.8c0.6-5.9,1.4-11.9,2.4-18.2C328.4,13.2,327.5,13.4,326.7,13.7z"/>
		<path class="st12" d="M303,27.9c-2.7,2.7-5,5.6-7.1,8.7c0.8-0.2,1.6-0.4,2.4-0.6c2.3-4.5,4.8-8,5.2-8.5
			C303.4,27.6,303.2,27.7,303,27.9z"/>
		<path class="st16" d="M326.9,31.2c-9.6,0.7-19.2,2.3-28.5,4.8c-1.6,3.1-3.3,7-4.7,11.7c10.6-3.2,21.4-5.2,32.4-6.1
			C326.2,38.2,326.5,34.7,326.9,31.2z"/>
		<path class="st17" d="M298.3,36c-0.8,0.2-1.6,0.4-2.4,0.6c-2.5,3.8-4.6,7.9-6.2,12.2c1.3-0.4,2.6-0.8,3.9-1.2
			C295,43,296.7,39.1,298.3,36z"/>
		<path class="st18" d="M375.5,121c0.7,0.1,1.4,0.3,2.1,0.4c1.4-1.9,2.8-3.8,4.2-5.7c-0.7-0.1-1.4-0.3-2-0.4
			C378.5,117.1,377.1,119,375.5,121z"/>
		<path class="st17" d="M305.7,114.8c-0.6,0.1-1.2,0.3-1.8,0.4c1.3,2,2.7,3.9,4.1,5.7c0.6-0.1,1.2-0.2,1.8-0.4
			C308.4,118.6,307,116.7,305.7,114.8z"/>
		<path class="st19" d="M353.7,118.2c7.2,0.5,14.5,1.4,21.8,2.8c1.5-1.9,3-3.9,4.3-5.8c-8.3-1.6-16.5-2.8-24.6-3.4
			C354.7,114.1,354.2,116.2,353.7,118.2z"/>
		<path class="st11" d="M360,42.1c-11.5-1.3-22.8-1.5-34-0.5c-1.9,29.4,1.1,53.2,4.7,69.9c8.1-0.5,16.3-0.4,24.6,0.3
			C358.8,95.1,361.8,71.4,360,42.1z"/>
		<path class="st10" d="M326,41.6c-10.9,0.9-21.7,2.9-32.4,6.1c-4.8,15.8-6.4,39.9,12.1,67.2c8.2-1.8,16.5-2.9,24.9-3.4
			C327.1,94.8,324.1,71,326,41.6z"/>
		<path class="st19" d="M388.4,36.9c-9.9-2.5-19.6-4.2-29.3-5.2c0.4,3.6,0.6,7,0.9,10.5c10.8,1.2,21.7,3.3,32.8,6.3
			C391.5,43.9,389.9,40,388.4,36.9z"/>
		<path class="st13" d="M383.1,27.9c-0.9-0.9-1.8-1.7-2.8-2.6c-6.7-5.9-14.8-10.2-23.7-12.4c1.1,6.4,1.9,12.7,2.5,18.7
			c9.7,1,19.4,2.8,29.3,5.2C385.6,31.1,383.1,27.9,383.1,27.9z"/>
		<path class="st18" d="M396.6,49.4c-1.5-4.2-3.4-8.2-5.8-12c-0.8-0.2-1.6-0.4-2.4-0.6c1.5,3.1,3.1,7,4.4,11.5
			C394,48.7,395.3,49.1,396.6,49.4z"/>
		<path class="st13" d="M360,42.1c1.9,29.3-1.2,53-4.8,69.6c8.1,0.6,16.3,1.8,24.6,3.4c18.6-26.9,17.6-50.8,13-66.8
			C381.7,45.4,370.8,43.3,360,42.1z"/>
		<path class="st20" d="M326.9,31.2c-0.4,3.5-0.6,7-0.9,10.4c11.2-0.9,22.5-0.7,34,0.5c-0.2-3.4-0.5-6.9-0.9-10.5
			C348.2,30.5,337.5,30.3,326.9,31.2z"/>
		<path class="st20" d="M330.6,111.5c0.5,2.3,1,4.5,1.5,6.5c7.1-0.3,14.3-0.2,21.6,0.3c0.5-2,1-4.2,1.5-6.5
			C346.9,111.1,338.7,111,330.6,111.5z"/>
		<path class="st16" d="M305.7,114.8c1.3,1.9,2.7,3.8,4.2,5.7c7.3-1.4,14.7-2.3,22.2-2.6c-0.5-2-1-4.2-1.5-6.5
			C322.2,111.9,313.9,113.1,305.7,114.8z"/>
	</g>
</g>
<g id="Layer_12">
	<g>
		<rect x="45.8" y="129.9" class="st7" width="22.4" height="4.1"/>
		<path class="st8" d="M57.1,152.4h-9c0,4.2,1.7,10.5,1.7,10.5H57h0h7.2c0,0,1.7-6.3,1.7-10.5H57.1"/>
		<polygon class="st9" points="49.1,152.3 45.4,131.6 46.1,131 50,152.3 		"/>
		<polygon class="st9" points="65.1,152.4 68.9,131.7 68.1,131 64.3,152.4 		"/>
		<polygon class="st9" points="61.4,152.3 61.4,128.1 62.1,128.3 62.1,152.3 		"/>
		<polygon class="st9" points="52.7,152.4 52.7,128.1 52,128.3 52,152.4 		"/>
		<path class="st21" d="M24,109.9c5.3,6.9,11.9,13.9,20.1,21c0.4,0.3,0.9,0.5,1.3,0.8c0.2-0.2,0.5-0.4,0.8-0.6
			c1.6-1.2,3.6-2.1,5.9-2.7c0.3-0.1,0.6-0.1,0.9-0.2c0,0.1-3.4-7.3-6.8-20.9C38.7,107.6,31.3,108.5,24,109.9z"/>
		<path class="st22" d="M46.2,107.3c3.4,13.6,6.8,21,6.8,20.9c2.7-0.5,5.4-0.5,8.1,0h0c0,0.1,3.3-7.1,6.7-20.6
			C60.5,107,53.3,106.9,46.2,107.3z"/>
		<path class="st23" d="M24,109.9c-0.6,0.1-1.2,0.2-1.8,0.4c6.8,8.9,14.5,16.3,21.9,20.6C35.9,123.8,29.3,116.7,24,109.9z"/>
		<path class="st24" d="M89.6,110.3c-7.3-1.3-14.6-2.2-21.8-2.8c-3.4,13.4-6.7,20.7-6.7,20.6c2.8,0.5,5.2,1.5,7,2.9
			c0.3,0.2,0.5,0.4,0.7,0.6C77.3,124.4,84.1,117.3,89.6,110.3z"/>
		<path class="st23" d="M7.7,37c-1.3,0.4-2.6,0.8-3.9,1.2c-0.4,1-0.7,2.1-1,3.1C1.7,44.9,1,48.7,0.7,52.6c-0.1,1.5-0.2,3.1-0.2,4.6
			c0,3.6,0.5,7.4,1.3,11.4c1.3,5.9,3.4,12,6.1,18.1c2.8,6.2,6.3,12.2,10.1,17.9c0.6-0.1,1.2-0.3,1.8-0.4C1.3,76.9,2.8,52.8,7.7,37z"
			/>
		<path class="st25" d="M68.8,131.6c7.7-4.2,15.7-11.7,22.9-20.9c-0.7-0.1-1.4-0.3-2.1-0.4C84.1,117.3,77.3,124.4,68.8,131.6z"/>
		<path class="st25" d="M93.9,104.5c0.7,0.1,1.4,0.3,2,0.4c4-5.8,7.5-12,10.4-18.3c2.8-6.1,4.9-12.2,6.1-18.1
			c0.8-3.9,1.3-7.8,1.3-11.4c0-1.6-0.1-3.1-0.2-4.6c-0.3-3.9-1-7.7-2.1-11.3c-0.3-0.9-0.5-1.7-0.8-2.5c-1.3-0.4-2.5-0.7-3.8-1
			C111.5,53.7,112.5,77.6,93.9,104.5z"/>
		<path class="st22" d="M73.2,21c-0.6-6-1.4-12.3-2.5-18.7c-4.4-1.1-8.9-1.6-13.6-1.6c-4.8,0-9.4,0.6-13.8,1.7
			c-1,6.2-1.8,12.3-2.4,18.2C51.5,19.7,62.3,19.8,73.2,21z"/>
		<path class="st25" d="M104.8,26.8c-2.2-3.5-4.8-6.7-7.7-9.6c0,0,2.5,3.2,5.3,9C103.2,26.4,104,26.6,104.8,26.8z"/>
		<path class="st21" d="M40.7,3C33,5.4,25.9,9.3,20,14.5c-0.8,0.7-1.6,1.5-2.4,2.2c-0.4,0.6-2.9,4-5.2,8.5
			c9.4-2.5,18.9-4.1,28.5-4.8c0.6-5.9,1.4-11.9,2.4-18.2C42.5,2.5,41.6,2.8,40.7,3z"/>
		<path class="st23" d="M17.1,17.2c-2.7,2.7-5,5.6-7.1,8.7c0.8-0.2,1.6-0.4,2.4-0.6c2.3-4.5,4.8-8,5.2-8.5
			C17.4,16.9,17.2,17,17.1,17.2z"/>
		<path class="st26" d="M40.9,20.5c-9.6,0.7-19.2,2.3-28.5,4.8c-1.6,3.1-3.3,7-4.7,11.7c10.6-3.2,21.4-5.2,32.4-6.1
			C40.3,27.5,40.6,24,40.9,20.5z"/>
		<path class="st27" d="M12.4,25.3c-0.8,0.2-1.6,0.4-2.4,0.6c-2.5,3.8-4.6,7.9-6.2,12.2c1.3-0.4,2.6-0.8,3.9-1.2
			C9.1,32.3,10.8,28.4,12.4,25.3z"/>
		<path class="st28" d="M89.6,110.3c0.7,0.1,1.4,0.3,2.1,0.4c1.4-1.9,2.8-3.8,4.2-5.7c-0.7-0.1-1.4-0.3-2-0.4
			C92.5,106.4,91.1,108.4,89.6,110.3z"/>
		<path class="st27" d="M19.8,104.2c-0.6,0.1-1.2,0.3-1.8,0.4c1.3,2,2.7,3.9,4.1,5.7c0.6-0.1,1.2-0.2,1.8-0.4
			C22.5,108,21.1,106.1,19.8,104.2z"/>
		<path class="st29" d="M67.8,107.6c7.2,0.5,14.5,1.4,21.8,2.8c1.5-1.9,3-3.9,4.3-5.8c-8.3-1.6-16.5-2.8-24.6-3.4
			C68.8,103.4,68.3,105.5,67.8,107.6z"/>
		<path class="st22" d="M74,31.4c-11.5-1.3-22.8-1.5-34-0.5c-1.9,29.4,1.1,53.2,4.7,69.9c8.1-0.5,16.3-0.4,24.6,0.3
			C72.9,84.5,75.9,60.7,74,31.4z"/>
		<path class="st21" d="M40,30.9C29.1,31.8,18.3,33.8,7.7,37c-4.8,15.8-6.4,39.9,12.1,67.2c8.2-1.8,16.5-2.9,24.9-3.4
			C41.1,84.1,38.1,60.3,40,30.9z"/>
		<path class="st29" d="M102.5,26.2C92.6,23.8,82.8,22,73.2,21c0.4,3.6,0.6,7,0.9,10.5c10.8,1.2,21.7,3.3,32.8,6.3
			C105.5,33.2,104,29.3,102.5,26.2z"/>
		<path class="st24" d="M97.1,17.2c-0.9-0.9-1.8-1.7-2.8-2.6C87.7,8.8,79.6,4.5,70.7,2.3C71.8,8.7,72.6,15,73.2,21
			c9.7,1,19.4,2.8,29.3,5.2C99.7,20.4,97.1,17.2,97.1,17.2z"/>
		<path class="st28" d="M110.6,38.8c-1.5-4.2-3.4-8.2-5.8-12c-0.8-0.2-1.6-0.4-2.4-0.6c1.5,3.1,3.1,7,4.4,11.5
			C108.1,38.1,109.4,38.4,110.6,38.8z"/>
		<path class="st24" d="M74,31.4c1.9,29.3-1.2,53-4.8,69.6c8.1,0.6,16.3,1.8,24.6,3.4c18.6-26.9,17.6-50.8,13-66.8
			C95.8,34.7,84.9,32.6,74,31.4z"/>
		<path class="st30" d="M40.9,20.5c-0.4,3.5-0.6,7-0.9,10.4c11.2-0.9,22.5-0.7,34,0.5c-0.2-3.4-0.5-6.9-0.9-10.5
			C62.3,19.8,51.5,19.7,40.9,20.5z"/>
		<path class="st30" d="M44.7,100.8c0.5,2.3,1,4.5,1.5,6.5c7.1-0.3,14.3-0.2,21.6,0.3c0.5-2,1-4.2,1.5-6.5
			C61,100.4,52.8,100.3,44.7,100.8z"/>
		<path class="st26" d="M19.8,104.2c1.3,1.9,2.7,3.8,4.2,5.7c7.3-1.4,14.7-2.3,22.2-2.6c-0.5-2-1-4.2-1.5-6.5
			C36.3,101.3,28,102.4,19.8,104.2z"/>
	</g>
</g>
<g id="Layer_13">
	<g>
		<rect x="-306.3" y="137.8" class="st7" width="22.4" height="4.1"/>
		<path class="st8" d="M-295,160.3h-9c0,4.2,1.7,10.5,1.7,10.5h7.2h0h7.2c0,0,1.7-6.3,1.7-10.5H-295"/>
		<polygon class="st9" points="-303,160.2 -306.7,139.5 -305.9,138.9 -302.1,160.2 		"/>
		<polygon class="st9" points="-286.9,160.3 -283.2,139.6 -284,138.9 -287.8,160.3 		"/>
		<polygon class="st9" points="-290.7,160.2 -290.7,136 -290,136.2 -290,160.2 		"/>
		<polygon class="st9" points="-299.4,160.3 -299.4,136 -300.1,136.2 -300,160.3 		"/>
		<path class="st12" d="M-328.1,117.8c5.3,6.9,11.9,13.9,20.1,21c0.4,0.3,0.9,0.5,1.3,0.8c0.2-0.2,0.5-0.4,0.8-0.6
			c1.6-1.2,3.6-2.1,5.9-2.7c0.3-0.1,0.6-0.1,0.9-0.2c0,0.1-3.4-7.3-6.8-20.9C-313.4,115.5-320.8,116.4-328.1,117.8z"/>
		<path class="st31" d="M-305.8,115.2c3.4,13.6,6.8,21,6.8,20.9c2.7-0.5,5.4-0.5,8.1,0h0c0,0.1,3.3-7.1,6.7-20.6
			C-291.5,114.9-298.7,114.8-305.8,115.2z"/>
		<path class="st32" d="M-328.1,117.8c-0.6,0.1-1.2,0.2-1.8,0.4c6.8,8.9,14.5,16.3,21.9,20.6C-316.2,131.7-322.8,124.6-328.1,117.8z
			"/>
		<path class="st33" d="M-262.5,118.2c-7.3-1.3-14.6-2.2-21.8-2.8c-3.4,13.4-6.7,20.7-6.7,20.6c2.8,0.5,5.2,1.5,7,2.9
			c0.3,0.2,0.5,0.4,0.7,0.6C-274.8,132.3-267.9,125.2-262.5,118.2z"/>
		<path class="st32" d="M-344.4,44.9c-1.3,0.4-2.6,0.8-3.9,1.2c-0.4,1-0.7,2.1-1,3.1c-1.1,3.6-1.8,7.4-2.1,11.3
			c-0.1,1.5-0.2,3.1-0.2,4.6c0,3.6,0.5,7.4,1.3,11.4c1.3,5.9,3.4,12,6.1,18.1c2.8,6.2,6.3,12.2,10.1,17.9c0.6-0.1,1.2-0.3,1.8-0.4
			C-350.8,84.8-349.2,60.7-344.4,44.9z"/>
		<path class="st34" d="M-283.2,139.5c7.7-4.2,15.7-11.7,22.9-20.9c-0.7-0.1-1.4-0.3-2.1-0.4C-267.9,125.2-274.8,132.3-283.2,139.5z
			"/>
		<path class="st34" d="M-258.2,112.4c0.7,0.1,1.4,0.3,2,0.4c4-5.8,7.5-12,10.4-18.3c2.8-6.1,4.9-12.2,6.1-18.1
			c0.8-3.9,1.3-7.8,1.3-11.4c0-1.6-0.1-3.1-0.2-4.6c-0.3-3.9-1-7.7-2.1-11.3c-0.3-0.9-0.5-1.7-0.8-2.5c-1.3-0.4-2.5-0.7-3.8-1
			C-240.6,61.6-239.6,85.5-258.2,112.4z"/>
		<path class="st31" d="M-278.9,28.9c-0.6-6-1.4-12.3-2.5-18.7c-4.4-1.1-8.9-1.6-13.6-1.6c-4.8,0-9.4,0.6-13.8,1.7
			c-1,6.2-1.8,12.3-2.4,18.2C-300.5,27.6-289.8,27.7-278.9,28.9z"/>
		<path class="st34" d="M-247.2,34.7c-2.2-3.5-4.8-6.7-7.7-9.6c0,0,2.5,3.2,5.3,9C-248.8,34.3-248,34.5-247.2,34.7z"/>
		<path class="st12" d="M-311.3,10.9c-7.8,2.3-14.8,6.3-20.8,11.5c-0.8,0.7-1.6,1.5-2.4,2.2c-0.4,0.6-2.9,4-5.2,8.5
			c9.4-2.5,18.9-4.1,28.5-4.8c0.6-5.9,1.4-11.9,2.4-18.2C-309.6,10.4-310.5,10.7-311.3,10.9z"/>
		<path class="st32" d="M-335,25.1c-2.7,2.7-5,5.6-7.1,8.7c0.8-0.2,1.6-0.4,2.4-0.6c2.3-4.5,4.8-8,5.2-8.5
			C-334.6,24.8-334.8,25-335,25.1z"/>
		<path class="st17" d="M-311.1,28.4c-9.6,0.7-19.2,2.3-28.5,4.8c-1.6,3.1-3.3,7-4.7,11.7c10.6-3.2,21.4-5.2,32.4-6.1
			C-311.8,35.4-311.5,31.9-311.1,28.4z"/>
		<path class="st35" d="M-339.7,33.2c-0.8,0.2-1.6,0.4-2.4,0.6c-2.5,3.8-4.6,7.9-6.2,12.2c1.3-0.4,2.6-0.8,3.9-1.2
			C-343,40.2-341.3,36.3-339.7,33.2z"/>
		<path class="st36" d="M-262.5,118.2c0.7,0.1,1.4,0.3,2.1,0.4c1.4-1.9,2.8-3.8,4.2-5.7c-0.7-0.1-1.4-0.3-2-0.4
			C-259.5,114.3-260.9,116.3-262.5,118.2z"/>
		<path class="st35" d="M-332.3,112.1c-0.6,0.1-1.2,0.3-1.8,0.4c1.3,2,2.7,3.9,4.1,5.7c0.6-0.1,1.2-0.2,1.8-0.4
			C-329.6,115.9-331,114-332.3,112.1z"/>
		<path class="st37" d="M-284.3,115.5c7.2,0.5,14.5,1.4,21.8,2.8c1.5-1.9,3-3.9,4.3-5.8c-8.3-1.6-16.5-2.8-24.6-3.4
			C-283.3,111.3-283.8,113.4-284.3,115.5z"/>
		<path class="st31" d="M-278,39.4c-11.5-1.3-22.8-1.5-34-0.5c-1.9,29.4,1.1,53.2,4.7,69.9c8.1-0.5,16.3-0.4,24.6,0.3
			C-279.2,92.4-276.2,68.7-278,39.4z"/>
		<path class="st12" d="M-312,38.8c-10.9,0.9-21.7,2.9-32.4,6.1c-4.8,15.8-6.4,39.9,12.1,67.2c8.2-1.8,16.5-2.9,24.9-3.4
			C-310.9,92-313.9,68.2-312,38.8z"/>
		<path class="st37" d="M-249.6,34.1c-9.9-2.5-19.6-4.2-29.3-5.2c0.4,3.6,0.6,7,0.9,10.5c10.8,1.2,21.7,3.3,32.8,6.3
			C-246.5,41.1-248.1,37.2-249.6,34.1z"/>
		<path class="st33" d="M-254.9,25.1c-0.9-0.9-1.8-1.7-2.8-2.6c-6.7-5.9-14.8-10.2-23.7-12.4c1.1,6.4,1.9,12.7,2.5,18.7
			c9.7,1,19.4,2.8,29.3,5.2C-252.4,28.4-254.9,25.1-254.9,25.1z"/>
		<path class="st36" d="M-241.4,46.7c-1.5-4.2-3.4-8.2-5.8-12c-0.8-0.2-1.6-0.4-2.4-0.6c1.5,3.1,3.1,7,4.4,11.5
			C-244,46-242.7,46.3-241.4,46.7z"/>
		<path class="st33" d="M-278,39.4c1.9,29.3-1.2,53-4.8,69.6c8.1,0.6,16.3,1.8,24.6,3.4c18.6-26.9,17.6-50.8,13-66.8
			C-256.3,42.6-267.2,40.5-278,39.4z"/>
		<path class="st38" d="M-311.1,28.4c-0.4,3.5-0.6,7-0.9,10.4c11.2-0.9,22.5-0.7,34,0.5c-0.2-3.4-0.5-6.9-0.9-10.5
			C-289.8,27.7-300.5,27.6-311.1,28.4z"/>
		<path class="st38" d="M-307.4,108.7c0.5,2.3,1,4.5,1.5,6.5c7.1-0.3,14.3-0.2,21.6,0.3c0.5-2,1-4.2,1.5-6.5
			C-291.1,108.3-299.3,108.2-307.4,108.7z"/>
		<path class="st17" d="M-332.3,112.1c1.3,1.9,2.7,3.8,4.2,5.7c7.3-1.4,14.7-2.3,22.2-2.6c-0.5-2-1-4.2-1.5-6.5
			C-315.8,109.2-324.1,110.3-332.3,112.1z"/>
	</g>
</g>
<g id="Layer_11">
	<g>
		<path class="st39" d="M-97.2,81.7"/>
		<path class="st40" d="M-119.2,143.3"/>
		<path class="st41" d="M-97.2,143"/>
		<path class="st42" d="M-124.2,110v20.1c0,0,0,13.4,15,13.4h4h4c15,0,15-13.4,15-13.4V110V85c0,0,0-12.9-15-12.9h-4h-4
			c-15,0-15,12.9-15,12.9V110z"/>
		<path class="st43" d="M-105.2,81.7L-105.2,81.7c-1,0-1.8,0.8-1.8,1.8v7c0,1,0.8,1.8,1.8,1.8h0c1,0,1.8-0.8,1.8-1.8v-7
			C-103.5,82.5-104.3,81.7-105.2,81.7z"/>
	</g>
</g>
</svg>
