<?xml version="1.0" encoding="utf-8"?>
<!-- Generator: Adobe Illustrator 22.0.1, SVG Export Plug-In . SVG Version: 6.00 Build 0)  -->
<svg version="1.1" id="Layer_1" xmlns="http://www.w3.org/2000/svg" xmlns:xlink="http://www.w3.org/1999/xlink" x="0px" y="0px"
	 viewBox="0 0 832.3 165.3" style="enable-background:new 0 0 832.3 165.3;" xml:space="preserve">
<style type="text/css">
	.st0{fill:#1D1D1D;}
	.st1{fill:#1C1C1C;}
	.st2{fill:#2DB4D5;}
	.st3{fill:#202020;}
	.st4{fill:#1F1F1F;}
</style>
<path class="st0" d="M318.6,0.5c1.2,0.1,2.5,0.2,3.7,0.5c2.9,0.6,5.8,1.2,8.8,1.8c0.5,0.1,0.9,0.3,1.4,0.6
	c-2.3,4.6-4.5,9.2-6.7,13.6c-2.5-0.6-5-1.3-7.4-1.7c-10.7-1.4-20.3,0.9-27.7,9.3c-4.2,4.8-6.3,10.5-7.3,16.7
	c-0.5,3.3-0.6,6.6,0.3,9.9c1.7,6,6,9.3,11.9,10.7c5.3,1.3,10.6,0.9,15.8,0.1c1.6-0.2,3.2-0.6,4.8-0.9c0,0.4,0,0.7,0,1.1
	c-0.1,3.7-0.3,7.3-0.3,11c0,1.2-0.4,1.7-1.6,2c-4.5,1.1-9,1.6-13.5,1.9c-7.5,0.4-15,0-22.1-2.6c-8.6-3.1-14.7-8.8-17-17.9
	c-1.5-6-1.1-12,0.5-18c5-19,17.5-30.4,36-35.7c3.9-1.1,8-1.4,12-2.1c0.2,0,0.4-0.1,0.6-0.2C313.3,0.5,315.9,0.5,318.6,0.5z"/>
<path class="st0" d="M748.7,89.9c6.2,0,12.2,0,18.4,0c-5.4,24.9-10.8,49.7-16.2,74.5c-6.8,0-13.5,0-20.4,0
	c-5.8-17.2-13.1-33.9-17.2-51.9c-0.1,0.2-0.2,0.5-0.3,0.7c-1.7,9.5-3.4,19.1-5.2,28.6c-1.4,7.3-3.1,14.5-4.7,21.7
	c-0.1,0.6-0.3,0.8-0.9,0.8c-5.7,0-11.5-0.1-17.2-0.1c-0.1,0-0.2,0-0.4-0.1c5.4-24.8,10.8-49.6,16.2-74.5c2.9,0,5.8,0,8.7,0
	c4.1,0,8.2,0,12.2,0c0.6,0,0.9,0.1,1.2,0.7c4.4,12.5,8.8,25,13.1,37.5c1.3,3.7,2.1,7.6,3.1,11.3c0.1,0.3,0.2,0.6,0.2,0.7
	c1.3-8.3,2.6-16.7,4.1-25.1C745,106.5,746.9,98.2,748.7,89.9z"/>
<path class="st1" d="M321.7,88.5c6.9,0,13.6,0,20.5,0c-5.4,24.9-10.8,49.7-16.2,74.5c-6.8,0-13.6,0-20.5,0
	c2.2-10.1,4.4-20.2,6.6-30.4c-8.5,0-16.8,0-25.3,0c-2.2,10-4.4,20.1-6.6,30.3c-6.8,0-13.5,0-20.5,0c5.4-24.9,10.8-49.7,16.2-74.5
	c6.8,0,13.6,0,20.5,0c-2.1,9.7-4.2,19.2-6.2,28.8c8.5,0,16.8,0,25.3,0C317.6,107.7,319.7,98.1,321.7,88.5z"/>
<path class="st0" d="M327.4,76.2c3-13.9,6.1-27.6,9.1-41.3c2.3-10.4,4.6-20.8,6.8-31.2c0.1-0.7,0.3-1.1,1.1-1.2
	c8.7-1,17.4-1.4,26.1-1.3c6,0.1,12,0.5,17.7,2.4c1.9,0.7,3.8,1.5,5.5,2.6c5,3.2,6.9,7.9,6.3,13.6c-0.9,9.1-6.4,14.9-14,19
	c-1.5,0.8-3.1,1.4-4.7,2c-0.3,0.1-0.6,0.2-1,0.6c0.1,0,0.2,0.1,0.3,0.1c4.4,1.7,6.8,5.1,7.5,9.6c0.6,3.9,0.8,8,1.2,11.9
	c0.4,4.4,0.8,8.8,1.2,13.3c-0.1,0-0.4,0-0.8,0c-6.4,0-12.8,0-19.2,0c-0.9,0-1.2-0.2-1.3-1.1c-0.4-4.6-0.9-9.2-1.3-13.8
	c-0.2-2.4-0.1-4.9-0.4-7.3c-0.5-4.4-2.7-6.4-7.1-6.8c-2-0.2-4,0-6.2,0c-2.1,9.5-4.2,19.2-6.3,28.8C341.1,76.2,334.3,76.2,327.4,76.2
	z M357.1,34.7c3.9-0.1,7.6,0.4,11.3-0.7c4.9-1.4,8.6-4.1,10-9.3c1.5-5.3-0.7-8.9-6-10.1c-3.3-0.8-6.5-0.4-9.8-0.2
	c-0.9,0.1-1.1,0.5-1.3,1.2c-0.9,4-1.8,8-2.6,12C358.1,29.9,357.6,32.2,357.1,34.7z"/>
<path class="st0" d="M345.1,137c0.3-22.5,14.6-43.4,37.4-48.3c8-1.7,15.9-1.7,23.7,1.2c8.8,3.3,13.8,9.9,15.5,19
	c1.7,9.6-0.4,18.8-4.1,27.6c-4.9,11.6-12.9,20.2-24.9,24.7c-9.9,3.7-20,4.5-30.1,1.3c-10.1-3.2-15.4-10.6-17-20.8
	C345.3,139.8,345.2,137.9,345.1,137z M400.6,118.4c0-4.8-0.4-8-1.8-10.9c-1.5-3-3.9-5-7.2-5.7c-2.5-0.5-4.9-0.3-7.3,0.6
	c-4.8,1.7-8.2,5.1-10.8,9.3c-3,4.8-4.8,10-5.9,15.5c-0.9,4.5-1.3,9.1-0.2,13.7c1.6,6.8,6.6,10.3,13.5,9.2c4.6-0.7,8.2-3.2,11-6.8
	C397.8,135.6,400,126.5,400.6,118.4z"/>
<path class="st0" d="M604.8,137.8c0.3-22.7,15-44,38.5-48.4c7.6-1.4,15.2-1.3,22.6,1.4c8.8,3.3,13.7,9.9,15.4,19
	c1.7,9.2-0.2,18-3.6,26.5c-4.1,10.3-10.7,18.7-20.8,23.8c-11.1,5.6-22.8,7-34.7,3.3c-10.1-3.1-15.4-10.6-17-20.8
	C604.9,140.6,604.9,138.7,604.8,137.8z M660.4,117.3c-0.2-1.7-0.4-3.9-0.9-6c-1.6-6.5-6.3-9.6-12.8-8.7c-4.5,0.6-8.1,3-11,6.4
	c-4.5,5.2-6.8,11.3-8.3,17.9c-1.1,4.9-1.6,9.8-0.5,14.8c1.6,6.9,6.6,10.3,13.5,9.3c4.6-0.7,8.2-3.2,11-6.8
	C657.4,136.5,659.7,127.4,660.4,117.3z"/>
<path class="st0" d="M451.8,134.4c-1.7,7.7-3.3,15.3-5,22.9c-0.4,1.8-0.7,3.5-1.2,5.2c-0.1,0.3-0.5,0.8-0.8,0.8c-6.5,0-13,0-19.7,0
	c0.4-2.1,0.9-4.1,1.3-6c4.8-22,9.6-44,14.3-66c0.3-1.2,0.6-1.7,2-1.8c9.8-1,19.7-1.6,29.6-1c5.1,0.3,10,1,14.8,2.9
	c5.3,2.2,9.1,5.7,9.8,11.6c0.6,5.5-0.8,10.5-4.1,14.9c-3.6,4.7-8.3,7.9-13.8,9.9c-0.4,0.2-0.9,0.3-1.5,0.5c0.2,0.2,0.3,0.3,0.4,0.4
	c4.3,1.7,6.6,5.1,7.3,9.4c0.6,3.9,0.8,7.8,1.2,11.7c0.4,4.5,0.8,9.1,1.2,13.6c-6.7,0-13.7,0-20.9,0c-0.3-2.4-0.8-4.8-0.9-7.2
	c-0.3-4.5-0.5-9-0.7-13.6c0-0.8-0.2-1.6-0.3-2.3c-0.9-4.1-3-5.7-7.8-6C455.3,134.3,453.6,134.4,451.8,134.4z M454.5,121.8
	c3.8,0,7.5,0.4,11.1-0.7c4.7-1.4,8.3-4,9.8-8.8c1.8-5.7-0.6-9.8-6.4-10.6c-3-0.4-6.2-0.1-9.3-0.1c-0.7,0-0.9,0.4-1.1,1
	c-0.7,3.3-1.4,6.6-2.2,10C455.9,115.6,455.2,118.6,454.5,121.8z"/>
<path class="st0" d="M533,76.8c-7.1,0-14.2,0-21.4,0c-0.5-5.8-1-11.5-1.5-17.4c-2.9,0-5.8,0-8.7,0c-3.7,0-7.5,0-11.2,0
	c-0.7,0-1.1,0.2-1.5,0.9c-2.6,5.2-5.2,10.4-7.8,15.6c-0.3,0.5-0.5,0.9-1.2,0.9c-6.7,0-13.3,0-20.2,0c0.2-0.5,0.4-0.8,0.6-1.2
	c13.1-24.2,26.2-48.3,39.2-72.5c0.3-0.6,0.6-1,1.4-1c8.2,0.1,16.4,0.1,24.6,0.1c0.2,0,0.4,0,0.8,0C528.4,27.1,530.7,51.9,533,76.8z
	 M509.3,15.9c-4.9,10.3-9.7,20.4-14.6,30.6c5.3,0,10.5,0,15.7,0C510,36.3,509.7,26.2,509.3,15.9z"/>
<path class="st0" d="M459.8,31.3c-1,4.7-2,9.3-3.1,13.9c-9.2,0-18.4,0-27.6,0c-1.3,5.7-2.5,11.4-3.8,17.4c10.3,0,20.5,0,30.9,0
	c-1.1,4.8-2.1,9.5-3.1,14.1c-17.2,0-34.3,0-51.6,0c5.5-25,10.9-49.8,16.4-74.5c16.7,0,33.2,0,49.9,0c-1.1,4.8-2.1,9.5-3.1,14.2
	c-9.7,0-19.3,0-29.2,0c-1.1,4.9-2.2,9.8-3.3,14.9C441.4,31.3,450.5,31.3,459.8,31.3z"/>
<path class="st0" d="M672.8,2.9c-1.1,4.9-2.1,9.5-3.1,14.2c-9.8,0-19.4,0-29.2,0c-1.1,4.9-2.2,9.8-3.3,14.9c9.2,0,18.3,0,27.6,0
	c-1,4.8-2,9.3-3.1,13.9c-9.2,0-18.4,0-27.6,0c-1.3,5.7-2.5,11.4-3.8,17.3c10.3,0,20.5,0,30.9,0c-1.1,4.9-2.1,9.6-3.1,14.2
	c-17.2,0-34.3,0-51.6,0c5.5-25,10.9-49.8,16.4-74.5C639.5,2.9,656.1,2.9,672.8,2.9z"/>
<path class="st0" d="M558.7,149.5c11.8,0,23.3,0,35,0c-1.1,4.9-2.1,9.7-3.1,14.4c-20.3,0-40.6,0-61.1,0c0.6-2.8,1.2-5.5,1.7-8.1
	c0.2-1,0.7-1.8,1.4-2.6c15-16.2,30-32.3,44.9-48.5c0.2-0.2,0.4-0.5,0.8-1c-11,0-21.6,0-32.5,0c1.1-4.9,2.1-9.7,3.1-14.3
	c19.2,0,38.3,0,57.5,0c-0.8,3.6-1.5,7.1-2.3,10.6c-0.1,0.4-0.4,0.8-0.7,1.1c-12.9,14-25.9,28.1-38.8,42.1c-1.7,1.8-3.4,3.6-5,5.4
	C559.2,148.8,559,149,558.7,149.5z"/>
<path class="st0" d="M790,165.4c-2.8,0-5.6,0-8.3,0c-6-0.4-11.8-1.3-17.4-3.7c2.2-4.8,4.4-9.5,6.6-14.2c1.6,0.6,3.1,1.2,4.7,1.7
	c5.9,1.7,11.8,2.7,17.9,1.9c2.1-0.3,4.1-1,6.1-1.8c1.1-0.5,2.2-1.5,3-2.5c2.5-3.1,2.1-6.7-1.1-8.9c-2.3-1.6-4.9-2.9-7.5-4
	c-4.1-1.8-8.1-3.7-11.6-6.5c-3-2.4-5.4-5.3-6.3-9.2c-1.1-4.4,0.1-8.5,2.2-12.4c3.4-6.3,8.8-10.3,15.2-13c7.4-3.1,15.2-3.9,23.2-3.5
	c5.2,0.3,10.3,1.2,15.2,3.1c0,0.2,0.1,0.5,0,0.6c-2.2,4.5-4.4,9-6.5,13.3c-2.6-0.7-5.1-1.6-7.7-2.2c-4.8-1-9.7-1.3-14.5,0.3
	c-1.7,0.6-3.3,1.4-4.6,2.7c-2.7,2.8-2.5,6.2,0.7,8.3c2.7,1.7,5.6,3.1,8.5,4.4c3.6,1.6,7.3,3.2,10.4,5.6c5.9,4.5,8.2,10.4,6.3,17.7
	c-1.3,5.3-4.1,9.6-8.2,13c-5.4,4.6-11.8,7.1-18.7,8.4C795.2,164.9,792.6,165.1,790,165.4z"/>
<path class="st0" d="M568,17.4c-6.9,0-13.7,0-20.6,0c1.1-5,2.2-9.9,3.2-14.7c20.7,0,41.3,0,62.1,0c-1.1,5.1-2.2,10-3.3,14.9
	c-7,0-13.8,0-20.8,0c-4.4,19.9-8.7,39.8-13.1,59.6c-6.9,0-13.7,0-20.7,0C559.2,57.2,563.6,37.4,568,17.4z"/>
<path class="st2" d="M88.9,163.8c-4.6-0.1-8.9-1.1-12.7-3.9c-4.3-3.3-6.4-7.9-6.4-13.2c0-3.4,0.6-6.8,1.2-10.2
	c1.8-10.5,3.7-20.9,5.5-31.3c0.9-5.6,2.5-10.8,6-15.4c6.6-8.4,18-12.3,28.1-9.5c6.9,1.9,11.6,7.6,12.4,14.8c0.4,4-0.4,7.8-1.1,11.7
	c-1.9,10.8-3.9,21.6-5.7,32.4c-1.4,8.5-5.1,15.4-12.3,20.2C99.4,162.3,94.3,163.7,88.9,163.8z M114.7,99.1c-0.1,0-0.1,0-0.2,0
	c0-0.7,0-1.4-0.1-2.1c-0.4-4.8-3.4-8.6-8-9.7c-4.5-1.1-8.8-0.4-12.7,2.1c-5.1,3.3-7.5,8.3-8.5,14.1c-1.9,10.9-3.9,21.7-5.7,32.6
	c-0.6,3.4-1.4,6.9-1,10.4c0.5,4.7,3.4,8.3,7.9,9.4c6.3,1.5,11.9-0.1,16.3-5c2.9-3.2,4.3-7.1,5-11.3c1.7-10,3.5-20,5.3-30
	C113.6,106,114.1,102.6,114.7,99.1z"/>
<path class="st0" d="M514.6,89.1c6.8,0,13.6,0,20.5,0c-5.4,24.9-10.8,49.7-16.2,74.5c-6.8,0-13.6,0-20.5,0
	C503.8,138.7,509.2,113.9,514.6,89.1z"/>
<path class="st2" d="M210.6,125.9c-3.4,1.1-6.9,1.7-10.5,1.4c-5.9-0.3-11-2.3-14.5-7.3c-2.6-3.7-3.4-7.9-3.1-12.3
	c0.4-6.5,2.5-12.4,6.5-17.5c5.1-6.4,11.7-10,19.8-10.8c5.1-0.5,10.1-0.1,14.8,2.3c5.4,2.7,8.2,7.2,8.9,13.1
	c0.9,7.4-1.3,14.2-5.2,20.4c-3.3,5.3-7,10.4-10.7,15.5c-7.4,10.5-14.9,21-22.4,31.4c-0.4,0.6-0.8,0.8-1.5,0.8c-2.7,0-5.4,0-8.4,0
	c1-1.4,1.8-2.6,2.7-3.8c7.7-10.8,15.5-21.6,23.2-32.4c0.2-0.3,0.4-0.6,0.5-0.9c0-0.1,0.1-0.1,0.1-0.2
	C210.8,125.9,210.7,125.9,210.6,125.9z M204.4,120.4c4.2-0.2,8.1-1.4,11.1-3.8c6.1-4.9,8.5-11.4,7.9-18.9c-0.4-5.5-3.7-9.2-8.7-10.4
	c-5.2-1.2-10.2-0.4-14.5,2.8c-6.5,4.8-9,11.6-8.4,19.4c0.4,5,3,8.6,8,10.1C201.3,120.1,202.9,120.2,204.4,120.4z"/>
<path class="st2" d="M13.5,101.8c0.5-1.7,0.8-3.3,1.4-4.8c4-9.9,11.5-15.5,21.9-17.3c4.8-0.9,9.6-0.6,14.3,0.9
	c7.4,2.4,11.5,8.2,11.6,15.9c0.1,7-2.3,13.1-7.1,18.1c-5.3,5.5-10.8,10.9-16.3,16.3c-8,7.9-16,15.7-24.1,23.5
	c-0.3,0.3-0.7,0.4-1,0.7c0.1,0.1,0.2,0.3,0.3,0.4c12.5,0,25,0,37.7,0c-0.5,2.6-0.9,5-1.4,7.4c-16.3,0-32.5,0-48.8,0
	c0.5-2.5,0.9-4.8,1.4-7.2c0.1-0.4,0.6-0.8,0.9-1.1c13.8-13.5,27.6-26.9,41.4-40.4c3.2-3.1,6-6.4,7.2-10.8c0.7-2.6,1.1-5.2,0.6-7.9
	c-0.8-4.4-3.5-7.2-7.7-8.3c-5-1.3-10-0.8-14.6,1.7c-4.7,2.5-7.3,6.7-8.4,11.7c-0.2,0.7-0.4,1-1.2,1C19,101.8,16.4,101.8,13.5,101.8z
	"/>
<path class="st2" d="M144,163.1c4.3-24.5,8.7-49,13-73.4c-0.1-0.1-0.1-0.1-0.2-0.2c-5.8,4.4-11.6,8.8-17.7,13.4
	c0.4-2.3,0.9-4.3,1-6.3c0.2-2.5,1.4-4,3.4-5.4c4.9-3.4,9.6-7.1,14.4-10.7c0.4-0.3,1.1-0.5,1.6-0.6c2.5-0.1,4.9,0,7.6,0
	c-0.4,2.3-0.8,4.4-1.2,6.6c-2,11.3-4,22.5-6,33.8c-1.7,9.9-3.5,19.8-5.3,29.7c-0.7,4-1.4,8.1-2.1,12.1c-0.1,0.5-0.1,1-0.8,1
	C149.2,163.1,146.7,163.1,144,163.1z"/>
<path class="st3" d="M31.9,45.9c2.6,5.6,5.3,11.1,8,16.8c-1,0-1.9,0.1-2.8,0c-0.3,0-0.7-0.4-0.9-0.8c-2.3-4.9-4.6-9.9-6.9-14.8
	c-0.3-0.6-0.6-0.8-1.3-0.8c-2.6,0-5.2,0-7.9,0c-1,5.5-1.9,10.9-2.9,16.4c-0.9,0-1.7,0-2.7,0c2.8-15.8,5.6-31.5,8.4-47.4
	c1.4,0,2.8,0,4.2,0c2.3,0,4.6,0,7,0c7.9,0,13.8,6.9,12.5,14.7c-1.4,8.1-6.3,13.1-13.9,15.7C32.3,45.8,32.2,45.8,31.9,45.9z M25,18.2
	c-1.5,8.3-3,16.8-4.5,25.4c2.5,0,5,0,7.4,0c8.3,0,14.8-5.8,15.9-14c0.7-5.5-3.2-10.8-8.6-11.4C31.8,17.9,28.5,18.2,25,18.2z"/>
<path class="st3" d="M131.6,46.3c-1,5.5-1.9,10.9-2.9,16.4c-0.9,0-1.7,0-2.7,0c2.8-15.8,5.6-31.5,8.4-47.4c1.3,0,2.6,0,3.9,0
	c2.4,0,4.9,0,7.3,0c7.9,0,13.8,6.9,12.5,14.7c-1.4,8.1-6.3,13.1-13.9,15.7c-0.1,0-0.2,0.1-0.3,0.1c-0.1,0-0.1,0.1-0.3,0.2
	c1.3,2.8,2.6,5.6,4,8.4c1.3,2.8,2.6,5.5,4,8.4c-1,0-1.9,0.1-2.8,0c-0.3,0-0.7-0.4-0.9-0.8c-2.3-4.9-4.6-9.9-6.9-14.8
	c-0.3-0.6-0.6-0.8-1.3-0.8C137,46.3,134.4,46.3,131.6,46.3z M132.1,43.6c2.6,0,5,0,7.4,0c8.2,0,14.8-5.8,15.9-14
	c0.7-5.5-3.2-10.7-8.7-11.3c-3.3-0.3-6.7-0.1-10.2-0.1C135.1,26.6,133.6,35,132.1,43.6z"/>
<path class="st4" d="M53.9,37.7c7.1,0,14,0,21.1,0c-0.1,0.8-0.2,1.6-0.4,2.3c-0.1,0.2-0.6,0.4-1,0.4c-4.5,0-9.1,0-13.6,0
	c-2.2,0-4.3,0-6.6,0C52.2,47,51.1,53.4,49.9,60C57,60,64,60,71,60c-0.2,0.9-0.3,1.8-0.5,2.6c-7.9,0-15.8,0-23.8,0
	c2.8-15.8,5.6-31.5,8.4-47.3c7.9,0,15.8,0,23.8,0c-0.2,0.9-0.3,1.7-0.5,2.6c-7,0-14,0-21.1,0C56.2,24.5,55,31,53.9,37.7z"/>
<path class="st3" d="M166.7,15.4c1,0,1.8,0,2.7,0c-0.7,3.7-1.3,7.3-1.9,11c-1.3,7.3-2.6,14.6-3.9,21.9c-1.2,7.1,4.7,13.1,11.9,12.2
	c7.4-0.9,12.7-6.2,14-14c1.8-10.3,3.6-20.6,5.5-31c0.9,0,1.7,0,2.7,0c-0.3,2-0.7,3.9-1,5.9c-1.6,9.1-3.1,18.2-4.9,27.2
	c-1.1,5.6-4.7,9.4-9.4,12.2c-4,2.4-8.4,3.1-13,1.7c-5.6-1.6-9.4-7.1-8.7-12.8c0.6-4.7,1.5-9.3,2.3-13.9
	C164.3,29,165.5,22.2,166.7,15.4z"/>
<path class="st3" d="M117.9,55.1c0.6,0.6,1.1,1.2,1.7,1.8c-3.5,2.7-7.2,4.7-11.5,5.6c-5.7,1.2-11.4,1.1-16.5-1.9
	c-7-4.2-10.3-10.5-9.9-18.6c0.8-15.2,14-25.2,24-26.8c7.1-1.1,13.6-0.3,19.2,4.8c0.3,0.3,0.7,0.6,1.1,1c-0.8,0.7-1.6,1.3-2.3,1.9
	c-0.5-0.4-0.9-0.8-1.3-1.2c-4.2-3.6-9.2-4.7-14.6-4.1C97,18.8,87.5,27.3,85.1,37.9c-1.8,7.9,0.7,15.3,6.9,19.6
	c4.2,2.9,8.9,3.5,13.8,2.9C110.3,59.8,114.2,58,117.9,55.1z"/>
<path class="st3" d="M228.1,18c-4.1,0-8,0-12,0c0.2-0.9,0.3-1.7,0.5-2.6c8.9,0,17.8,0,26.8,0c-0.2,0.9-0.3,1.7-0.5,2.6
	c-4,0-8,0-12,0c-2.6,14.9-5.3,29.8-7.9,44.7c-0.9,0-1.8,0-2.7,0C222.9,47.8,225.5,33,228.1,18z"/>
<path class="st3" d="M201.6,62.7c-0.9,0-1.8,0-2.7,0c2.8-15.8,5.6-31.5,8.4-47.3c0.9,0,1.8,0,2.7,0
	C207.2,31.1,204.4,46.9,201.6,62.7z"/>
</svg>
