<?xml version="1.0" encoding="utf-8"?>
<!-- Generator: Adobe Illustrator 22.0.1, SVG Export Plug-In . SVG Version: 6.00 Build 0)  -->
<svg version="1.1" xmlns="http://www.w3.org/2000/svg" xmlns:xlink="http://www.w3.org/1999/xlink" x="0px" y="0px"
	 viewBox="0 0 618.3664 80.7731" style="enable-background:new 0 0 618.3664 80.7731;" xml:space="preserve">
<style type="text/css">
	.st0{display:none;}
	.st1{display:inline;fill:none;stroke:#000000;stroke-miterlimit:10;}
	.st2{fill:#1E1E1E;}
	.st3{fill:#262626;}
	.st4{fill:#3F3F3F;}
	.st5{fill:#565656;}
	.st6{fill:#636363;}
	.st7{fill:#3A3631;}
	.st8{fill:#332206;}
	.st9{fill:#D3830D;}
	.st10{fill:#C0DD57;}
	.st11{fill:#EAF74B;}
	.st12{fill:#FF4D4D;}
	.st13{fill:#F7AA4F;}
	.st14{fill:#4CCAD8;}
	.st15{fill:#ADDB49;}
	.st16{fill:#CDE576;}
	.st17{fill:#FC7C7C;}
	.st18{fill:#6AE0E5;}
	.st19{fill:#F7C186;}
	.st20{fill:#F7F79F;}
	.st21{fill:#4848A0;}
	.st22{fill:#4268BC;}
	.st23{fill:#2D2D77;}
	.st24{fill:#4887CC;}
	.st25{fill:#70B9EF;}
	.st26{fill:#7878BA;}
	.st27{fill:#6260A8;}
	.st28{fill:#ABDCF4;}
	.st29{fill:#72AFDD;}
	.st30{fill:#7499D1;}
	.st31{fill:#FC7777;}
	.st32{fill:#C12929;}
	.st33{fill:#F99898;}
	.st34{fill:#F9AD98;}
	.st35{fill:#C15656;}
	.st36{fill:#FFD0C5;}
	.st37{fill:#F9BDBD;}
	.st38{fill:#FF9999;}
	.st39{fill:none;stroke:#0C0B0B;stroke-width:0.2135;stroke-miterlimit:10;}
	.st40{fill:none;stroke:#0C0B0B;stroke-width:0.2371;stroke-miterlimit:10;}
	.st41{fill:none;stroke:#0C0B0B;stroke-width:0.2071;stroke-miterlimit:10;}
	.st42{fill:none;stroke:#0C0B0B;stroke-width:1.9398;stroke-miterlimit:10;}
	.st43{fill:#0C0B0B;}
</style>
<g id="Layer_1" class="st0">
	<line class="st1" x1="-107.2277" y1="80.5001" x2="796.8046" y2="80.5001"/>
</g>
<g id="Layer_3">
</g>
<g id="Layer_6">
</g>
<g id="Layer_2">
</g>
<g id="Layer_5">
</g>
<g id="Layer_4">
	<path class="st2" d="M60.1164,75.2743v-66h22.6667v61.3333h12.6667V47.941h18.6667v27.3333h17.3333v-48h16v43.3333h9.3333V19.2743
		h16v61.3333h12V-0.059h25.3333v76.6667h4.6667V25.2743h20V73.941v-14h15.3333v13.3333h10v-33h20.6667v31h8.6667V-0.059h20.6667v66
		h8.6667v-56h22v67.3333h17.6667V43.941h11.6667v28h19.3333v-36l6.8333,6.8333l9.3333-9.3333v33.8333h17.8333V26.6077h16v44h13.3333
		v-46h17.3333V55.941h11.3333V18.6077h11.3333V53.941h28v-52h28v19.3333h10.6666v19l12.5,12.5V75.941l9.0834-9.0833V29.2743h15.0833
		v24h22v27.3333h-558V75.2743z"/>
	<path class="st3" d="M0.4497,80.6077V48.2743h8v32.3333h13.3333V41.2743h8.6667v39.3333h13.3333V57.941h13.3333v22.6667h8V55.941
		l12.6667,0.6667v24h27.3333V15.2743h14.6667v65.3333V37.2743h12.6667v43.3333h13.3333V39.941h8v40.6667h16.6667v-40l7.3333-0.6667
		v40.6667h27.3333V57.941h72v22.6667h16.6667V15.2743h6.6667l13.3333,62l8.6667,3.3333v-58l11.3333,2.6667v55.3333h8.6667V55.941h12
		v24.6667h9.3333V52.941h8v27.6667h8V33.2743h13.3333v47.3333h10.6667V39.2743h14v20v21.3333h6.6667l-3.3333-12l32.6667,0.6667
		l-2.6667,11.3333h7.3333V48.2743h8.6667v32.3333V65.941h9.3333v14.6667h13.3333V65.941h28v14.6667h9.3333V25.2743h16v55.3333
		h7.3333l0.0001-50.6667h16l-0.0001,50.6667H0.4497z"/>
	<path class="st4" d="M52.1164,80.6077V29.941h16v50.6667h7.3333V25.2743h16v55.3333h9.3333V65.941h28v14.6667h13.3333V65.941
		h9.3333v14.6667V48.2743h8.6667v32.3333h7.3333l-2.6667-11.3333l32.6667-0.6667l-3.3333,12h6.6667V59.2743v-20h14v41.3333h10.6667
		V33.2743h13.3333v47.3333h8V52.941h8v27.6667h9.3333V55.941h12v24.6667h8.6667V25.2743l11.3333-2.6667v58l8.6667-3.3333l13.3333-62
		h6.6667v65.3333h16.6667V57.941h72v22.6667h27.3333V39.941l7.3333,0.6667v40h16.6667V39.941h8v40.6667h13.3333V37.2743h12.6667
		v43.3333V15.2743h14.6666v65.3333h27.3334v-24l12.6666-0.6667v24.6667h8V57.941h13.3334v22.6667h13.3333V41.2743h8.6667v39.3333
		h13.3333V48.2743h8v32.3333H52.1164z"/>
	<polygon class="st5" points="555.7831,80.5001 555.7831,62.6668 547.7831,62.6668 547.7831,80.5001 533.4497,80.5001 
		533.4498,62.6668 525.6164,62.6668 525.6164,79.1668 525.6164,80.5001 520.6164,80.5001 520.6164,75.8335 516.9498,75.8335 
		516.9498,80.3926 514.6164,80.3926 514.6164,74.5001 511.4497,74.5001 511.4497,80.5001 503.6164,80.5001 503.6164,72.3335 
		498.1164,72.3335 498.1164,80.3926 492.6164,80.3926 492.6164,76.3335 483.1164,76.3335 483.1164,80.5001 476.6164,80.5001 
		476.6164,69.3335 473.9497,69.3335 473.9497,80.3926 466.1164,80.3926 466.1164,67.5001 462.4497,67.5001 462.4497,80.3926 
		453.9497,80.3926 453.9497,73.0001 451.4497,73.0001 451.4497,77.3881 448.2831,77.3881 448.2831,80.3926 424.6164,80.3926 
		424.6164,75.6668 420.2831,75.6668 420.2831,70.8335 415.9497,70.8335 415.9497,75.1668 411.4497,75.1668 411.4497,78.5001 
		406.7831,78.5001 406.7831,80.5001 400.6164,80.5001 400.6164,74.1668 398.4497,74.1668 398.4497,80.5001 393.2831,80.5001 
		393.2831,73.8335 390.7831,73.8335 390.7831,80.5001 383.1164,80.5001 383.1164,74.0001 379.9497,74.0001 379.9497,80.5001 
		310.6164,80.5001 310.6164,75.1668 307.6164,75.1668 307.6164,80.1668 303.4497,80.1668 303.4497,75.8335 300.6164,75.8335 
		300.6164,80.1668 296.2831,80.1668 296.2831,72.8335 293.1164,72.8335 293.1164,80.5001 278.6164,80.5001 278.6164,73.0001 
		274.6164,73.0001 274.6164,80.3926 219.9497,80.3926 219.9497,68.1668 216.9497,68.1668 216.9497,80.3926 202.6164,80.3926 
		202.6164,73.1668 197.1164,73.1668 197.1164,80.5001 173.1164,80.5001 173.1164,67.1668 164.7831,67.1668 164.7831,80.5001 
		143.4497,80.5001 143.4497,76.0001 140.9497,76.0001 140.9497,80.3926 135.7831,80.3926 135.7831,74.0001 133.4497,74.0001 
		133.4497,79.5001 128.1164,79.5001 128.1164,72.5001 125.1164,72.5001 125.1164,80.5001 115.7831,80.5001 115.7831,74.8335 
		111.6164,74.8335 111.6164,80.5001 93.9497,80.5001 93.9497,70.5001 89.2831,70.5001 89.2831,80.5001 84.7831,80.5001 
		84.7831,67.0001 83.0331,68.7501 83.0331,80.5001 79.1164,80.5001 79.1164,71.5835 75.1164,71.5835 75.1164,68.1668 
		71.2831,68.1668 71.2831,80.3926 65.2831,80.3926 65.2831,73.1668 61.9497,73.1668 61.9497,80.5001 53.7831,80.5001 
		53.7831,71.5835 51.2414,69.0418 47.7831,69.0418 47.7831,80.5001 41.6164,80.5001 41.6164,72.8335 38.4497,72.8335 
		38.4497,80.3335 32.4497,80.3335 32.4497,71.5835 29.1164,71.5835 29.1164,80.5001 22.7831,80.5001 22.7831,75.0001 
		19.1164,75.0001 19.1164,80.5001 16.2831,80.5001 16.2831,75.6668 10.9497,75.6668 10.9497,80.3335 	"/>
	<path class="st6" d="M62.9497,80.6077V62.7743h8v17.8333h14.3333V62.7743h7.8333v16.5v1.3333h5V75.941h3.6667v4.5591h2.3333
		v-5.8925h3.1667v6h7.8333V72.441h5.5v8.0591h5.5V76.441h9.5v4.1667h6.5V69.441h2.6667v11.0591h7.8333V67.6077h3.6667v12.8925h8.5
		v-7.3925h2.5v4.388h3.1667v3.0045h23.6667v-4.7258h4.3333V70.941h4.3333v4.3333h4.5v3.3333h4.6667v2h6.1667v-6.3333h2.1667v6.3333
		h5.1667V73.941h2.5v6.6667h7.6667v-6.5h3.1667v6.5h69.3333v-5.3333h3v5h4.1667V75.941h2.8333v4.3333h4.3333V72.941h3.1667v7.6667
		h14.5v-7.5h4v7.3925h54.6667V68.2743h3v12.2258h14.3333v-7.2258h5.5v7.3333h24V67.2743h8.3333v13.3333h21.3333v-4.5h2.5v4.3925
		h5.1667v-6.3925h2.3333v5.5h5.3333v-7h3v8h9.3333V74.941h4.1667v5.6667h17.6667v-10h4.6667v10h4.5v-13.5l1.75,1.75v11.75h3.9166
		V71.691h4v-3.4167h3.8334v12.2258h5.9999v-7.2258h3.3334v7.3333h8.1667V71.691l2.5416-2.5417h3.4584v11.4583h6.1666V72.941h3.1667
		v7.5h6v-8.75h3.3333v8.9167h6.3334v-5.5h3.6666v5.5h2.8334v-4.8333h5.3333v4.6667L62.9497,80.6077z"/>
</g>
<g id="Layer_8">
	<g id="Layer_9">
	</g>
	<g id="Layer_10">
	</g>
</g>
<g id="Layer_12">
</g>
<g id="Layer_13">
</g>
<g id="Layer_11">
</g>
</svg>
