<svg xmlns="http://www.w3.org/2000/svg" viewBox="0 0 751.2233 287.3426"><defs><style>.cls-1{fill:#1e1e1e;}.cls-2{fill:#262626;}.cls-3{fill:#3f3f3f;}.cls-4{fill:#565656;}.cls-5{fill:#636363;}.cls-6{fill:#3a3631;}.cls-7{fill:#332206;}.cls-8{fill:#d3830d;}.cls-9{fill:#c0dd57;}.cls-10{fill:#eaf74b;}.cls-11{fill:#ff4d4d;}.cls-12{fill:#f7aa4f;}.cls-13{fill:#4ccad8;}.cls-14{fill:#addb49;}.cls-15{fill:#cde576;}.cls-16{fill:#fc7c7c;}.cls-17{fill:#6ae0e5;}.cls-18{fill:#f7c186;}.cls-19{fill:#f7f79f;}.cls-20{fill:#4848a0;}.cls-21{fill:#4268bc;}.cls-22{fill:#2d2d77;}.cls-23{fill:#4887cc;}.cls-24{fill:#70b9ef;}.cls-25{fill:#7878ba;}.cls-26{fill:#6260a8;}.cls-27{fill:#abdcf4;}.cls-28{fill:#72afdd;}.cls-29{fill:#7499d1;}.cls-30{fill:#fc7777;}.cls-31{fill:#c12929;}.cls-32{fill:#f99898;}.cls-33{fill:#f9ad98;}.cls-34{fill:#c15656;}.cls-35{fill:#ffd0c5;}.cls-36{fill:#f9bdbd;}.cls-37{fill:#f99;}.cls-38,.cls-39,.cls-40,.cls-41{fill:none;stroke:#0c0b0b;stroke-miterlimit:10;}.cls-38{stroke-width:0.2135px;}.cls-39{stroke-width:0.2371px;}.cls-40{stroke-width:0.2071px;}.cls-41{stroke-width:1.9398px;}.cls-42{fill:#0c0b0b;}</style></defs><title>scroll</title><g id="Layer_3" data-name="Layer 3"><polygon class="cls-1" points="72.009 282.009 72.009 216.009 94.675 216.009 94.675 277.343 107.342 277.343 107.342 254.676 126.009 254.676 126.009 282.009 143.342 282.009 143.342 234.009 159.342 234.009 159.342 277.343 168.675 277.343 168.675 226.009 184.675 226.009 184.675 287.343 196.675 287.343 196.675 206.676 222.009 206.676 222.009 283.343 226.675 283.343 226.675 232.009 246.675 232.009 246.675 280.676 246.675 266.676 262.009 266.676 262.009 280.009 272.009 280.009 272.009 247.009 292.675 247.009 292.675 278.009 301.342 278.009 301.342 206.676 322.009 206.676 322.009 272.676 330.675 272.676 330.675 216.676 352.675 216.676 352.675 284.009 370.342 284.009 370.342 250.676 382.009 250.676 382.009 278.676 401.342 278.676 401.342 242.676 408.175 249.509 417.509 240.176 417.509 274.009 435.342 274.009 435.342 233.343 451.342 233.343 451.342 277.343 464.675 277.343 464.675 231.343 482.009 231.343 482.009 262.676 493.342 262.676 493.342 225.343 504.675 225.343 504.675 260.676 532.675 260.676 532.675 208.676 560.675 208.676 560.675 228.009 571.342 228.009 571.342 247.009 583.842 259.509 583.842 282.676 592.925 273.593 592.925 236.009 608.009 236.009 608.009 260.009 630.009 260.009 630.009 287.343 72.009 287.343 72.009 282.009"/></g><g id="Layer_6" data-name="Layer 6"><polygon class="cls-2" points="578.342 287.343 578.342 236.676 562.342 236.676 562.342 287.343 555.009 287.343 555.009 232.009 539.009 232.009 539.009 287.343 529.675 287.343 529.675 272.676 501.675 272.676 501.675 287.343 488.342 287.343 488.342 272.676 479.009 272.676 479.009 287.343 479.009 255.009 470.342 255.009 470.342 287.343 463.009 287.343 465.675 276.009 433.009 275.343 436.342 287.343 429.675 287.343 429.675 266.009 429.675 246.009 415.675 246.009 415.675 287.343 405.009 287.343 405.009 240.009 391.675 240.009 391.675 287.343 383.675 287.343 383.675 259.676 375.675 259.676 375.675 287.343 366.342 287.343 366.342 262.676 354.342 262.676 354.342 287.343 345.675 287.343 345.675 232.009 334.342 229.343 334.342 287.343 325.675 284.009 312.342 222.009 305.675 222.009 305.675 287.343 289.009 287.343 289.009 264.676 217.009 264.676 217.009 287.343 189.675 287.343 189.675 246.676 182.342 247.343 182.342 287.343 165.675 287.343 165.675 246.676 157.675 246.676 157.675 287.343 144.342 287.343 144.342 244.009 131.675 244.009 131.675 287.343 131.675 222.009 117.009 222.009 117.009 287.343 89.675 287.343 89.675 263.343 77.009 262.676 77.009 287.343 69.009 287.343 69.009 264.676 55.675 264.676 55.675 287.343 42.342 287.343 42.342 248.009 33.675 248.009 33.675 287.343 20.342 287.343 20.342 255.009 12.342 255.009 12.342 287.343 578.342 287.343"/></g><g id="Layer_2" data-name="Layer 2"><polygon class="cls-3" points="64.009 287.343 64.009 236.676 80.009 236.676 80.009 287.343 87.342 287.343 87.342 232.009 103.342 232.009 103.342 287.343 112.675 287.343 112.675 272.676 140.675 272.676 140.675 287.343 154.009 287.343 154.009 272.676 163.342 272.676 163.342 287.343 163.342 255.009 172.009 255.009 172.009 287.343 179.342 287.343 176.675 276.009 209.342 275.343 206.009 287.343 212.675 287.343 212.675 266.009 212.675 246.009 226.675 246.009 226.675 287.343 237.342 287.343 237.342 240.009 250.675 240.009 250.675 287.343 258.675 287.343 258.675 259.676 266.675 259.676 266.675 287.343 276.009 287.343 276.009 262.676 288.009 262.676 288.009 287.343 296.675 287.343 296.675 232.009 308.009 229.343 308.009 287.343 316.675 284.009 330.009 222.009 336.675 222.009 336.675 287.343 353.342 287.343 353.342 264.676 425.342 264.676 425.342 287.343 452.675 287.343 452.675 246.676 460.009 247.343 460.009 287.343 476.675 287.343 476.675 246.676 484.675 246.676 484.675 287.343 498.009 287.343 498.009 244.009 510.675 244.009 510.675 287.343 510.675 222.009 525.342 222.009 525.342 287.343 552.675 287.343 552.675 263.343 565.342 262.676 565.342 287.343 573.342 287.343 573.342 264.676 586.675 264.676 586.675 287.343 600.009 287.343 600.009 248.009 608.675 248.009 608.675 287.343 622.009 287.343 622.009 255.009 630.009 255.009 630.009 287.343 64.009 287.343"/></g><g id="Layer_5" data-name="Layer 5"><polygon class="cls-4" points="567.675 287.235 567.675 269.402 559.675 269.402 559.675 287.235 545.342 287.235 545.342 269.402 537.509 269.402 537.509 285.902 537.509 287.235 532.509 287.235 532.509 282.568 528.842 282.568 528.842 287.128 526.509 287.128 526.509 281.235 523.342 281.235 523.342 287.235 515.509 287.235 515.509 279.068 510.009 279.068 510.009 287.128 504.509 287.128 504.509 283.068 495.009 283.068 495.009 287.235 488.509 287.235 488.509 276.068 485.842 276.068 485.842 287.128 478.009 287.128 478.009 274.235 474.342 274.235 474.342 287.128 465.842 287.128 465.842 279.735 463.342 279.735 463.342 284.123 460.175 284.123 460.175 287.128 436.509 287.128 436.509 282.402 432.175 282.402 432.175 277.568 427.842 277.568 427.842 281.902 423.342 281.902 423.342 285.235 418.675 285.235 418.675 287.235 412.509 287.235 412.509 280.902 410.342 280.902 410.342 287.235 405.175 287.235 405.175 280.568 402.675 280.568 402.675 287.235 395.009 287.235 395.009 280.735 391.842 280.735 391.842 287.235 322.509 287.235 322.509 281.902 319.509 281.902 319.509 286.902 315.342 286.902 315.342 282.568 312.509 282.568 312.509 286.902 308.175 286.902 308.175 279.568 305.009 279.568 305.009 287.235 290.509 287.235 290.509 279.735 286.509 279.735 286.509 287.128 231.842 287.128 231.842 274.902 228.842 274.902 228.842 287.128 214.509 287.128 214.509 279.902 209.009 279.902 209.009 287.235 185.009 287.235 185.009 273.902 176.675 273.902 176.675 287.235 155.342 287.235 155.342 282.735 152.842 282.735 152.842 287.128 147.675 287.128 147.675 280.735 145.342 280.735 145.342 286.235 140.009 286.235 140.009 279.235 137.009 279.235 137.009 287.235 127.675 287.235 127.675 281.568 123.509 281.568 123.509 287.235 105.842 287.235 105.842 277.235 101.175 277.235 101.175 287.235 96.675 287.235 96.675 273.735 94.925 275.485 94.925 287.235 91.009 287.235 91.009 278.318 87.009 278.318 87.009 274.902 83.175 274.902 83.175 287.128 77.175 287.128 77.175 279.902 73.842 279.902 73.842 287.235 65.675 287.235 65.675 278.318 63.134 275.777 59.675 275.777 59.675 287.235 53.509 287.235 53.509 279.568 50.342 279.568 50.342 287.068 44.342 287.068 44.342 278.318 41.009 278.318 41.009 287.235 34.675 287.235 34.675 281.735 31.009 281.735 31.009 287.235 28.175 287.235 28.175 282.402 22.842 282.402 22.842 287.068 567.675 287.235"/></g><g id="Layer_4" data-name="Layer 4"><polygon class="cls-5" points="74.842 287.343 74.842 269.509 82.842 269.509 82.842 287.343 97.175 287.343 97.175 269.509 105.009 269.509 105.009 286.009 105.009 287.343 110.009 287.343 110.009 282.676 113.675 282.676 113.675 287.235 116.009 287.235 116.009 281.343 119.175 281.343 119.175 287.343 127.009 287.343 127.009 279.176 132.509 279.176 132.509 287.235 138.009 287.235 138.009 283.176 147.509 283.176 147.509 287.343 154.009 287.343 154.009 276.176 156.675 276.176 156.675 287.235 164.509 287.235 164.509 274.343 168.175 274.343 168.175 287.235 176.675 287.235 176.675 279.843 179.175 279.843 179.175 284.231 182.342 284.231 182.342 287.235 206.009 287.235 206.009 282.509 210.342 282.509 210.342 277.676 214.675 277.676 214.675 282.009 219.175 282.009 219.175 285.343 223.842 285.343 223.842 287.343 230.009 287.343 230.009 281.009 232.175 281.009 232.175 287.343 237.342 287.343 237.342 280.676 239.842 280.676 239.842 287.343 247.509 287.343 247.509 280.843 250.675 280.843 250.675 287.343 320.009 287.343 320.009 282.009 323.009 282.009 323.009 287.009 327.175 287.009 327.175 282.676 330.009 282.676 330.009 287.009 334.342 287.009 334.342 279.676 337.509 279.676 337.509 287.343 352.009 287.343 352.009 279.843 356.009 279.843 356.009 287.235 410.675 287.235 410.675 275.009 413.675 275.009 413.675 287.235 428.009 287.235 428.009 280.009 433.509 280.009 433.509 287.343 457.509 287.343 457.509 274.009 465.842 274.009 465.842 287.343 487.175 287.343 487.175 282.843 489.675 282.843 489.675 287.235 494.842 287.235 494.842 280.843 497.175 280.843 497.175 286.343 502.509 286.343 502.509 279.343 505.509 279.343 505.509 287.343 514.842 287.343 514.842 281.676 519.009 281.676 519.009 287.343 536.675 287.343 536.675 277.343 541.342 277.343 541.342 287.343 545.842 287.343 545.842 273.843 547.592 275.593 547.592 287.343 551.509 287.343 551.509 278.426 555.509 278.426 555.509 275.009 559.342 275.009 559.342 287.235 565.342 287.235 565.342 280.009 568.675 280.009 568.675 287.343 576.842 287.343 576.842 278.426 579.384 275.884 582.842 275.884 582.842 287.343 589.009 287.343 589.009 279.676 592.175 279.676 592.175 287.176 598.175 287.176 598.175 278.426 601.509 278.426 601.509 287.343 607.842 287.343 607.842 281.843 611.509 281.843 611.509 287.343 614.342 287.343 614.342 282.509 619.675 282.509 619.675 287.176 74.842 287.343"/></g><g id="Layer_8" data-name="Layer 8"><rect class="cls-6" x="683.3057" y="139.9467" width="22.416" height="4.125"/><path class="cls-7" d="M468.462,92.3627H459.51c0,4.2,1.7416,10.5,1.7416,10.5H475.618s1.7416-6.3,1.7416-10.5h-8.9525" transform="translate(226.0921 70.0538)"/><polygon class="cls-8" points="686.6 162.384 682.877 141.682 683.643 141.064 687.475 162.384 686.6 162.384"/><polygon class="cls-8" points="702.642 162.412 706.361 141.709 705.594 141.092 701.767 162.412 702.642 162.412"/><polygon class="cls-8" points="698.901 162.384 698.899 138.167 699.563 138.304 699.565 162.384 698.901 162.384"/><polygon class="cls-8" points="690.171 162.414 690.169 138.197 689.505 138.334 689.507 162.414 690.171 162.414"/><path class="cls-9" d="M435.3738,49.8889a148.9611,148.9611,0,0,0,20.0786,20.9835q.6678.3939,1.3321.7553.3642-.3191.7665-.6173A16.4888,16.4888,0,0,1,463.5,68.3391q.4521-.1089.9094-.1974c.006.1087-3.4017-7.2727-6.7935-20.8706A161.3011,161.3011,0,0,0,435.3738,49.8889Z" transform="translate(226.0921 70.0538)"/><path class="cls-10" d="M457.6156,47.2711c3.3918,13.5979,6.8,20.9793,6.7935,20.8706a21.8136,21.8136,0,0,1,8.0654-.0287h0c-.0054.1066,3.3415-7.1481,6.7095-20.5654A179.9505,179.9505,0,0,0,457.6156,47.2711Z" transform="translate(226.0921 70.0538)"/><path class="cls-11" d="M435.3738,49.8889q-.9014.171-1.8011.351c6.8175,8.8785,14.4965,16.2774,21.88,20.6325A148.9611,148.9611,0,0,1,435.3738,49.8889Z" transform="translate(226.0921 70.0538)"/><path class="cls-12" d="M500.9991,50.2994a208.6744,208.6744,0,0,0-21.815-2.7518c-3.368,13.4173-6.7149,20.672-6.7095,20.5654a16.9928,16.9928,0,0,1,7.031,2.91q.3924.2921.749.6043A151.4693,151.4693,0,0,0,500.9991,50.2994Z" transform="translate(226.0921 70.0538)"/><path class="cls-11" d="M419.0723-23.0326c-1.29.3837-2.5783.7789-3.8634,1.1972-.37,1.0338-.7183,2.078-1.0287,3.1386a56.4107,56.4107,0,0,0-2.0869,11.3156q-.1842,2.2832-.1854,4.615A54.4846,54.4846,0,0,0,413.21,8.6047,89.5066,89.5066,0,0,0,419.3593,26.67,122.0176,122.0176,0,0,0,429.4622,44.551c.5831-.1344,1.1671-.2625,1.7513-.39C412.682,16.9033,414.23-7.2174,419.0723-23.0326Z" transform="translate(226.0921 70.0538)"/><path class="cls-13" d="M480.2546,71.6277c7.6627-4.1559,15.7243-11.7292,22.8684-20.9418-.7088-.1334-1.4164-.26-2.1239-.3865A151.4693,151.4693,0,0,1,480.2546,71.6277Z" transform="translate(226.0921 70.0538)"/><path class="cls-13" d="M505.2712,44.5243c.6791.1345,1.3592.2743,2.0395.4152A122.1346,122.1346,0,0,0,517.68,26.67a89.5133,89.5133,0,0,0,6.1495-18.0655,54.4909,54.4909,0,0,0,1.3019-11.3709q0-2.3307-.1854-4.615a56.4037,56.4037,0,0,0-2.0869-11.3156c-.2521-.8614-.544-1.7051-.8354-2.549q-1.8857-.5384-3.7663-1.0418C522.869-6.32,523.8932,17.6031,505.2712,44.5243Z" transform="translate(226.0921 70.0538)"/><path class="cls-10" d="M484.5987-39.0132c-.6022-6.0344-1.4092-12.274-2.4638-18.7168A56.7387,56.7387,0,0,0,468.52-59.378a56.7072,56.7072,0,0,0-13.7929,1.7c-1.02,6.2409-1.81,12.2926-2.4052,18.15A177.263,177.263,0,0,1,484.5987-39.0132Z" transform="translate(226.0921 70.0538)"/><path class="cls-13" d="M516.23-33.2011a56.8579,56.8579,0,0,0-7.68-9.5956,54.4856,54.4856,0,0,1,5.3148,9.0148C514.6536-33.5857,515.44-33.4062,516.23-33.2011Z" transform="translate(226.0921 70.0538)"/><path class="cls-14" d="M452.1506-56.9754a56.51,56.51,0,0,0-20.7814,11.4911c-.823.7164-1.6118,1.47-2.392,2.2321a66.5442,66.5442,0,0,0-5.2029,8.5422,159.8626,159.8626,0,0,1,28.5472-4.8172c.595-5.8578,1.3847-11.91,2.4052-18.15C453.8609-57.4608,453-57.2316,452.1506-56.9754Z" transform="translate(226.0921 70.0538)"/><path class="cls-11" d="M428.4891-42.7967a56.8784,56.8784,0,0,0-7.1158,8.7133c.7982-.2244,1.601-.4153,2.401-.6266a66.5442,66.5442,0,0,1,5.2029-8.5422C428.818-43.0967,428.6465-42.9541,428.4891-42.7967Z" transform="translate(226.0921 70.0538)"/><path class="cls-15" d="M452.3215-39.5272A159.8626,159.8626,0,0,0,423.7743-34.71a72.9939,72.9939,0,0,0-4.702,11.6774,159.3243,159.3243,0,0,1,32.38-6.0661Q451.7851-34.2031,452.3215-39.5272Z" transform="translate(226.0921 70.0538)"/><path class="cls-16" d="M423.7743-34.71c-.8.2113-1.6028.4022-2.401.6266a56.3833,56.3833,0,0,0-6.1644,12.248c1.2851-.4183,2.5735-.8135,3.8634-1.1972A72.9939,72.9939,0,0,1,423.7743-34.71Z" transform="translate(226.0921 70.0538)"/><path class="cls-17" d="M500.9991,50.2994c.7075.1264,1.4151.2531,2.1239.3865,1.4373-1.8534,2.8355-3.7746,4.1877-5.7464-.68-.1409-1.36-.2807-2.0395-.4152Q503.289,47.39,500.9991,50.2994Z" transform="translate(226.0921 70.0538)"/><path class="cls-16" d="M431.2135,44.161c-.5842.1275-1.1682.2556-1.7513.39q1.99,2.9256,4.1105,5.6889.8994-.1816,1.8011-.351Q433.1418,47.0038,431.2135,44.161Z" transform="translate(226.0921 70.0538)"/><path class="cls-18" d="M479.1841,47.5476a208.6744,208.6744,0,0,1,21.815,2.7518q2.2878-2.9082,4.2721-5.7751a213.2907,213.2907,0,0,0-24.5794-3.4414Q479.9483,44.519,479.1841,47.5476Z" transform="translate(226.0921 70.0538)"/><path class="cls-10" d="M485.4522-28.5539a177.2925,177.2925,0,0,0-34-.5448,254.7879,254.7879,0,0,0,4.66,69.8775,179.9576,179.9576,0,0,1,24.58.3041A254.359,254.359,0,0,0,485.4522-28.5539Z" transform="translate(226.0921 70.0538)"/><path class="cls-9" d="M451.4519-29.0987a159.3243,159.3243,0,0,0-32.38,6.0661c-4.8419,15.8152-6.39,39.9359,12.1412,67.1936a159.6731,159.6731,0,0,1,24.8987-3.3822A254.7879,254.7879,0,0,1,451.4519-29.0987Z" transform="translate(226.0921 70.0538)"/><path class="cls-18" d="M513.8648-33.7819a213.91,213.91,0,0,0-29.2661-5.2313q.5328,5.3409.8535,10.4593a217.8829,217.8829,0,0,1,32.805,6.2663A73.2785,73.2785,0,0,0,513.8648-33.7819Z" transform="translate(226.0921 70.0538)"/><path class="cls-12" d="M508.55-42.7967q-1.3342-1.3344-2.7554-2.5787a56.4621,56.4621,0,0,0-23.66-12.3546c1.0546,6.4428,1.8616,12.6824,2.4638,18.7168a213.91,213.91,0,0,1,29.2661,5.2313A54.4856,54.4856,0,0,0,508.55-42.7967Z" transform="translate(226.0921 70.0538)"/><path class="cls-17" d="M522.0235-21.2458A56.3359,56.3359,0,0,0,516.23-33.2011c-.79-.2051-1.5765-.3846-2.3653-.5808a73.2785,73.2785,0,0,1,4.3924,11.4943Q520.1382-21.7821,522.0235-21.2458Z" transform="translate(226.0921 70.0538)"/><path class="cls-12" d="M485.4522-28.5539a254.359,254.359,0,0,1-4.76,69.6368,213.2907,213.2907,0,0,1,24.5794,3.4414c18.622-26.9212,17.5978-50.8442,12.986-66.8119A217.8829,217.8829,0,0,0,485.4522-28.5539Z" transform="translate(226.0921 70.0538)"/><path class="cls-19" d="M452.3215-39.5272q-.5409,5.3247-.87,10.4285a177.2925,177.2925,0,0,1,34,.5448q-.3241-5.1179-.8535-10.4593A177.263,177.263,0,0,0,452.3215-39.5272Z" transform="translate(226.0921 70.0538)"/><path class="cls-19" d="M456.1122,40.7788c.4937,2.2982.9983,4.4671,1.5034,6.4923a179.9505,179.9505,0,0,1,21.5685.2765q.759-3.0243,1.5077-6.4647A179.9576,179.9576,0,0,0,456.1122,40.7788Z" transform="translate(226.0921 70.0538)"/><path class="cls-15" d="M431.2135,44.161q1.9323,2.8423,4.16,5.7279a161.3011,161.3011,0,0,1,22.2418-2.6178c-.5051-2.0252-1.01-4.1941-1.5034-6.4923A159.6731,159.6731,0,0,0,431.2135,44.161Z" transform="translate(226.0921 70.0538)"/></g><g id="Layer_12" data-name="Layer 12"><rect class="cls-6" x="397.3617" y="129.2709" width="22.416" height="4.125"/><path class="cls-7" d="M182.5181,81.6868h-8.9526c0,4.2,1.7417,10.5,1.7417,10.5h14.3669s1.7416-6.3,1.7416-10.5h-8.9525" transform="translate(226.0921 70.0538)"/><polygon class="cls-8" points="400.656 151.708 396.933 131.006 397.699 130.388 401.531 151.708 400.656 151.708"/><polygon class="cls-8" points="416.698 151.736 420.417 131.033 419.65 130.416 415.823 151.736 416.698 151.736"/><polygon class="cls-8" points="412.957 151.708 412.955 127.491 413.619 127.628 413.621 151.708 412.957 151.708"/><polygon class="cls-8" points="404.228 151.738 404.225 127.521 403.561 127.658 403.563 151.738 404.228 151.738"/><path class="cls-20" d="M149.43,39.2131a148.9654,148.9654,0,0,0,20.0785,20.9835q.6678.3939,1.3322.7552.3642-.3189.7665-.6172a16.4892,16.4892,0,0,1,5.9486-2.6714q.4521-.1088.9094-.1973c.0061.1087-3.4017-7.2728-6.7934-20.8707A161.2858,161.2858,0,0,0,149.43,39.2131Z" transform="translate(226.0921 70.0538)"/><path class="cls-21" d="M171.6717,36.5952c3.3917,13.5979,6.8,20.9794,6.7934,20.8707a21.812,21.812,0,0,1,8.0655-.0287h0c-.0053.1066,3.3416-7.1481,6.71-20.5655A179.97,179.97,0,0,0,171.6717,36.5952Z" transform="translate(226.0921 70.0538)"/><path class="cls-22" d="M149.43,39.2131q-.9014.1709-1.8012.3509c6.8176,8.8785,14.4966,16.2774,21.88,20.6326A148.9654,148.9654,0,0,1,149.43,39.2131Z" transform="translate(226.0921 70.0538)"/><path class="cls-23" d="M215.0552,39.6236A208.6768,208.6768,0,0,0,193.24,36.8717c-3.3679,13.4174-6.7148,20.6721-6.71,20.5655a16.989,16.989,0,0,1,7.031,2.91q.3924.2919.7491.6042A151.4692,151.4692,0,0,0,215.0552,39.6236Z" transform="translate(226.0921 70.0538)"/><path class="cls-22" d="M133.1284-33.7084c-1.29.3837-2.5783.7788-3.8634,1.1971-.37,1.0338-.7183,2.078-1.0287,3.1387a56.3957,56.3957,0,0,0-2.0869,11.3155q-.1842,2.2831-.1854,4.615a54.4919,54.4919,0,0,0,1.3019,11.371,89.5211,89.5211,0,0,0,6.1494,18.0655,122.0257,122.0257,0,0,0,10.1029,17.8807c.5831-.1343,1.1672-.2625,1.7514-.39C126.738,6.2275,128.2864-17.8933,133.1284-33.7084Z" transform="translate(226.0921 70.0538)"/><path class="cls-24" d="M194.3107,60.9518c7.6626-4.1559,15.7243-11.7292,22.8684-20.9417-.7088-.1335-1.4164-.26-2.1239-.3865A151.4692,151.4692,0,0,1,194.3107,60.9518Z" transform="translate(226.0921 70.0538)"/><path class="cls-24" d="M219.3273,33.8484c.6791.1345,1.3592.2743,2.04.4153a122.14,122.14,0,0,0,10.3691-18.2693,89.5087,89.5087,0,0,0,6.1494-18.0655,54.4855,54.4855,0,0,0,1.302-11.371q0-2.3307-.1854-4.615a56.41,56.41,0,0,0-2.0869-11.3155c-.2522-.8614-.544-1.7052-.8355-2.549q-1.8855-.5385-3.7663-1.0419C236.9251-16.9958,237.9493,6.9272,219.3273,33.8484Z" transform="translate(226.0921 70.0538)"/><path class="cls-21" d="M198.6547-49.6891c-.6021-6.0344-1.4092-12.274-2.4638-18.7167a56.7381,56.7381,0,0,0-13.6153-1.648,56.7118,56.7118,0,0,0-13.7928,1.7c-1.02,6.2409-1.81,12.2926-2.4052,18.15A177.2619,177.2619,0,0,1,198.6547-49.6891Z" transform="translate(226.0921 70.0538)"/><path class="cls-24" d="M230.2861-43.877a56.8574,56.8574,0,0,0-7.68-9.5956,54.4873,54.4873,0,0,1,5.3147,9.0148C228.71-44.2615,229.4962-44.082,230.2861-43.877Z" transform="translate(226.0921 70.0538)"/><path class="cls-20" d="M166.2067-67.6513A56.5092,56.5092,0,0,0,145.4253-56.16c-.823.7164-1.6118,1.47-2.392,2.2322a66.5225,66.5225,0,0,0-5.203,8.5421,159.8712,159.8712,0,0,1,28.5473-4.8172c.5949-5.8578,1.3847-11.91,2.4052-18.15C167.917-68.1367,167.0562-67.9074,166.2067-67.6513Z" transform="translate(226.0921 70.0538)"/><path class="cls-22" d="M142.5452-53.4726a56.8725,56.8725,0,0,0-7.1158,8.7133c.7982-.2244,1.6009-.4153,2.4009-.6266a66.5225,66.5225,0,0,1,5.203-8.5421C142.8741-53.7725,142.7025-53.63,142.5452-53.4726Z" transform="translate(226.0921 70.0538)"/><path class="cls-25" d="M166.3776-50.2031A159.8712,159.8712,0,0,0,137.83-45.3859a72.996,72.996,0,0,0-4.7019,11.6775,159.3176,159.3176,0,0,1,32.38-6.0662Q165.841-44.8788,166.3776-50.2031Z" transform="translate(226.0921 70.0538)"/><path class="cls-26" d="M137.83-45.3859c-.8.2113-1.6027.4022-2.4009.6266a56.3811,56.3811,0,0,0-6.1644,12.248c1.2851-.4183,2.5734-.8134,3.8634-1.1971A72.996,72.996,0,0,1,137.83-45.3859Z" transform="translate(226.0921 70.0538)"/><path class="cls-27" d="M215.0552,39.6236c.7075.1263,1.4151.253,2.1239.3865,1.4373-1.8535,2.8355-3.7746,4.1877-5.7464-.68-.141-1.36-.2808-2.04-.4153Q217.3451,36.7141,215.0552,39.6236Z" transform="translate(226.0921 70.0538)"/><path class="cls-26" d="M145.27,33.4852c-.5842.1274-1.1683.2556-1.7514.39q1.99,2.9257,4.1105,5.6889.9-.1815,1.8012-.3509Q147.1979,36.328,145.27,33.4852Z" transform="translate(226.0921 70.0538)"/><path class="cls-28" d="M193.24,36.8717a208.6768,208.6768,0,0,1,21.8151,2.7519q2.2878-2.9084,4.2721-5.7752a213.2938,213.2938,0,0,0-24.5794-3.4414Q194.0042,33.8431,193.24,36.8717Z" transform="translate(226.0921 70.0538)"/><path class="cls-21" d="M199.5083-39.23a177.2926,177.2926,0,0,0-34-.5449,254.7925,254.7925,0,0,0,4.66,69.8775,179.9913,179.9913,0,0,1,24.58.3041A254.3582,254.3582,0,0,0,199.5083-39.23Z" transform="translate(226.0921 70.0538)"/><path class="cls-20" d="M165.508-39.7746a159.3176,159.3176,0,0,0-32.38,6.0662c-4.842,15.8151-6.39,39.9359,12.1412,67.1936a159.672,159.672,0,0,1,24.8986-3.3823A254.7925,254.7925,0,0,1,165.508-39.7746Z" transform="translate(226.0921 70.0538)"/><path class="cls-28" d="M227.9208-44.4578a213.922,213.922,0,0,0-29.2661-5.2313q.5329,5.3411.8536,10.4594a217.8687,217.8687,0,0,1,32.8049,6.2662A73.2686,73.2686,0,0,0,227.9208-44.4578Z" transform="translate(226.0921 70.0538)"/><path class="cls-23" d="M222.6061-53.4726q-1.3342-1.3344-2.7554-2.5787a56.4623,56.4623,0,0,0-23.66-12.3545c1.0546,6.4427,1.8617,12.6823,2.4638,18.7167a213.922,213.922,0,0,1,29.2661,5.2313A54.4873,54.4873,0,0,0,222.6061-53.4726Z" transform="translate(226.0921 70.0538)"/><path class="cls-27" d="M236.08-31.9216a56.33,56.33,0,0,0-5.7934-11.9554c-.79-.205-1.5764-.3845-2.3653-.5808a73.2686,73.2686,0,0,1,4.3924,11.4943Q234.1944-32.4578,236.08-31.9216Z" transform="translate(226.0921 70.0538)"/><path class="cls-23" d="M199.5083-39.23a254.3582,254.3582,0,0,1-4.76,69.6367,213.2938,213.2938,0,0,1,24.5794,3.4414c18.622-26.9212,17.5978-50.8442,12.9859-66.8119A217.8687,217.8687,0,0,0,199.5083-39.23Z" transform="translate(226.0921 70.0538)"/><path class="cls-29" d="M166.3776-50.2031q-.5409,5.3247-.87,10.4285a177.2926,177.2926,0,0,1,34,.5449q-.3241-5.118-.8536-10.4594A177.2619,177.2619,0,0,0,166.3776-50.2031Z" transform="translate(226.0921 70.0538)"/><path class="cls-29" d="M170.1682,30.1029c.4938,2.2983.9984,4.4671,1.5035,6.4923a179.97,179.97,0,0,1,21.5684.2765q.7591-3.0243,1.5078-6.4647A179.9913,179.9913,0,0,0,170.1682,30.1029Z" transform="translate(226.0921 70.0538)"/><path class="cls-25" d="M145.27,33.4852q1.9323,2.8422,4.16,5.7279a161.2858,161.2858,0,0,1,22.2418-2.6179c-.5051-2.0252-1.01-4.194-1.5035-6.4923A159.672,159.672,0,0,0,145.27,33.4852Z" transform="translate(226.0921 70.0538)"/></g><g id="Layer_13" data-name="Layer 13"><rect class="cls-6" x="45.3057" y="137.1725" width="22.416" height="4.125"/><path class="cls-7" d="M-169.538,89.5884H-178.49c0,4.2,1.7416,10.5,1.7416,10.5h14.3669s1.7416-6.3,1.7416-10.5h-8.9525" transform="translate(226.0921 70.0538)"/><polygon class="cls-8" points="48.6 159.61 44.877 138.907 45.643 138.29 49.475 159.61 48.6 159.61"/><polygon class="cls-8" points="64.642 159.637 68.361 138.935 67.594 138.318 63.767 159.637 64.642 159.637"/><polygon class="cls-8" points="60.901 159.61 60.899 135.393 61.563 135.529 61.565 159.61 60.901 159.61"/><polygon class="cls-8" points="52.171 159.64 52.169 135.422 51.505 135.559 51.507 159.64 52.171 159.64"/><path class="cls-11" d="M-202.6262,47.1146a148.9614,148.9614,0,0,0,20.0786,20.9836q.6678.3937,1.3321.7552.3642-.3189.7665-.6172A16.4872,16.4872,0,0,1-174.5,65.5648q.4521-.1088.9094-.1973c.006.1087-3.4017-7.2728-6.7935-20.8707A161.3011,161.3011,0,0,0-202.6262,47.1146Z" transform="translate(226.0921 70.0538)"/><path class="cls-30" d="M-180.3844,44.4968c3.3918,13.5979,6.7995,20.9794,6.7935,20.8707a21.8115,21.8115,0,0,1,8.0654-.0287h0c-.0054.1065,3.3415-7.1482,6.7095-20.5655A179.9505,179.9505,0,0,0-180.3844,44.4968Z" transform="translate(226.0921 70.0538)"/><path class="cls-31" d="M-202.6262,47.1146q-.9014.171-1.8011.351c6.8175,8.8785,14.4965,16.2774,21.88,20.6326A148.9614,148.9614,0,0,1-202.6262,47.1146Z" transform="translate(226.0921 70.0538)"/><path class="cls-32" d="M-137.0009,47.5252a208.675,208.675,0,0,0-21.815-2.7519c-3.368,13.4173-6.7149,20.672-6.7095,20.5655a16.99,16.99,0,0,1,7.031,2.91q.3924.2919.749.6042A151.4744,151.4744,0,0,0-137.0009,47.5252Z" transform="translate(226.0921 70.0538)"/><path class="cls-31" d="M-218.9277-25.8069c-1.29.3838-2.5783.7789-3.8634,1.1972-.37,1.0338-.7183,2.078-1.0287,3.1387a56.4085,56.4085,0,0,0-2.0869,11.3155q-.1842,2.2832-.1854,4.615a54.4862,54.4862,0,0,0,1.302,11.371,89.5108,89.5108,0,0,0,6.1494,18.0655,122.0218,122.0218,0,0,0,10.1029,17.8807c.5831-.1343,1.1671-.2625,1.7513-.39C-225.318,14.129-223.77-9.9917-218.9277-25.8069Z" transform="translate(226.0921 70.0538)"/><path class="cls-33" d="M-157.7454,68.8534c7.6627-4.1559,15.7243-11.7292,22.8684-20.9418-.7088-.1334-1.4164-.26-2.1239-.3864A151.4744,151.4744,0,0,1-157.7454,68.8534Z" transform="translate(226.0921 70.0538)"/><path class="cls-33" d="M-132.7288,41.75c.6791.1345,1.3592.2743,2.04.4152A122.1336,122.1336,0,0,0-120.32,23.896a89.5175,89.5175,0,0,0,6.15-18.0655A54.4926,54.4926,0,0,0-112.8688-5.54q0-2.3307-.1854-4.615a56.4014,56.4014,0,0,0-2.0869-11.3155c-.2521-.8614-.544-1.7052-.8354-2.5491q-1.8856-.5384-3.7663-1.0418C-115.131-9.0942-114.1068,14.8288-132.7288,41.75Z" transform="translate(226.0921 70.0538)"/><path class="cls-30" d="M-153.4013-41.7875c-.6022-6.0344-1.4092-12.274-2.4638-18.7168a56.7438,56.7438,0,0,0-13.6153-1.648,56.7072,56.7072,0,0,0-13.7929,1.7c-1.02,6.2409-1.81,12.2926-2.4052,18.15A177.263,177.263,0,0,1-153.4013-41.7875Z" transform="translate(226.0921 70.0538)"/><path class="cls-33" d="M-121.77-35.9754a56.8579,56.8579,0,0,0-7.68-9.5956,54.4911,54.4911,0,0,1,5.3148,9.0148C-123.3464-36.36-122.56-36.18-121.77-35.9754Z" transform="translate(226.0921 70.0538)"/><path class="cls-11" d="M-185.8494-59.75a56.51,56.51,0,0,0-20.7814,11.4911c-.823.7164-1.6118,1.47-2.392,2.2321a66.5442,66.5442,0,0,0-5.2029,8.5422,159.8626,159.8626,0,0,1,28.5472-4.8172c.595-5.8578,1.3847-11.91,2.4052-18.15C-184.1391-60.2351-185-60.0058-185.8494-59.75Z" transform="translate(226.0921 70.0538)"/><path class="cls-31" d="M-209.5109-45.571a56.8784,56.8784,0,0,0-7.1158,8.7133c.7982-.2244,1.601-.4153,2.401-.6266a66.5442,66.5442,0,0,1,5.2029-8.5422C-209.182-45.871-209.3535-45.7284-209.5109-45.571Z" transform="translate(226.0921 70.0538)"/><path class="cls-16" d="M-185.6785-42.3015a159.8626,159.8626,0,0,0-28.5472,4.8172,72.9939,72.9939,0,0,0-4.702,11.6774,159.3243,159.3243,0,0,1,32.38-6.0661Q-186.2149-36.9773-185.6785-42.3015Z" transform="translate(226.0921 70.0538)"/><path class="cls-34" d="M-214.2257-37.4843c-.8.2113-1.6028.4022-2.401.6266a56.3855,56.3855,0,0,0-6.1644,12.248c1.2851-.4183,2.5735-.8134,3.8634-1.1972A72.9939,72.9939,0,0,1-214.2257-37.4843Z" transform="translate(226.0921 70.0538)"/><path class="cls-35" d="M-137.0009,47.5252c.7075.1263,1.4151.253,2.1239.3864,1.4373-1.8534,2.8355-3.7746,4.1877-5.7464-.68-.1409-1.36-.2807-2.04-.4152Q-134.711,44.6158-137.0009,47.5252Z" transform="translate(226.0921 70.0538)"/><path class="cls-34" d="M-206.7865,41.3867c-.5842.1275-1.1682.2557-1.7513.39q1.99,2.9256,4.1105,5.6889.8994-.1815,1.8011-.351Q-204.8582,44.23-206.7865,41.3867Z" transform="translate(226.0921 70.0538)"/><path class="cls-36" d="M-158.8159,44.7733a208.675,208.675,0,0,1,21.815,2.7519q2.2878-2.9083,4.2721-5.7752a213.2907,213.2907,0,0,0-24.5794-3.4414Q-158.0517,41.7447-158.8159,44.7733Z" transform="translate(226.0921 70.0538)"/><path class="cls-30" d="M-152.5478-31.3282a177.2925,177.2925,0,0,0-34-.5448,254.7879,254.7879,0,0,0,4.66,69.8775,179.9576,179.9576,0,0,1,24.58.3041A254.359,254.359,0,0,0-152.5478-31.3282Z" transform="translate(226.0921 70.0538)"/><path class="cls-11" d="M-186.5481-31.873a159.3243,159.3243,0,0,0-32.38,6.0661c-4.8419,15.8152-6.39,39.9359,12.1412,67.1936a159.6731,159.6731,0,0,1,24.8987-3.3822A254.7879,254.7879,0,0,1-186.5481-31.873Z" transform="translate(226.0921 70.0538)"/><path class="cls-36" d="M-124.1352-36.5562a213.91,213.91,0,0,0-29.2661-5.2313q.5328,5.3411.8535,10.4593a217.8829,217.8829,0,0,1,32.805,6.2663A73.2785,73.2785,0,0,0-124.1352-36.5562Z" transform="translate(226.0921 70.0538)"/><path class="cls-32" d="M-129.45-45.571q-1.3342-1.3344-2.7554-2.5787a56.4621,56.4621,0,0,0-23.66-12.3546c1.0546,6.4428,1.8616,12.6824,2.4638,18.7168a213.91,213.91,0,0,1,29.2661,5.2313A54.4911,54.4911,0,0,0-129.45-45.571Z" transform="translate(226.0921 70.0538)"/><path class="cls-35" d="M-115.9765-24.02A56.3359,56.3359,0,0,0-121.77-35.9754c-.79-.2051-1.5765-.3846-2.3653-.5808a73.2785,73.2785,0,0,1,4.3924,11.4943Q-117.8618-24.5562-115.9765-24.02Z" transform="translate(226.0921 70.0538)"/><path class="cls-32" d="M-152.5478-31.3282a254.359,254.359,0,0,1-4.76,69.6368A213.2907,213.2907,0,0,1-132.7288,41.75c18.622-26.9212,17.5978-50.8442,12.986-66.8119A217.8829,217.8829,0,0,0-152.5478-31.3282Z" transform="translate(226.0921 70.0538)"/><path class="cls-37" d="M-185.6785-42.3015q-.5409,5.3247-.87,10.4285a177.2925,177.2925,0,0,1,34,.5448q-.3242-5.1179-.8535-10.4593A177.263,177.263,0,0,0-185.6785-42.3015Z" transform="translate(226.0921 70.0538)"/><path class="cls-37" d="M-181.8878,38.0045c.4937,2.2983.9983,4.4671,1.5034,6.4923a179.9505,179.9505,0,0,1,21.5685.2765q.759-3.0243,1.5077-6.4647A179.9576,179.9576,0,0,0-181.8878,38.0045Z" transform="translate(226.0921 70.0538)"/><path class="cls-16" d="M-206.7865,41.3867q1.9323,2.8424,4.16,5.7279a161.3011,161.3011,0,0,1,22.2418-2.6178c-.5051-2.0252-1.01-4.194-1.5034-6.4923A159.6731,159.6731,0,0,0-206.7865,41.3867Z" transform="translate(226.0921 70.0538)"/></g><g id="Layer_11" data-name="Layer 11"><path class="cls-38" d="M28.2292,11.0665" transform="translate(226.0921 70.0538)"/><path class="cls-39" d="M6.25,72.5892" transform="translate(226.0921 70.0538)"/><path class="cls-40" d="M28.2292,72.3108" transform="translate(226.0921 70.0538)"/><path class="cls-41" d="M1.25,39.3115V59.4494s0,13.4183,15.0417,13.4183h7.9166C39.25,72.8677,39.25,59.4494,39.25,59.4494V14.3359s0-12.8805-15.0417-12.8805H16.2917C1.25,1.4554,1.25,14.3359,1.25,14.3359Z" transform="translate(226.0921 70.0538)"/><rect class="cls-42" x="244.5921" y="81.1203" width="3.5" height="10.5" rx="1.75" ry="1.75"/></g></svg>